<svg xmlns="http://www.w3.org/2000/svg" xmlns:xlink="http://www.w3.org/1999/xlink" viewBox="0 0 55.3 67.7" role="img">
<title>BGCI Logo</title>
  <defs>
    <clipPath id="clip-path" transform="translate(-10.8 -2.4)">
      <rect width="79.4" height="72.96" fill="none"/>
    </clipPath>
    <clipPath id="clip-path-2" transform="translate(-10.8 -2.4)">
      <polyline points="10.8 2.4 10.8 70.1 66 70.1 66 2.4" fill="none"/>
    </clipPath>
  </defs>
  <title>Asset 2mdpi</title>
  <g id="Layer_2" data-name="Layer 2">
    <g id="Layer_1-2" data-name="Layer 1">
      <g clip-path="url(#clip-path)">
        <g clip-path="url(#clip-path-2)">
          <path d="M22.2,56h2.6c1,0,1.9-.3,1.9-1.5s-.8-1.6-1.8-1.6H22.2V56m0-4.8h2.5c.9,0,1.5-.4,1.5-1.4s-.8-1.3-1.7-1.3H22.2Zm-2.5-4.6H25c2.2,0,3.6.7,3.6,2.8a2.5,2.5,0,0,1-1.5,2.4,2.7,2.7,0,0,1,2.1,2.9c0,2.3-2,3.2-4,3.2H19.7Z" transform="translate(-10.8 -2.4)" fill="#fff"/>
          <path d="M39.1,56.7a4,4,0,0,1-3.2,1.5c-3.5,0-5.5-2.6-5.5-5.9s2-6,5.5-6a4.5,4.5,0,0,1,4.8,4H38.3a2.3,2.3,0,0,0-2.4-1.9c-2.2,0-3,1.9-3,3.9s.8,3.8,3,3.8a2.4,2.4,0,0,0,2.7-2.4H36.1V51.8h4.8v6.1H39.3l-.2-1.2" transform="translate(-10.8 -2.4)" fill="#fff"/>
          <path d="M50.5,50.4a2.6,2.6,0,0,0-2.5-2c-2.2,0-3.1,1.9-3.1,3.9s.9,3.8,3.1,3.8a2.6,2.6,0,0,0,2.6-2.5H53a4.8,4.8,0,0,1-5,4.6c-3.5,0-5.6-2.6-5.6-5.9s2.1-6,5.6-6a4.6,4.6,0,0,1,4.9,4.1H50.5" transform="translate(-10.8 -2.4)" fill="#fff"/>
          <rect x="43.9" y="44.2" width="2.5" height="11.35" fill="#fff"/>
          <path d="M38.8,3.5H36.1l-2.3.5-2,.6L30,5.4,27.9,6.6l-1.3.9L24.8,9.2,23.2,11l-1.3,1.8-1,1.8-.8,2.2-.4,1.7-.5,3v4.3l.4,2.4.5,1.7.8,2.1,1,1.8,1,1.5L24.3,37l1.9,1.7,1.4,1,1.7,1,2.6,1.1,1.6.5,2.2.5h3.7l2.6-.3,2.3-.6,2.1-.8,1.5-.8,2-1.3,1.9-1.5,1.7-1.8,1-1.4,1.3-2.2.8-2.1.6-2.2.4-2.8V20.5l-.4-2.3-.5-2-.7-1.5L55,12.5c-.2-.4-.6-.8-.8-1.2L52.6,9.4,50.8,7.8,49,6.5l-1.4-.8-1.9-.9L43.2,4l-2.4-.4h-2m1.3-1.1,2.4.4,2.5.6,2.1.8,1.7.9.7.4,1.3.9,1.6,1.3L53.7,9l.9,1,1,1.6.5.6,1.1,2.3.9,2.2.4,2.2h.1l.2,2.8V26l-.3,1.6-.5,2.1-.7,2-1,2-1.1,1.8-1.8,2-1.6,1.6-1.9,1.4-1.5.9-1.7.9-1.7.6-2.6.7-2,.3H37.8l-2.6-.2-2-.4-2.3-.8L29.4,42l-1.6-.8L26.1,40,24,38.2l-1.4-1.4-1-1.4-1.3-2.2-1.1-2.4-.5-1.9v-.4l-.3-1.6L18,24.2V20.3l.4-2.3.7-2.3.6-1.6.7-1.3,1.2-1.9,1.8-2.1,1.2-1.2,1.6-1.3,1.7-1.1,1.6-.8,1.9-.9L34,2.9l2.7-.4h3.4Z" transform="translate(-10.8 -2.4)" fill="#fff"/>
          <path d="M38.5,4.9a17.7,17.7,0,0,1,0,2.3A3,3,0,0,1,37.2,7c-.3-.2-.6-.1-.8-.3s1.1-1.5,1.9-1.8h.2" transform="translate(-10.8 -2.4)" fill="#fff"/>
          <path d="M39.8,4.9c-.1.4-.5.7-.8,1h-.1c0-.3-.1-.8.1-1a1.1,1.1,0,0,1,.8,0" transform="translate(-10.8 -2.4)" fill="#fff"/>
          <path d="M34.4,5.8A4.1,4.1,0,0,1,33.3,7h-.1l-.5-1.2a1.7,1.7,0,0,1,1.7,0" transform="translate(-10.8 -2.4)" fill="#fff"/>
          <path d="M32.7,6.6l.9,2.5-.3.2-1.5.4a1.4,1.4,0,0,1-.6-.8,2.5,2.5,0,0,1,.4-2.5l.8-.5.3.7" transform="translate(-10.8 -2.4)" fill="#fff"/>
          <path d="M41.1,5.9v.2l-1.7.6c-.2,0-.4.2-.5.1V6.3l1.5-.8c.3-.2.6.2.7.4" transform="translate(-10.8 -2.4)" fill="#fff"/>
          <path d="M35.4,6.8c.1.3.3.7,0,.9l-1.7.7a1.9,1.9,0,0,1-.3-1A9.1,9.1,0,0,0,35,6.3c.3,0,.3.3.4.5" transform="translate(-10.8 -2.4)" fill="#fff"/>
          <path d="M43.7,5.8c.2.3.8.5.6.9s-.8-.5-1.1-.6a.5.5,0,0,1,.5-.3" transform="translate(-10.8 -2.4)" fill="#fff"/>
          <path d="M45.8,6.5c-.3.2-.6.1-.9.1s.1-.4.1-.6.5.4.8.5" transform="translate(-10.8 -2.4)" fill="#fff"/>
          <path d="M44.1,7.2c0,.2-.1.3-.2.5l-1.8-.4c-.3-.2.1-.5.1-.7s.8.1,1.1.1l.8.5" transform="translate(-10.8 -2.4)" fill="#fff"/>
          <path d="M41.2,6.7a.9.9,0,0,1-.2,1L39,8a2.2,2.2,0,0,1-.1-.8h.3L41,6.8h.2" transform="translate(-10.8 -2.4)" fill="#fff"/>
          <path d="M46,6.9a.4.4,0,0,1,.2.4H44.6c-.1-.1,0-.3.1-.4H46" transform="translate(-10.8 -2.4)" fill="#fff"/>
          <polyline points="27.7 5.5 27.7 7.1 27.6 7.2 26 7.1 25.9 6.8 25.7 5.1 25.8 5 27.6 5.3 27.7 5.5" fill="#fff"/>
          <path d="M29,8.1a2.2,2.2,0,0,1-1,1.3c-.2-.3-.5-.5-.6-.8A1.8,1.8,0,0,1,29,8.1" transform="translate(-10.8 -2.4)" fill="#fff"/>
          <path d="M31,9.9c-.3.5-1,.8-1.4,1.3h-.1L28.3,9.8h.1a7.6,7.6,0,0,0,1.1-1.4A2.9,2.9,0,0,1,31,9.9" transform="translate(-10.8 -2.4)" fill="#fff"/>
          <path d="M46.3,7.7c0,.2.1.5-.1.6L44.8,8c-.1-.1-.7,0-.4-.4V7.4l1.8.3" transform="translate(-10.8 -2.4)" fill="#fff"/>
          <path d="M35.7,8.2c0,.3.3.7,0,.8l-1.6.5a3.2,3.2,0,0,1-.3-.9l1.5-.5c.2.1.4-.1.4.1" transform="translate(-10.8 -2.4)" fill="#fff"/>
          <path d="M43.7,8.1a4.9,4.9,0,0,1-.5,1.6l-1.6-.4a4,4,0,0,1,.3-1.5H42a4.7,4.7,0,0,1,1.7.3" transform="translate(-10.8 -2.4)" fill="#fff"/>
          <path d="M40.9,8.3c.2,0,.1.3.1.4H39c-.2-.3,0-.4.2-.4h1.7" transform="translate(-10.8 -2.4)" fill="#fff"/>
          <path d="M46,8.6c.1.1-.1.3-.1.4h-.1a4.9,4.9,0,0,1-1.7-.6V8.2h.4l1.4.3" transform="translate(-10.8 -2.4)" fill="#fff"/>
          <path d="M48.8,8.2a6,6,0,0,0,0,1.9l-.2.3a6.8,6.8,0,0,1-1-2.1,2.5,2.5,0,0,1,1.2-.1" transform="translate(-10.8 -2.4)" fill="#fff"/>
          <path d="M28.1,10.1a5.5,5.5,0,0,1-1.7.5c-.2-.1,0-.4-.1-.6h.2l1.2-.3.4.5" transform="translate(-10.8 -2.4)" fill="#fff"/>
          <path d="M33.8,9.8l.4,1.3a3.8,3.8,0,0,1-1.3.6l-.2-.2-.8-1.3h0a7.7,7.7,0,0,1,1.7-.7l.2.4" transform="translate(-10.8 -2.4)" fill="#fff"/>
          <path d="M40.5,9.1c.7-.1.3.7.3,1l-.3,1.5H38.9V9.1h1.6" transform="translate(-10.8 -2.4)" fill="#fff"/>
          <path d="M45.5,9.5c.2.2-.2.4-.2.6s-.4,1.4-1.1.8l-.8-.4L43.9,9H44l1.5.6" transform="translate(-10.8 -2.4)" fill="#fff"/>
          <path d="M50,8.8a1.8,1.8,0,0,1-.7.8,1.6,1.6,0,0,1,.2-1c.2,0,.4,0,.5.2" transform="translate(-10.8 -2.4)" fill="#fff"/>
          <path d="M36,9.8h0l-1.3.6c-.3.2-.3-.1-.4-.3s1-.4,1.5-.6a.2.2,0,0,1,.2.2" transform="translate(-10.8 -2.4)" fill="#fff"/>
          <path d="M47.9,10.5l.3.3h-.1L46.9,9.5c0-.1-.2-.2-.2-.4h.1l.2.2.9,1.3" transform="translate(-10.8 -2.4)" fill="#fff"/>
          <path d="M43.1,10.1l-.4,1-1.4-.3a5.2,5.2,0,0,1,.2-1.1,3.2,3.2,0,0,1,1.6.4" transform="translate(-10.8 -2.4)" fill="#fff"/>
          <path d="M31.5,10.7A8.3,8.3,0,0,1,30,11.8a.2.2,0,0,1-.2-.2l.2-.2,1.3-1c.1,0,.2.2.2.3" transform="translate(-10.8 -2.4)" fill="#fff"/>
          <path d="M38.5,10.5H36.9c-.1-.1-.1-.2-.1-.4h1.7v.4" transform="translate(-10.8 -2.4)" fill="#fff"/>
          <path d="M28.8,10.9v.2l-1.7,1c-.3,0-.4-.4-.5-.6h0l1.9-.9c.2,0,.3.2.4.3" transform="translate(-10.8 -2.4)" fill="#fff"/>
          <path d="M48,11.1l-.9,1.2h-.2l-1.2-1.3h0l.7-1.2L48,11.1" transform="translate(-10.8 -2.4)" fill="#fff"/>
          <path d="M36.5,12.5c-.1.2-.4.2-.6.3h-.6l-.7-2c-.1-.3.2-.2.4-.3l1.1-.3.4,2.2" transform="translate(-10.8 -2.4)" fill="#fff"/>
          <path d="M50.9,10v.2H49.5a1,1,0,0,1,.4-.5c.3.2,1.2-.3,1,.4" transform="translate(-10.8 -2.4)" fill="#fff"/>
          <path d="M31.1,13.7v.2a3.2,3.2,0,0,1-1,1h-.3l-2.7-2.3.2-.2,1.6-1h.1l2,2.4" transform="translate(-10.8 -2.4)" fill="#fff"/>
          <path d="M32.5,12.2c-.3.4-.9.6-1.3,1H31l-.7-1.1c.4-.4.9-.5,1.4-.9h.2l.6,1" transform="translate(-10.8 -2.4)" fill="#fff"/>
          <path d="M38.5,11v1.7c.1.1-.1.1-.2.1l-1.2.2-.2-1.9c.4-.3,1-.1,1.5-.2h.1" transform="translate(-10.8 -2.4)" fill="#fff"/>
          <path d="M51,10.9c.1,0,0,.2,0,.3h-.4l-1.4-.5c-.1,0-.1-.2,0-.2a9.5,9.5,0,0,0,1.8.5" transform="translate(-10.8 -2.4)" fill="#fff"/>
          <path d="M34.5,11.7l-1.3.7-.2-.3c.3-.4.8-.4,1.1-.7s.3.2.4.3" transform="translate(-10.8 -2.4)" fill="#fff"/>
          <path d="M44.6,11.3a4.5,4.5,0,0,1-.6,1.2,2.2,2.2,0,0,1-1.1-.5,2.8,2.8,0,0,1,.4-1.2l1.3.5" transform="translate(-10.8 -2.4)" fill="#fff"/>
          <path d="M25.1,12.2a10.8,10.8,0,0,1-.5,2.1c-.2.2-.4,0-.6-.1s-.1-1.1-.4-1.5.5-.4.8-.6.5-.1.7.1" transform="translate(-10.8 -2.4)" fill="#fff"/>
          <path d="M42.6,11.5l-.5,1.6H40.8l.2-1.4.2-.4a3.2,3.2,0,0,1,1.4.2" transform="translate(-10.8 -2.4)" fill="#fff"/>
          <path d="M26.8,13.1v.2L25.6,15c-.2.1-.5-.2-.7-.3a20.2,20.2,0,0,0,.7-2.3c.5-.1.8.4,1.2.7" transform="translate(-10.8 -2.4)" fill="#fff"/>
          <path d="M50.5,11.9l-.2.3L48,14.1l-1.2-.7a.2.2,0,0,1,0-.3L48.7,11l1.8.9" transform="translate(-10.8 -2.4)" fill="#fff"/>
          <path d="M46.6,12.6c.1.2-.1.3-.3.5s-.8-.7-1.3-.9.1-.4.2-.6a5,5,0,0,1,1.4,1" transform="translate(-10.8 -2.4)" fill="#fff"/>
          <path d="M35.1,13.6a1.9,1.9,0,0,1-.9.5,4.7,4.7,0,0,1-.7-1.2,2.3,2.3,0,0,1,1.2-.6l.4,1.3" transform="translate(-10.8 -2.4)" fill="#fff"/>
          <path d="M40.4,12.3a1,1,0,0,1-.2.9H39a1,1,0,0,1,0-.9,3.6,3.6,0,0,1,1.4.2" transform="translate(-10.8 -2.4)" fill="#fff"/>
          <path d="M33.2,13.4c-.3.4-.8.5-1.2.8l-.6-.7a14.8,14.8,0,0,1,1.3-.8c.3.1.3.5.5.7" transform="translate(-10.8 -2.4)" fill="#fff"/>
          <path d="M27.7,13.9l-1.1,1.7a1,1,0,0,1-.7-.4V15l1.2-1.6c.2.1.6.2.6.5" transform="translate(-10.8 -2.4)" fill="#fff"/>
          <path d="M23.2,14.2l-.7.4a.8.8,0,0,1,.2-.8c.2.1.5.2.5.4" transform="translate(-10.8 -2.4)" fill="#fff"/>
          <path d="M46,13.4h0l-1.2,1.4c-.4,0-.8-.4-1.3-.4v-.4l.8-1.3c.2-.4.4,0,.6,0s.8.2,1,.6" transform="translate(-10.8 -2.4)" fill="#fff"/>
          <path d="M52.6,12.4c0,.6-.2,1.2-.2,1.9a2.6,2.6,0,0,1-.9.5l-.3-.5-.5-1.5a1.8,1.8,0,0,1,1.9-.4" transform="translate(-10.8 -2.4)" fill="#fff"/>
          <path d="M25,15.1l-1.1,1.3c-.2.1-.3.5-.6.3a1.9,1.9,0,0,1-.8-1.6l1.1-.7a9.1,9.1,0,0,1,1.4.7" transform="translate(-10.8 -2.4)" fill="#fff"/>
          <path d="M28.3,14.3h0l-1,1.5H27v-.3l1-1.5a.2.2,0,0,1,.2.2" transform="translate(-10.8 -2.4)" fill="#fff"/>
          <path d="M33.7,14.2a2.7,2.7,0,0,1-1.2.6c-.2,0-.3-.2-.4-.4h.1l1.2-.6c.2,0,.2.3.3.4" transform="translate(-10.8 -2.4)" fill="#fff"/>
          <path d="M54,13.4c-.3.1-.5.4-.8.4s.3-.5.5-.8.2.2.3.4" transform="translate(-10.8 -2.4)" fill="#fff"/>
          <path d="M51.1,15l-.2.2-1.2-1.5c0-.2.2-.3.3-.4l.3.2.8,1.5" transform="translate(-10.8 -2.4)" fill="#fff"/>
          <path d="M29,14.9c-.2.5-.7.9-1,1.5h-.2V16l.9-1.3.2.2" transform="translate(-10.8 -2.4)" fill="#fff"/>
          <path d="M47.5,14.5l-.3.2-.9-.9h.1l1.1.8" transform="translate(-10.8 -2.4)" fill="#fff"/>
          <path d="M25.8,15.6,25,16.9c-.1.3-.4.7-.7.3H24l1.3-1.8a.9.9,0,0,1,.5.3" transform="translate(-10.8 -2.4)" fill="#fff"/>
          <path d="M50.6,15.4c-.4.1-.8.7-1,.1l-.8-1.2.5-.4a6.1,6.1,0,0,1,1.3,1.5" transform="translate(-10.8 -2.4)" fill="#fff"/>
          <path d="M30.3,15.8l-1.1,1.3-.9-.4v-.2l1.1-1.3.9.6" transform="translate(-10.8 -2.4)" fill="#fff"/>
          <path d="M46.8,15.1l-.4.3-.7-.9c0-.1.1-.3.2-.3a2,2,0,0,1,.9.9" transform="translate(-10.8 -2.4)" fill="#fff"/>
          <path d="M54.6,13.9a1.9,1.9,0,0,1,.1,1.8A5.9,5.9,0,0,1,53,14.5l1.4-.8.2.2" transform="translate(-10.8 -2.4)" fill="#fff"/>
          <path d="M28.1,16.9c-.1.5-.3,1-.4,1.5h-.2l-2.2-.8v-.3l.7-1.4h.2l1.8,1h.1" transform="translate(-10.8 -2.4)" fill="#fff"/>
          <path d="M49.5,15.9h0l-1.7,1c-.3.1-.3-.4-.5-.5s-.8-.5-.3-.8l1.3-1h.2l1,1.1" transform="translate(-10.8 -2.4)" fill="#fff"/>
          <path d="M54.2,16.4c.1.2-.1.2-.3.3h-.1l-1-1.3c-.1-.2-.6-.4-.3-.6l1.7,1.6" transform="translate(-10.8 -2.4)" fill="#fff"/>
          <path d="M31.1,16.6c-.2.3-.7.6-1,1a.9.9,0,0,1-.5-.3,4.3,4.3,0,0,1,1.2-1.1l.3.4" transform="translate(-10.8 -2.4)" fill="#fff"/>
          <path d="M53.2,16.9h0l-1.5.5-.2-.2-.7-1.4h-.1l1.3-.7,1.2,1.8" transform="translate(-10.8 -2.4)" fill="#fff"/>
          <path d="M28.8,17.2c0,.6-.3,1-.3,1.6s-.3,0-.4-.2a8.3,8.3,0,0,1,.4-1.5h.3" transform="translate(-10.8 -2.4)" fill="#fff"/>
          <path d="M24,18.1l.2,1.9h-.8l-.5-2.1v-.3c.4.1,1,0,1.1.5" transform="translate(-10.8 -2.4)" fill="#fff"/>
          <path d="M50.5,16a8.7,8.7,0,0,1,.7,1.7l-.4.2-1.7.6c-.4-.3-.5-.8-.8-1.2l.2-.2L50.4,16h.1" transform="translate(-10.8 -2.4)" fill="#fff"/>
          <path d="M22.5,18.7l.5,1.2h0l-2.2-.3c-.2-.2,0-.4,0-.5a3.2,3.2,0,0,1,1-1.3c.4.1.5.5.7.9" transform="translate(-10.8 -2.4)" fill="#fff"/>
          <path d="M25.2,18.3v1.9c-.1.2-.2.1-.3.1h-.1v-2c.2-.1.3,0,.4.1" transform="translate(-10.8 -2.4)" fill="#fff"/>
          <polyline points="17.4 16.8 17.4 16.9 17.1 18.4 16.8 18.4 14.8 18 14.8 17.7 15.3 16.2 15.9 16.3 17.4 16.8" fill="#fff"/>
          <path d="M48.4,18.7c-.2,0-.2-.3-.3-.5s-.3-.5-.2-.7a2.6,2.6,0,0,1,.5,1.2" transform="translate(-10.8 -2.4)" fill="#fff"/>
          <path d="M48,18.8c-.2.1-.3.2-.5.1s-.2-.8,0-1.2h.1l.4,1.1" transform="translate(-10.8 -2.4)" fill="#fff"/>
          <path d="M55.7,18.1l-.6,1.4c-.4,0-.8.3-1.1.1l.4-1.5.2-.4a1,1,0,0,1,1.1.4" transform="translate(-10.8 -2.4)" fill="#fff"/>
          <path d="M54,18.3l-.5,1.5h-.3v-.3l.6-1.7c.1-.1.3-.2.4-.1v.5" transform="translate(-10.8 -2.4)" fill="#fff"/>
          <path d="M21.3,20.3a1.5,1.5,0,0,1-.5.7,1.3,1.3,0,0,1-.2-.9c.1-.3.5,0,.7,0v.2" transform="translate(-10.8 -2.4)" fill="#fff"/>
          <path d="M52.8,19.4l-.2.5-1.7.3V20l.4-1.4a.7.7,0,0,1,.8-.2,2.5,2.5,0,0,0-.2,1.2c.5-.5.3-1.7,1.3-1.6h.2l-.6,1.4" transform="translate(-10.8 -2.4)" fill="#fff"/>
          <path d="M29.5,19.8,29.1,21c-.2.1-.4,0-.6,0a3.7,3.7,0,0,1,.4-1.5c.2.1.4,0,.6.3" transform="translate(-10.8 -2.4)" fill="#fff"/>
          <path d="M22.4,20.3c-.2.6-.5,1.1-.7,1.7s-.4-.3-.5-.4l.7-1.4c.2-.1.3,0,.5.1" transform="translate(-10.8 -2.4)" fill="#fff"/>
          <path d="M23.2,20.4a13.8,13.8,0,0,1-.3,2h-.5a10.6,10.6,0,0,1,.4-1.9h.4" transform="translate(-10.8 -2.4)" fill="#fff"/>
          <path d="M50.5,20.3l-2.3.4h-.1c.1-.5.1-1,.4-1.3l1.8-.6h.2v1.5" transform="translate(-10.8 -2.4)" fill="#fff"/>
          <path d="M25.3,20.7v1.6H23.4V20.5h.1l1.7.2" transform="translate(-10.8 -2.4)" fill="#fff"/>
          <path d="M56.4,19.2c-.2.3-.5.2-.7.2s.2-.5.4-.8l.3.6" transform="translate(-10.8 -2.4)" fill="#fff"/>
          <path d="M26.1,20.9c-.1.5.1,1,0,1.5h-.3a4.3,4.3,0,0,1,0-1.6h.3" transform="translate(-10.8 -2.4)" fill="#fff"/>
          <path d="M27,21.1a7.6,7.6,0,0,1,1.6.3,4.4,4.4,0,0,1-.2,1h-2a3.3,3.3,0,0,1,0-1.4c.2,0,.5-.2.6.1" transform="translate(-10.8 -2.4)" fill="#fff"/>
          <path d="M56.4,20.5c.3.1.1.3.1.5a1,1,0,0,1-.6.5,2.8,2.8,0,0,1-.9-1.4c0-.3.5-.2.7-.3s.4.6.7.7" transform="translate(-10.8 -2.4)" fill="#fff"/>
          <path d="M55.1,21.7v.2H53.5l-.2-1.6a3.2,3.2,0,0,1,1.4-.2l.4,1.6" transform="translate(-10.8 -2.4)" fill="#fff"/>
          <path d="M52.8,20.5v1.4h-3a1.4,1.4,0,0,1,0-1.1l2.4-.4c.2,0,.4-.1.5.1" transform="translate(-10.8 -2.4)" fill="#fff"/>
          <path d="M49.4,21.9c-.2.1-.5.1-.6-.1s-.3-.7.1-.8.4.5.5.9" transform="translate(-10.8 -2.4)" fill="#fff"/>
          <path d="M23.9,25.1h0l-1.7.3L21.6,24c-.1-.1-.2-.2-.2-.3a3,3,0,0,1,1.9-.4l.6,1.8" transform="translate(-10.8 -2.4)" fill="#fff"/>
          <path d="M24.5,23.4l.3,1.6c-.2,0-.3.1-.4,0L24,23.3c.1-.1.5-.2.5.1" transform="translate(-10.8 -2.4)" fill="#fff"/>
          <path d="M26.3,23.2a5.7,5.7,0,0,1,.4,1.4,8,8,0,0,1-1.5.3L25,23.3h1.3" transform="translate(-10.8 -2.4)" fill="#fff"/>
          <path d="M27.9,23.4c0,.3.2.7.1,1h-.8V23.2c.3-.1.8-.2.8.2" transform="translate(-10.8 -2.4)" fill="#fff"/>
          <path d="M29.1,23.1a1.7,1.7,0,0,1,0,1l-.8.2a4.5,4.5,0,0,1-.1-1.2,2.7,2.7,0,0,1,.9,0" transform="translate(-10.8 -2.4)" fill="#fff"/>
          <path d="M21.9,25.4v.2l-1.2.2a2,2,0,0,1,.2-1.7H21l.9,1.3" transform="translate(-10.8 -2.4)" fill="#fff"/>
          <path d="M49.1,22.8a4.4,4.4,0,0,1-.2,1.6c-.2-.1-.5,0-.6-.2s-.8-1.4.3-1.4a.4.4,0,0,1,.5,0" transform="translate(-10.8 -2.4)" fill="#fff"/>
          <path d="M51.2,23.2l-.3,1.4H49.4a8.8,8.8,0,0,1,.2-1.7h1.5v.4" transform="translate(-10.8 -2.4)" fill="#fff"/>
          <path d="M53.5,22.9a14.2,14.2,0,0,1-.4,2h-.4l-1.4-.2c.1-.6.3-1.2.4-1.9h1.8" transform="translate(-10.8 -2.4)" fill="#fff"/>
          <path d="M55,22.9c0,.5-.4.9-.4,1.4s0,1.1-.6.8h-.7v-.3l.5-1.5c.1-.6.8-.3,1.2-.3" transform="translate(-10.8 -2.4)" fill="#fff"/>
          <path d="M29.3,25.7v.2l-2,.6a3.5,3.5,0,0,1-.6-1.4h.2l1.6-.4h.2l.6,1" transform="translate(-10.8 -2.4)" fill="#fff"/>
          <path d="M56.2,23.4c0,.3-.4.5-.5.8s-.3,1.2-1,1a5,5,0,0,1,.9-2.1.7.7,0,0,1,.6.3" transform="translate(-10.8 -2.4)" fill="#fff"/>
          <path d="M26.6,25.9c0,.3.2.5.2.8h-.3L26,25.3c-.1-.2.1-.2.3-.2l.3.8" transform="translate(-10.8 -2.4)" fill="#fff"/>
          <path d="M26,26.8c0,.3-.4.3-.6.4l-1.7.5v-2a7.1,7.1,0,0,1,2.1-.4l.4,1.5" transform="translate(-10.8 -2.4)" fill="#fff"/>
          <path d="M23.3,27.7c-.1.3-.6.1-.9.2h-.2l.2-1.9a1.3,1.3,0,0,1,.8-.2v2" transform="translate(-10.8 -2.4)" fill="#fff"/>
          <path d="M22,25.9a10.1,10.1,0,0,1-.3,1.7.5.5,0,0,1-.5-.3,5.6,5.6,0,0,0,.4-1.2c.1-.2.2-.1.4-.2" transform="translate(-10.8 -2.4)" fill="#fff"/>
          <path d="M55.7,25.3h-.2a3.4,3.4,0,0,1,.9-1.3c.6.6-.5.9-.7,1.3" transform="translate(-10.8 -2.4)" fill="#fff"/>
          <path d="M52.1,25.2l-.4,1.4a.8.8,0,0,1-.7-.1l-1.9-.6-1.2-.4c.1-.3.4-.5.5-.8h.9l2.8.4" transform="translate(-10.8 -2.4)" fill="#fff"/>
          <path d="M29.2,27.8a.2.2,0,0,0-.2.2l-1.3.7c-.2,0-.2-.1-.3-.2l-.2-1.1,1.5-.7a2.2,2.2,0,0,1,.5,1.1" transform="translate(-10.8 -2.4)" fill="#fff"/>
          <path d="M54,25.8l-.3,1.5h-.1L52.3,27a3.2,3.2,0,0,1,.2-1.7l1.5.2v.3" transform="translate(-10.8 -2.4)" fill="#fff"/>
          <path d="M56.5,25.9c.1.2-.1.5-.2.8L56,27c-.3-.1-.3-.5-.6-.7s.5,1.3-.4,1.3-.7.2-.7-.2-.1-1.3.2-1.8l2,.3" transform="translate(-10.8 -2.4)" fill="#fff"/>
          <path d="M26.9,28c.1.3.4.6.4.9l-1.6.9c-.2.1-.6.6-.8.2s-.6-.9-.9-1.4a27.7,27.7,0,0,1,2.6-1l.3.4" transform="translate(-10.8 -2.4)" fill="#fff"/>
          <path d="M30.7,28.8c-.3.6-1,.9-1.5,1.3H29L28.2,29v-.2l1.5-.9h.4l.6,1" transform="translate(-10.8 -2.4)" fill="#fff"/>
          <path d="M50.7,27.1a7.1,7.1,0,0,1-1,1.4l-.3-.2.9-1.2h.4" transform="translate(-10.8 -2.4)" fill="#fff"/>
          <path d="M52,27.7l-.8,1.4h-.3a1.6,1.6,0,0,1-.9-.5l1-1.3a2.1,2.1,0,0,1,1,.4" transform="translate(-10.8 -2.4)" fill="#fff"/>
          <path d="M24.8,30.2c0,.3-.4.3-.6.5s-.6-.5-1-.6l-.4-.2a2,2,0,0,1,.7-.9c.6.2.9.8,1.3,1.2" transform="translate(-10.8 -2.4)" fill="#fff"/>
          <path d="M28.5,30.5c-.1.3-.3.4-.6.5v-.2l-.5-1.4c0-.3.3-.3.6-.4l.6,1.5" transform="translate(-10.8 -2.4)" fill="#fff"/>
          <path d="M49.7,29l-.9,1h-.1l-1.6-1.3a1.9,1.9,0,0,1,.5-1L49.7,29" transform="translate(-10.8 -2.4)" fill="#fff"/>
          <path d="M53.5,28.3v.2l-1,1.4c-.3,0-.6-.3-.9-.4v-.2l.9-1.3c.1-.2.4,0,.5,0l.6.3" transform="translate(-10.8 -2.4)" fill="#fff"/>
          <path d="M26.9,29.5c.3.6.4,1.2.7,1.8s-.3.4-.6.4l-.5-1.8c0-.2.2-.3.4-.4" transform="translate(-10.8 -2.4)" fill="#fff"/>
          <path d="M26,30.1c.1.7.3,1.4.4,2.1a1.9,1.9,0,0,1-1.8.6,6.1,6.1,0,0,1-.1-1.9,7.1,7.1,0,0,1,1.5-.8" transform="translate(-10.8 -2.4)" fill="#fff"/>
          <path d="M54.1,28.9h0l-1,1.2-.5-.2v-.2l1.2-1.1.2.2" transform="translate(-10.8 -2.4)" fill="#fff"/>
          <path d="M50.7,29.4l-1,1.4c-.2,0-.3-.2-.5-.3v-.2l.9-1.1.6.2" transform="translate(-10.8 -2.4)" fill="#fff"/>
          <path d="M23.3,31.1c.1.2-.2.2-.2.3h-.3V31h.5" transform="translate(-10.8 -2.4)" fill="#fff"/>
          <path d="M24.1,31.2a6.9,6.9,0,0,1-.2,1.3.8.8,0,0,1-.7-.5c-.4-.2.1-.4.2-.5s.4-.3.7-.3" transform="translate(-10.8 -2.4)" fill="#fff"/>
          <path d="M54.6,29.5a8.7,8.7,0,0,0-1.1.9c-.1.1-.2.1-.3-.1l1.2-1,.2.2" transform="translate(-10.8 -2.4)" fill="#fff"/>
          <polyline points="41.7 28 41.5 28.5 40.9 29.9 40.9 29.9 40.7 29.8 39.4 28.8 39.4 28.6 40.1 27.2 40.4 27.3 41.7 28" fill="#fff"/>
          <path d="M54.8,30.1c.1.5-.5.4-.7.7s-.3,0-.3-.2a2.8,2.8,0,0,1,.9-.6h.1" transform="translate(-10.8 -2.4)" fill="#fff"/>
          <path d="M53.5,30.9a7.1,7.1,0,0,0-.1,1.4,1,1,0,0,1-1,.2,4.1,4.1,0,0,1,.5-1.9l.6.3" transform="translate(-10.8 -2.4)" fill="#fff"/>
          <path d="M54.5,31.5a.9.9,0,0,1-.7.6,3.6,3.6,0,0,1-.2-1.1l.9.5" transform="translate(-10.8 -2.4)" fill="#fff"/>
          <path d="M37.3,41.9l1.7.2h1c.3,0,.3-.2.1-.3l-.5-.2a1,1,0,0,0-1.1-.2l-1.2.4v.2m1.6-1h.3a.7.7,0,0,0,.5-.3c-1.2-.6-1.7-.2-1.9,0Zm-1.2.4.5-.2c-.7-.4-.8-.3-.8-.3a.5.5,0,0,0,0,.5Zm1.9,0c.2.1.5.2.6.1v-.5h-.4c-.3,0-.5.2-.6.2Zm-1.9-1.1c.4,0,.5-.2.5-.2s-.8-.3-.8-.3a.6.6,0,0,0,0,.6Zm1.9.1h.6v-.7h-.3a.9.9,0,0,0-.6.3Zm-1.4-.6.6.2.7-.2c.3-.1.1-.2.1-.2s-.4-.1-.4-.2-1.3.2-1.4.2Zm1.3-.5h.4s.3.1.2,0,.1-.2.1-.4-.2-.1-.2-.1a1,1,0,0,0-.6.3Zm-2.1-.5c0,.1-.1.4,0,.6l.8-.2a.7.7,0,0,0-.4-.3Zm.6-.1.6.3h.1l.9-.3h0a1.5,1.5,0,0,0-1.6,0Zm1.3-.5h0l.8.3a.4.4,0,0,0,.1-.3c0-.2,0-.3-.1-.3h-.2Zm-1.9-.4a1.6,1.6,0,0,0,0,.7l.7-.2h.2l-.4-.2Zm.8.1a1,1,0,0,0,.7.1h.5l.3-.2c-.3-.4-1-.3-1-.3h-.4l-.5.2Zm1.2-.6h.7V37h0c-.2-.2-.4,0-.5,0l-.4.2Zm-1.6-.4h-.4c-.1,0,0,.2,0,.4v.2H38c0-.1.3-.1.3-.2Zm.1-.2a1.8,1.8,0,0,0,1.8.1v-.2h-.3l-.7-.2-.3.2h-.5Zm2-.2h.3a2.3,2.3,0,0,0,.1-.4c-.1-.2-.2-.3-.4-.2s-.6.3-.6.3Zm-1.8-.5-.7-.2c-.1,0-.1.6,0,.7l.9-.3Zm.8,0h.3l.5-.2c-1.2-.6-1.7-.2-1.9-.1Zm-1.2-.6a.7.7,0,0,0,.5-.3l-.8-.3a.6.6,0,0,0,0,.6Zm1.9,0h.6v-.5h-.4l-.6.3Zm-1.4-.5h.6l.7-.2c.3-.1.1-.2.1-.2h-.4c-.5-.4-1.3.1-1.4.1Zm1.4-.5h.3s.4.1.4-.1,0-.2-.1-.4-.2-.1-.2-.1l-.7.3Zm-2.2-.6c0,.1-.1.5,0,.6s.6,0,.8-.2a.7.7,0,0,0-.4-.3Zm.5,0,.7.2h.1l.9-.2h0a1.7,1.7,0,0,0-1.7-.1Zm1.4-.6h0l.9.3c0-.1.1-.2.1-.3s0-.3-.1-.3h-.3Zm-1.9-.2c-.1,0-.1.3,0,.5h.8l-.4-.2Zm.8-.1.6.2h.5l.4-.2c-.7-.4-1-.3-1-.3h-.3l-.5.3Zm1.2-.6.3.2H40c.1,0,.2,0,.2-.1v-.3c0-.3-.2-.2-.3-.2l-.7.2A.1.1,0,0,1,39.4,32.2Zm-2-.3c0,.1-.1.1,0,.4v.2H38c.1-.1.2-.2.2-.3Zm.6-.1a1.7,1.7,0,0,0,1.7,0h-.3l-.7-.2h-.3c-.1.1-.4.2-.4.3Zm2.1-.3h.2v-.3H40l-.5.2C39.6,31.4,40,31.5,40.1,31.5Zm-1.9-.3h-.8s-.1.3,0,.4h.8Zm5.5-18.1c-.5.7-.7,1.7-1.7,1.7l-.7,2.1L40.7,19c0,.3-.2.5,0,.8l.8-1L43.7,16a1.5,1.5,0,0,1-.3-.7,3.4,3.4,0,0,1,1,0v.2l-1.1,1.4-1.9,2.4-1,1.4-1.7,3a2,2,0,0,0,.4.8,10.9,10.9,0,0,0,1.3-1.7L41,21l.7-1.4,1.3-2L45.2,15l.3-.3.6,1a1.9,1.9,0,0,1-2,.7l-1.6,2.1-1.2,2.1-.5,1.3v.2h.3l1.2-1.3c.2-.3.7-.4.8-.7l.3-.2,2.2-1.6c.6-.1.2-.7.3-1s.1-.4.3-.5.6.4,1,.6l-.2.2-1.3.8-1.9,1.3L42,21.2l-1.3,1.4-1.6,2.2c-.1.2-.5.5-.2.7a1,1,0,0,0,.4.5l1.6-1.5.4-1,1.1-2A6.1,6.1,0,0,1,44,19.9l1.9-1.4L47,18a1,1,0,0,1-.2.9c-.3-.1-.7-.6-1-.2l-1.5,1.1-1,.8-.9,1.2-1,1.7c0,.1-.2.3,0,.4l1.9-1.4,1.5-1,1.4-.6.7-.2c.2-.3.3-.8.7-1h.2a2.5,2.5,0,0,1-.2,1.2l-1.2.2-1.7.8-1.3.7L42,23.7,39.5,26c-.1.3-.5.4-.6.8l.4.4h.2l1.3-1.1,1.1-.8,1.3-1.8,1.1-1a6.3,6.3,0,0,1,4-1.4c.2.2,0,.6-.1.9a2.2,2.2,0,0,1-1.3-.6l-1.4.4a8.5,8.5,0,0,0-1.9,1.4l-1.2,1.6h0c.3.1.5-.2.8-.2l1.7-.6h1.5a.8.8,0,0,0,1-.5l.2-.2a4.1,4.1,0,0,1,.5.9H46.5l-1.5.2-1.7.5-.8.4-2.1,1.4c-.5.5-1.1.7-1.5,1.4l.6.7,1.2-.8.6-.4.9-1.3a6.7,6.7,0,0,1,1.9-1.4l1.4-.4h1.1l1.4.2a1,1,0,0,1-.5.6c-.4-.1-.1-.7-.6-.7A5.7,5.7,0,0,0,43,25.7L41.9,27H42a9.2,9.2,0,0,1,2.5-.8c.9-.3,1.8.7,2.6-.1a2.1,2.1,0,0,1,1.6.3,3,3,0,0,0-.2,1c.4-.2.5-1.2,1-.9s.6.1.3.4L49,28.1h-.3l-2-1.1a4.5,4.5,0,0,0-2.3-.4,5.9,5.9,0,0,0-2,.6l-1.5.9L39,29.3c-.2.1-.2.3-.1.5l.8,1c.7.3,1-.6,1.5-1l.9-1.3a3.3,3.3,0,0,1,3.3-1.8l.7.2c.4.1.7.5,1.1.6h.1c-.2.3-.5.4-.7.6a1,1,0,0,1-.5-1l-.7-.4A3.4,3.4,0,0,0,44,27a4.2,4.2,0,0,0-2.3,2.4l-1.2,1.4V41.2c.1.3,0,.7.1.9H38.2A5,5,0,0,1,37,42V30.9c-.4-.4-.9-.7-1.1-1.2l-.5-1.4a2.9,2.9,0,0,0-2.8-1.5c-.5.1-1.1,0-1.5.5a1.1,1.1,0,0,1-.2,1.1c-.2-.3-.6-.4-.7-.8a3.6,3.6,0,0,1,2.3-.9,3,3,0,0,1,2.8,1.1c.6,1.1.7,2.5,2.1,3l1.4.3a.7.7,0,0,0,.6-.2v-.2l-1.5-1.8-1.5-1.4a4.8,4.8,0,0,0-4.9-.9l-1.5.7-.4.2a1.3,1.3,0,0,1-.2-.9,1.4,1.4,0,0,1,1.4,0,6.4,6.4,0,0,1,4.1-.2H35a4.2,4.2,0,0,0-3-2H30.5c-.2.4-.2.8-.6,1.1h-.2l-.8-.9h.2l1.6-.3h1.5a4.5,4.5,0,0,1,3.3,2.5l1.1.8,1.7,1.6c.3.6.7-.1.9-.2s-.2-.4-.2-.6l-1-.9-2.1-1.8-1.7-1.2a5.9,5.9,0,0,0-1.9-.5H29.5c0-.2.2-.4.3-.6l.5.4h2a4.7,4.7,0,0,1,2,.6c.2-.2-.1-.4-.1-.5l-1.1-1-1.3-.7a4.1,4.1,0,0,0-1.6-.3,1.5,1.5,0,0,1-1.2.7,4.1,4.1,0,0,1,0-1.1l1.5.2c.3-.1.5.1.8.2l.8.3,1.2.7.9.8.9,1.2,1.4,1,1.7,1.5c.2.2.3.5.6.4s.4-.2.2-.5L37,25l-2-1.7-1.5-.9-1.7-.8c-.7-.3-1.6-.2-2.3-.5a2.6,2.6,0,0,1,.5-.9c.2,0,.2.3.3.4s.2.5.4.6l1.6.5,1.4.6,1.2.8.6.4h.1a6.8,6.8,0,0,0-1.8-2.8c0-.2-.2-.1-.3-.2l-1.1-.9-1.3-.8a1.9,1.9,0,0,1-1.8.3,3.4,3.4,0,0,1,.1-1.4l.4.2,1.6.9,2,1.3a13.6,13.6,0,0,1,1.2,1.2h0l.8,1.3.5,1.3,1.8,1.7,1,1a.3.3,0,0,0,.3-.3v-.3l-1.8-2.3-1.8-2.1-.9-.9s0-.2-.1-.2l-1.7-1.2-2.3-1.4h-.1c.3-.1.7-.4,1.1-.3s-.1.5,0,.8l2.1,1.4,1.2.9,1.6,1.7c.2,0,.2-.2.1-.2a9.2,9.2,0,0,0-.9-2.3l-1.7-2.5c-.2-.2-.4-.6-.8-.8s-1.8-.4-2.4-1a4.8,4.8,0,0,1,.9-1.1h.1l1.6,1.9,1.9,2.5.8,1.3.3.7.7,2.2L38.5,25c.1.2.3-.1.3-.2l-.2-.6-1.1-2.5c-.2-.5-.7-.9-.8-1.3l-.4-.6-2.8-3.7c-.3-.3-.7-.6-.7-1l1.1-.2c.2.1,0,.4.1.6s-.5.6-.1.9l2.4,3.2c.2.2.4.6.6.7a.6.6,0,0,0,.3.5,2.5,2.5,0,0,0-.1-1.2l-.8-2.5L35.5,15c-.2-.3-.8-.1-.8-.5s.3-.4.6-.5l.2.4,1.3,3.8.6,1.9.2,1.5.8,1.8c.1.1.2,0,.3-.1V23l-.5-1.7a3,3,0,0,0-.4-1l-1.3-3.8-1.2-3.2h1.1c.2.2.1.6.1.9l-.5.6.6,1.9,1.2,3.1h.2l.2-2.3V14.2c-.2-.3-.8-.3-.9-.6a1.4,1.4,0,0,1,1.1-.4v4.7l-.2,2c-.3.6.3,1.1.3,1.6h.1a2.2,2.2,0,0,0,.5-1.1l-.3-2.4V13.5c.4-.1.6.2.9.3s-.6.2-.8.6v5.2c.1.1,0,.3.1.3l.2-.2L40.8,16l.5-1.2c.2-.5-.5-.4-.4-.8a1.5,1.5,0,0,1,.9-.2l-.6,1.6-.4,1-.9,2.4-1.2,3.1a1.1,1.1,0,0,0,.2.8H39l1.3-2.2.5-2.4.9-2.8,1-2.8h.1l.9.6Z" transform="translate(-10.8 -2.4)" fill="#fff"/>
          <path d="M13.7,65.4l-.9.4h-.3v-.4l.4-.3c.3-.2.7-.4.7-.8s-.5-.4-.7-.4h-.1l-.4.9a10.3,10.3,0,0,0-.4,1.4c-.1.2-.1.2.1.2h.6q.3.1,0,.3a1.3,1.3,0,0,1-.8.2h-.5a.7.7,0,0,1-.6-.4c0-.1,0-.2.3-.3v-.2l.8-2.3c0-.1,0-.1-.1-.1l-.4.2h-.2a.2.2,0,0,1,0-.3l.8-.4h.1a.3.3,0,0,1,.3-.3l.4.3h.2a1.7,1.7,0,0,1,1.1.6.6.6,0,0,1,.1.4,1.3,1.3,0,0,1-.6,1" transform="translate(-10.8 -2.4)" fill="#fff"/>
          <path d="M14.8,64.4a8.3,8.3,0,0,1,1-2c0-.1.1-.1.2-.1h.1c.3.3.3.4.1.8A22.8,22.8,0,0,0,15,66c-.1.5-.1.6.1.6a3.2,3.2,0,0,0,1.4-1.2c.1-.1.2-.1.2,0a.4.4,0,0,1-.1.3c-.2.5-1.2,1.6-2,1.6s-.4-.3-.4-.6a8.7,8.7,0,0,1,.6-2.3" transform="translate(-10.8 -2.4)" fill="#fff"/>
          <path d="M17.4,65.2a2.4,2.4,0,0,0-.6,1.1v.2l.4-.2.5-.6.3-.4V65h-.2l-.4.3m1-.8h.3c.2.1.2.2.1.3a4,4,0,0,0-.3,1.5c0,.3.1.4.2.4s.7-.5,1.3-1.2.1-.1.2,0a1,1,0,0,1-.1.4c-.4.7-1.2,1.5-1.7,1.5s-.5-.3-.6-.6v-.3h-.1a2.3,2.3,0,0,1-.7.7l-.6.3a.5.5,0,0,1-.4-.5,1.7,1.7,0,0,1,.3-1,4.8,4.8,0,0,1,.9-1.1,2,2,0,0,1,.9-.5Z" transform="translate(-10.8 -2.4)" fill="#fff"/>
          <path d="M21.1,64.5H21c-.1,0-.1.1-.2.2a1.9,1.9,0,0,0-.2.7h.1a2.4,2.4,0,0,1,.9-.8l.3-.3h.2l.2-.2h.2c.2.2.2.3.1.4a.8.8,0,0,1-.2.4L22,66.1c-.1.5,0,.7.2.7s1-.8,1.5-1.4h.1c.1.1.1.2-.1.4s-1.4,1.6-1.8,1.6-.7-.5-.5-1.3a6.4,6.4,0,0,1,.2-.7h-.2A10.1,10.1,0,0,0,20.1,67h-.4a.7.7,0,0,1-.1-.5,18.1,18.1,0,0,1,.6-2c.2-.3.4-.4.5-.4a.4.4,0,0,1,.4.4" transform="translate(-10.8 -2.4)" fill="#fff"/>
          <path d="M25,66.3c.2-.2.2.1.1.2a2.5,2.5,0,0,1-1.2.7h-.3a.6.6,0,0,1-.6-.5c0-.1.1-.2.1-.4a7.6,7.6,0,0,0,.4-1.1h-.3c-.1,0-.2,0-.2-.1v-.2l.2-.2h.6l.4-1c0-.1.3-.3.4-.3h.2a.8.8,0,0,1,.1.4l-.4.8h1.3c.2,0,.1.2,0,.3l-1.4.3h-.2a5.4,5.4,0,0,0-.3,1c0,.3,0,.4.2.4l.9-.3" transform="translate(-10.8 -2.4)" fill="#fff"/>
          <path d="M27.5,64.3a.4.4,0,0,1,.1.3c0,.2-.1.2-.2.2s-1.1.2-1.1.5.1.3.2.5a1.3,1.3,0,0,1,.3.7.8.8,0,0,1-.2.5l-.6.3h-.3a.7.7,0,0,1-.6-.3v-.2l.3-.2H26c.1,0,.1,0,.1-.1s0-.2-.2-.4-.2-.3-.2-.4a.6.6,0,0,1-.1-.4,1,1,0,0,1,.5-.8,1.8,1.8,0,0,1,.9-.4h.5" transform="translate(-10.8 -2.4)" fill="#fff"/>
          <path d="M31.9,62.4c.1.1.1.2,0,.4l-.4.2c-.4,0-1,.4-1.3,1.5h.1l1.3-.3c.2,0,.2.2,0,.3a2.9,2.9,0,0,1-1.5.5v.2a6.8,6.8,0,0,0-.3,1.2,13.9,13.9,0,0,1-.8,2.3c-.3.4-.7,1.1-1.2,1.3h-.5c-.1-.1,0-.3.1-.4s.3-.4.4-.4.6-.3,1-1.6l.6-2.4c0-.1,0-.2-.1-.2s-.3-.1-.3-.2,0-.1.1-.2h.4a3.6,3.6,0,0,1,1.1-1.7,1.9,1.9,0,0,1,1.1-.5h.3" transform="translate(-10.8 -2.4)" fill="#fff"/>
          <path d="M31.6,66.7l.4-.2a3.1,3.1,0,0,0,.5-1.2c0-.2,0-.5-.2-.5l-.2.2a3.7,3.7,0,0,0-.7,1.4c0,.2.1.3.2.3m-.8-.9.5-.8c0-.1.1-.1.1-.3a.3.3,0,0,1,.1-.2H32c.1-.2.2-.2.4-.2s.3.2.3.3h.1a1,1,0,0,1,.4.9,1.5,1.5,0,0,1-.5,1.1,2.2,2.2,0,0,1-1.5.8.7.7,0,0,1-.6-.7A3.1,3.1,0,0,1,30.8,65.8Z" transform="translate(-10.8 -2.4)" fill="#fff"/>
          <path d="M36.3,64.5c-.1.2-.1.3-.2.4s-.2.2-.3.1h-.2l-.4.3a6.4,6.4,0,0,0-1,1.6l-.3.3c-.2,0-.3,0-.4-.2s-.1-.1,0-.3a12.2,12.2,0,0,0,.3-1.7,1.1,1.1,0,0,1,.2-.6l.4-.2c.2,0,.3.2.3.4v.2l-.3.9h.1a4.6,4.6,0,0,1,.7-1c.2-.2.5-.5.8-.5a.4.4,0,0,1,.4.3" transform="translate(-10.8 -2.4)" fill="#fff"/>
          <path d="M39.5,66.3c.2-.2.2.1.1.2a2.5,2.5,0,0,1-1.2.7h-.3a.6.6,0,0,1-.6-.5c0-.1.1-.2.1-.4a7.6,7.6,0,0,0,.4-1.1h-.3c-.1,0-.2,0-.2-.1v-.2c.1-.1.1-.2.2-.2h.6l.4-1,.4-.3h.2c.1.2.2.3.1.4a5.6,5.6,0,0,1-.4.8h1.3c.2,0,.1.2,0,.3l-1.4.3h-.2c-.1.3-.2.8-.3,1s0,.4.2.4l.9-.3" transform="translate(-10.8 -2.4)" fill="#fff"/>
          <path d="M42.8,64.6l-.6,1.5c0,.4,0,.5.1.5s1.2-.9,1.5-1.3H44c.1.1,0,.2-.1.4s-1.4,1.6-2,1.6-.5-.2-.3-1.1a6.4,6.4,0,0,1,.2-.9h-.1a5.4,5.4,0,0,0-1.1,1.2c-.1.2-.1.4-.2.4a.4.4,0,0,1-.4.4c-.2,0-.3-.3-.2-.7a15.5,15.5,0,0,1,.6-2.2,9.6,9.6,0,0,1,.9-2q.2-.3.3-.3l.3.2c.1.2.2.3,0,.4a11.6,11.6,0,0,0-1.1,2.7h0l.9-.8a1.2,1.2,0,0,1,.9-.4c.2,0,.3.1.2.3" transform="translate(-10.8 -2.4)" fill="#fff"/>
          <path d="M45.2,65a.2.2,0,0,0-.2-.2c-.2,0-.5.4-.6.7h.1a.9.9,0,0,0,.7-.6M44,64.9c.2-.2.6-.7.9-.7s.3.1.3.2h.2a.5.5,0,0,1,.4.5,1.1,1.1,0,0,1-.3.8,1.5,1.5,0,0,1-.9.4h-.4v.3a.3.3,0,0,0,.3.3,3.7,3.7,0,0,0,2.2-1.1h.2a.4.4,0,0,1-.2.3,3.3,3.3,0,0,1-2.5,1.5.8.8,0,0,1-.8-.9A2.9,2.9,0,0,1,44,64.9Z" transform="translate(-10.8 -2.4)" fill="#fff"/>
          <path d="M50.8,65.4l-.9.4h-.2l-.2-.2v-.2l.4-.3c.3-.2.8-.4.8-.8s-.5-.4-.7-.4h-.2c-.1.2-.1.4-.3.9a12.1,12.1,0,0,0-.5,1.4c0,.2,0,.2.1.2h.7c.2.1.1.2,0,.3l-.8.2h-.6A.7.7,0,0,1,48,67c-.1-.1,0-.2.2-.3l.2-.2c.1-.5.5-1.7.7-2.3s.1-.1,0-.1l-.4.2h-.3a.4.4,0,0,1,.1-.3l.7-.4h.1c.1-.1.2-.3.4-.3l.4.3h.1a2.3,2.3,0,0,1,1.2.6.6.6,0,0,1,.1.4,1.4,1.4,0,0,1-.7,1" transform="translate(-10.8 -2.4)" fill="#fff"/>
          <path d="M52,64.4l.9-2h.4c.3.3.2.4,0,.8A19.3,19.3,0,0,0,52.2,66c-.2.5-.1.6,0,.6s.9-.5,1.5-1.2.1-.1.1,0a.2.2,0,0,1,0,.3c-.3.5-1.3,1.6-2,1.6a.6.6,0,0,1-.5-.6,7.2,7.2,0,0,1,.7-2.3" transform="translate(-10.8 -2.4)" fill="#fff"/>
          <path d="M54.5,65.2a4.1,4.1,0,0,0-.6,1.1c0,.1,0,.2.1.2l.3-.2c.2-.1.3-.3.5-.6s.3-.3.3-.4V65H55l-.5.3m1-.8h.3c.3.1.2.2.2.3a4.2,4.2,0,0,0-.4,1.5c0,.3.1.4.2.4a3.1,3.1,0,0,0,1.3-1.2c.1-.1.2-.1.2,0s0,.2,0,.4-1.2,1.5-1.7,1.5a.6.6,0,0,1-.6-.6v-.3h-.1a1.9,1.9,0,0,1-.8.7l-.5.3c-.1,0-.5-.2-.5-.5a3.3,3.3,0,0,1,.3-1,5.2,5.2,0,0,1,1-1.1,1.6,1.6,0,0,1,.9-.5A.2.2,0,0,1,55.5,64.4Z" transform="translate(-10.8 -2.4)" fill="#fff"/>
          <path d="M58.3,64.5h-.1l-.2.2c-.2.2-.2.5-.3.7h.1l.9-.8.4-.3h.1l.2-.2h.3a.8.8,0,0,1,.1.4l-.2.4a4.9,4.9,0,0,0-.4,1.1c-.1.5,0,.7.1.7s1-.8,1.5-1.4H61a.8.8,0,0,1-.1.4c-.7,1.2-1.4,1.6-1.8,1.6s-.7-.5-.6-1.3a2.5,2.5,0,0,0,.2-.7h.1c-.1-.1-.1,0-.2.1A10.1,10.1,0,0,0,57.3,67h-.5c0-.1-.1-.3,0-.5a18.1,18.1,0,0,1,.6-2,.5.5,0,0,1,.5-.4.4.4,0,0,1,.4.4" transform="translate(-10.8 -2.4)" fill="#fff"/>
          <path d="M62.1,65a.2.2,0,0,0-.2-.2c-.2,0-.4.4-.5.7s-.1.1.1.1a.9.9,0,0,0,.6-.6m-1.2-.1c.2-.2.6-.7,1-.7a.2.2,0,0,1,.2.2h.2a.5.5,0,0,1,.5.5,1.2,1.2,0,0,1-.4.8,1.2,1.2,0,0,1-.9.4h-.3a.4.4,0,0,0-.1.3c0,.2.1.3.4.3a3.5,3.5,0,0,0,2.1-1.1h.2a.5.5,0,0,1-.1.3,3.5,3.5,0,0,1-2.6,1.5.8.8,0,0,1-.8-.9A2.9,2.9,0,0,1,60.9,64.9Z" transform="translate(-10.8 -2.4)" fill="#fff"/>
          <path d="M65.2,66.3c.2-.2.2.1.1.2a2.5,2.5,0,0,1-1.2.7h-.4a.5.5,0,0,1-.5-.5.8.8,0,0,1,.1-.4,7.6,7.6,0,0,0,.4-1.1h-.6v-.2a.2.2,0,0,1,.2-.2H64c0-.1.3-.8.3-1l.5-.3H65c.1.2.1.3,0,.4a2.7,2.7,0,0,0-.3.8H66c.2,0,.1.2,0,.3l-1.4.3c-.1,0-.2,0-.2.1a5.4,5.4,0,0,0-.3,1c-.1.3,0,.4.2.4l.9-.3" transform="translate(-10.8 -2.4)" fill="#fff"/>
        </g>
      </g>
    </g>
  </g>
</svg>
