<?xml version="1.0" encoding="UTF-8"?>
<svg xmlns="http://www.w3.org/2000/svg" id="Layer_1" x="0px" y="0px" viewBox="0 0 160 75" style="enable-background:new 0 0 160 75;" xml:space="preserve" preserveAspectRatio="xMinYMin meet" fill="white" class="cobd-logo" role="img">
	 <title>COBD Logo</title>
<g>
	<g>
		<path d="M28.3,74.7c0-0.1,0.1-9.9,0.1-15.8c-0.2-7.5-7.2-12-13.7-12c-5.1,0-14.7,0-14.7-8.9V19.4l2-0.2C2,19.5,3.7,28,13.8,28    c6.9,0,11.8,1.9,14.5,5.3c0-4.7,0-10.4,0-13c0-7.2,6.2-11.6,16.5-11.6c10,0,11.8-8.4,11.9-8.8l2,0.2v18.7c0,8.9-9.6,8.9-14.6,8.9    c-6.5,0-13.4,4.3-13.7,11.7c0,1.9,0,5.5,0,9.2c2.6-3.5,7.6-5.4,14.4-5.4c10,0,11.8-8.4,11.9-8.8l2,0.2v18.7    c0,8.9-9.6,8.9-14.7,8.9c-6.7,0-13.5,4.6-13.5,12.4l0,0C30.1,75.3,28.3,74.7,28.3,74.7z M30.2,59.7c0,2.1,0,4.7,0,6.9v0.9    c2.8-4.6,8.3-7.1,13.5-7.1c7.8,0,12.7-1.2,12.7-7v-14c-1.9,2.8-5.4,6-11.8,6c-9.1,0-14.2,3.5-14.2,9.6c0,0.9,0,2.5,0,4.1    c0,0.1,0,0.2,0,0.4C30.2,59.4,30.2,59.4,30.2,59.7C30.2,59.6,30.2,59.6,30.2,59.7L30.2,59.7C30.2,59.6,30.2,59.7,30.2,59.7z     M1.9,23.9v14.1c0,5.8,4.9,7,12.7,7c5.3,0,10.7,2.6,13.7,7.1c0-2.9,0-6.8,0-12l0,0l0,0c0-0.1,0-0.5,0-1.1c-0.2-5.7-5.5-9-14.5-9    C7.4,30,3.9,26.9,1.9,23.9z M56.5,4.8c-1.9,2.8-5.4,6-11.8,6c-9.2,0-14.5,3.5-14.5,9.5v12.7c2.8-4.6,8.3-7.1,13.7-7.1    c7.8,0,12.6-1.2,12.6-6.9V4.8z"></path>
	</g>
</g>
<g>
	<g>
		<path d="M78.5,36.9c-0.4,0.1-0.8,0.2-1.4,0.2c-2,0-3.4-1.6-3.4-5c0-4,2-5.3,3.5-5.3c0.6,0,1.1,0.1,1.3,0.2L78.3,28    c-0.2-0.1-0.5-0.2-1.1-0.2c-1.1,0-2.3,1.1-2.3,4.1c0,3,1.2,4.1,2.3,4.1c0.5,0,0.8-0.1,1.1-0.2L78.5,36.9z"></path>
		<path d="M83.7,33.4c0,2.8-1.3,3.7-2.5,3.7C80,37.1,79,36,79,33.4c0-2.7,1.2-3.7,2.5-3.7C82.8,29.8,83.7,30.9,83.7,33.4z     M80.2,33.4c0,1.2,0.2,2.8,1.3,2.8c0.9,0,1.2-1.8,1.2-2.8s-0.2-2.8-1.2-2.8C80.4,30.6,80.2,32.3,80.2,33.4z"></path>
		<path d="M85,31.8c0-0.8,0-1.3-0.1-1.9H86l0.1,0.8l0,0c0.4-0.6,0.9-0.9,1.6-0.9c1.1,0,1.8,0.7,1.8,2.5v4.9h-1.2v-4.7    c0-0.8-0.1-1.8-1.1-1.8c-0.5,0-0.9,0.4-1.1,1.2c0,0.2,0,0.4,0,0.6V37H85V31.8z"></path>
		<path d="M91.6,29.9l0.9,4.1c0.1,0.5,0.2,1.2,0.4,1.8l0,0c0.1-0.6,0.2-1.2,0.4-1.8l0.9-4.1h1.2l-1.9,7.2h-1.1l-1.9-7.2    C90.5,29.9,91.6,29.9,91.6,29.9z"></path>
		<path d="M96.8,33.5c0,2.2,0.9,2.7,1.8,2.7c0.5,0,0.9-0.1,1.2-0.2l0.2,0.8c-0.4,0.2-1.1,0.4-1.6,0.4c-1.8,0-2.6-1.4-2.6-3.6    c0-2.3,0.9-3.9,2.5-3.9s2.1,1.5,2.1,3.2c0,0.2,0,0.5,0,0.6h-3.5V33.5z M99,32.7c0-1.4-0.5-2.1-1.1-2.1c-0.7,0-1.2,1.1-1.2,2.1H99z    "></path>
		<path d="M101.4,31.8c0-0.8,0-1.3-0.1-1.9h1.1l0.1,0.8l0,0c0.4-0.6,0.9-0.9,1.6-0.9c1.1,0,1.8,0.7,1.8,2.5v4.9h-1.2v-4.7    c0-0.8-0.1-1.8-1.1-1.8c-0.5,0-0.9,0.4-1.1,1.2c0,0.2,0,0.4,0,0.6V37h-1.2V31.8z"></path>
		<path d="M108.7,27.9v1.9h1.4v0.9h-1.4V35c0,0.9,0.4,1.2,0.8,1.2c0.2,0,0.4,0,0.5,0v0.9c-0.2,0.1-0.5,0.1-0.8,0.1    c-0.5,0-0.8-0.1-1.2-0.5c-0.2-0.4-0.5-0.8-0.5-1.9v-4.2h-0.9v-0.9h0.9v-1.6L108.7,27.9z"></path>
		<path d="M112.4,28c0,0.5-0.2,0.7-0.7,0.7c-0.4,0-0.7-0.4-0.7-0.7c0-0.5,0.4-0.7,0.7-0.7C112.1,27.2,112.4,27.6,112.4,28z     M111.2,37v-7.2h1.2V37H111.2z"></path>
		<path d="M118.3,33.4c0,2.8-1.3,3.7-2.5,3.7c-1.3,0-2.3-1.2-2.3-3.7c0-2.7,1.2-3.7,2.5-3.7C117.3,29.8,118.3,30.9,118.3,33.4z     M114.7,33.4c0,1.2,0.2,2.8,1.3,2.8c0.9,0,1.2-1.8,1.2-2.8s-0.2-2.8-1.2-2.8C114.9,30.6,114.7,32.3,114.7,33.4z"></path>
		<path d="M119.6,31.8c0-0.8,0-1.3-0.1-1.9h1.1l0.1,0.8l0,0c0.4-0.6,0.9-0.9,1.6-0.9c1.1,0,1.8,0.7,1.8,2.5v4.9h-1.2v-4.7    c0-0.8-0.1-1.8-1.1-1.8c-0.5,0-0.9,0.4-1.1,1.2c0,0.2,0,0.4,0,0.6V37h-1.2V31.8z"></path>
		<path d="M132.4,33.4c0,2.8-1.3,3.7-2.5,3.7c-1.3,0-2.3-1.2-2.3-3.7c0-2.7,1.2-3.7,2.5-3.7C131.4,29.8,132.4,30.9,132.4,33.4z     M128.8,33.4c0,1.2,0.2,2.8,1.3,2.8c0.9,0,1.2-1.8,1.2-2.8s-0.2-2.8-1.2-2.8C129.1,30.6,128.8,32.3,128.8,33.4z"></path>
		<path d="M133.7,31.8c0-0.8,0-1.3-0.1-1.9h1.1l0.1,0.8l0,0c0.4-0.6,0.9-0.9,1.6-0.9c1.1,0,1.8,0.7,1.8,2.5v4.9H137v-4.7    c0-0.8-0.1-1.8-1.1-1.8c-0.5,0-0.9,0.4-1.1,1.2c0,0.2,0,0.4,0,0.6V37h-1.2V31.8z"></path>
	</g>
	<g>
		<path d="M74.2,45.1c0.5-0.1,1.1-0.2,1.6-0.2c0.9,0,1.6,0.2,2.2,0.7c0.5,0.4,0.7,1.1,0.7,1.8c0,1.1-0.6,1.9-1.5,2.2l0,0    c1.2,0.4,1.9,1.3,1.9,2.6c0,0.8-0.2,1.5-0.7,2c-0.6,0.6-1.5,0.9-2.7,0.9c-0.7,0-1.2,0-1.5-0.1V45.1z M75.3,49.2h0.5    c0.9,0,1.8-0.7,1.8-1.8c0-0.9-0.5-1.6-1.6-1.6c-0.2,0-0.5,0-0.6,0.1V49.2z M75.3,54.1c0.1,0,0.4,0.1,0.6,0.1c1.2,0,2-0.7,2-2    c0-1.4-0.9-2.1-2-2.1h-0.5L75.3,54.1L75.3,54.1z"></path>
		<path d="M81.5,45.9c0,0.5-0.2,0.7-0.7,0.7c-0.4,0-0.7-0.4-0.7-0.7c0-0.5,0.4-0.7,0.7-0.7C81.3,45.1,81.5,45.4,81.5,45.9z M80.4,55    v-7.2h1.2V55H80.4z"></path>
		<path d="M87.5,51.4c0,2.8-1.3,3.7-2.5,3.7c-1.3,0-2.3-1.2-2.3-3.7c0-2.7,1.2-3.7,2.5-3.7S87.5,48.8,87.5,51.4z M83.9,51.4    c0,1.2,0.2,2.8,1.3,2.8c0.9,0,1.2-1.8,1.2-2.8c0-1.1-0.2-2.8-1.2-2.8C84.1,48.6,83.9,50.2,83.9,51.4z"></path>
		<path d="M88.8,44.6h1.2v10.3h-1.2V44.6z"></path>
		<path d="M96,51.4c0,2.8-1.3,3.7-2.5,3.7c-1.3,0-2.3-1.2-2.3-3.7c0-2.7,1.2-3.7,2.5-3.7S96,48.8,96,51.4z M92.5,51.4    c0,1.2,0.2,2.8,1.3,2.8c0.9,0,1.2-1.8,1.2-2.8c0-1.1-0.2-2.8-1.2-2.8C92.6,48.6,92.5,50.2,92.5,51.4z"></path>
		<path d="M101.7,47.8c0,0.5-0.1,1.2-0.1,2.2v4.1c0,1.9-0.2,2.6-0.7,3.2c-0.5,0.5-1.2,0.8-1.9,0.8c-0.6,0-1.2-0.1-1.6-0.4l0.2-0.9    c0.2,0.1,0.8,0.4,1.3,0.4c0.9,0,1.5-0.6,1.5-2.2v-0.7l0,0c-0.2,0.6-0.8,0.9-1.4,0.9c-1.3,0-2.1-1.4-2.1-3.6c0-2.7,1.2-3.7,2.2-3.7    c0.8,0,1.2,0.5,1.3,0.9l0,0l0.1-0.8h1.2V47.8z M100.6,50.2c0-0.2,0-0.4-0.1-0.5c-0.1-0.5-0.4-1.1-1.1-1.1c-0.8,0-1.3,1.2-1.3,2.7    c0,1.9,0.6,2.7,1.3,2.7c0.4,0,0.8-0.1,1.1-1.1c0.1-0.2,0.1-0.5,0.1-0.7V50.2z"></path>
		<path d="M104.5,45.9c0,0.5-0.2,0.7-0.7,0.7c-0.4,0-0.7-0.4-0.7-0.7c0-0.5,0.4-0.7,0.7-0.7C104.3,45.1,104.5,45.4,104.5,45.9z     M103.2,55v-7.2h1.2V55H103.2z"></path>
		<path d="M109.6,54.8c-0.2,0.1-0.7,0.2-1.2,0.2c-1.6,0-2.7-1.3-2.7-3.6c0-2.1,1.1-3.7,2.8-3.7c0.4,0,0.8,0.1,1.1,0.2l-0.2,0.9    c-0.1-0.1-0.5-0.2-0.8-0.2c-1.2,0-1.6,1.4-1.6,2.8c0,1.6,0.6,2.7,1.8,2.7c0.4,0,0.6-0.1,0.8-0.2L109.6,54.8z"></path>
		<path d="M113.4,55l-0.1-0.8l0,0c-0.4,0.6-0.8,0.9-1.4,0.9c-0.9,0-1.8-0.8-1.8-2.1c0-1.8,1.4-2.6,3-2.6v-0.2c0-0.9-0.2-1.6-1.2-1.6    c-0.5,0-0.8,0.1-1.2,0.4l-0.2-0.8c0.4-0.2,0.9-0.5,1.6-0.5c1.4,0,2.1,0.9,2.1,2.6v3.2c0,0.6,0,1.2,0.1,1.6H113.4z M113.3,51.3    c-0.6,0-2,0.1-2,1.6c0,0.9,0.5,1.3,0.9,1.3c0.5,0,0.9-0.4,1.1-1.1c0-0.1,0-0.2,0-0.4C113.3,52.8,113.3,51.3,113.3,51.3z"></path>
		<path d="M116,44.6h1.2v10.3H116V44.6z"></path>
		<path d="M121.2,45.1c0.5-0.1,0.9-0.2,1.5-0.2c1.1,0,1.8,0.2,2.3,0.8c0.8,0.7,1.4,2,1.4,4.1c0,2.3-0.6,3.5-1.2,4.2    c-0.7,0.7-1.6,1.1-2.8,1.1c-0.5,0-0.9,0-1.3-0.1V45.1z M122.4,54.1c0.1,0,0.4,0,0.5,0c1.3,0,2.5-0.9,2.5-4.3c0-2.6-0.8-4-2.3-4    c-0.2,0-0.4,0-0.6,0.1V54.1z"></path>
		<path d="M129.2,45.9c0,0.5-0.2,0.7-0.7,0.7c-0.4,0-0.7-0.4-0.7-0.7c0-0.5,0.4-0.7,0.7-0.7C128.8,45.1,129.2,45.4,129.2,45.9z     M127.9,55v-7.2h1.2V55H127.9z"></path>
		<path d="M131.3,47.8l0.9,4.1c0.1,0.5,0.2,1.2,0.4,1.8l0,0c0.1-0.6,0.2-1.2,0.4-1.8l0.9-4.1h1.2l-1.9,7.2h-1.1l-1.9-7.2H131.3z"></path>
		<path d="M136.4,51.5c0,2.2,0.9,2.7,1.8,2.7c0.5,0,0.9-0.1,1.2-0.2l0.2,0.8c-0.4,0.2-1.1,0.4-1.6,0.4c-1.8,0-2.6-1.4-2.6-3.6    c0-2.3,0.9-3.9,2.5-3.9c1.5,0,2.1,1.5,2.1,3.2c0,0.2,0,0.5,0,0.6L136.4,51.5L136.4,51.5z M138.7,50.6c0-1.4-0.5-2.1-1.1-2.1    c-0.7,0-1.2,1.1-1.2,2.1H138.7z"></path>
		<path d="M141.1,49.6c0-0.6,0-1.3-0.1-1.9h1.1l0.1,1.2l0,0c0.2-0.7,0.8-1.3,1.5-1.3c0.1,0,0.1,0,0.2,0v1.2c-0.1,0-0.1,0-0.2,0    c-0.7,0-1.3,0.7-1.4,1.5c0,0.2,0,0.5,0,0.7v4h-1.2C141.1,55,141.1,49.6,141.1,49.6z"></path>
		<path d="M144.6,53.7c0.2,0.1,0.7,0.4,1.2,0.4c0.7,0,1.1-0.4,1.1-1.1c0-0.6-0.2-0.9-0.9-1.4c-0.9-0.6-1.4-1.2-1.4-2.1    c0-1.2,0.8-2,2-2c0.6,0,1.1,0.2,1.3,0.4l-0.4,0.8c-0.2-0.2-0.6-0.4-0.9-0.4c-0.6,0-0.9,0.5-0.9,0.9c0,0.5,0.2,0.8,0.9,1.3    c0.8,0.6,1.5,1.2,1.5,2.2c0,1.4-0.9,2.1-2.2,2.1c-0.6,0-1.2-0.1-1.4-0.5L144.6,53.7z"></path>
		<path d="M150.3,45.9c0,0.5-0.2,0.7-0.7,0.7c-0.4,0-0.7-0.4-0.7-0.7c0-0.5,0.4-0.7,0.7-0.7C150.1,45.1,150.3,45.4,150.3,45.9z     M149,55v-7.2h1.2V55H149z"></path>
		<path d="M153.2,45.8v1.9h1.4v0.9h-1.4v4.3c0,0.9,0.4,1.2,0.8,1.2c0.2,0,0.4,0,0.5,0V55c-0.2,0.1-0.5,0.1-0.8,0.1    c-0.5,0-0.8-0.1-1.2-0.5c-0.2-0.4-0.5-0.8-0.5-1.9v-4.2h-0.9v-0.9h0.9V46L153.2,45.8z"></path>
		<path d="M156.4,47.8l0.9,4.2c0.1,0.6,0.2,1.1,0.4,1.5l0,0c0.1-0.4,0.2-0.9,0.4-1.5l0.8-4.2h1.2l-1.2,4.7c-0.5,1.9-0.9,3.6-1.8,4.7    c-0.5,0.6-1.1,0.9-1.3,1.1l-0.5-0.9c0.4-0.2,0.7-0.5,1.1-0.9c0.4-0.4,0.6-0.8,0.7-1.2c0.1-0.2,0.1-0.2,0.1-0.4c0-0.1,0-0.2,0-0.2    l-1.9-6.7h1.1V47.8z"></path>
	</g>
</g>
</svg>
