<svg version="1.1" id="Layer_1" xmlns="http://www.w3.org/2000/svg" xmlns:xlink="http://www.w3.org/1999/xlink" x="0px" y="0px"
	 viewBox="0 0 153 57.7" style="enable-background:new 0 0 153 57.7;" xml:space="preserve" class="gspc_mono_rev" role="img" fill="white">
	 <title>GSPC Logo</title>
<g>
	<path d="M31.8,28.7v4.1c-1.7,1.1-3.2,1.8-4.6,2.2c-1.3,0.4-2.7,0.7-4.2,0.7c-3.1,0-5.5-1-7.2-3
		c-1.7-2-2.6-5.4-2.6-10.1c0-4.5,0.9-7.7,2.6-9.8c1.7-2.1,4-3.1,6.9-3.1c1.9,0,3.5,0.4,4.8,1.3c1.2,0.9,2.1,2.1,2.7,3.8l12.7-2.3
		c-0.8-2.8-1.9-5.2-3.5-7c-1.5-1.8-3.5-3.2-5.8-4.1C31.1,0.4,27.6,0,22.9,0C18,0,14.2,0.7,11.3,2.1c-3.7,1.8-6.5,4.5-8.4,8
		C1,13.7,0,17.9,0,22.6c0,4.5,0.9,8.6,2.6,12.1c1.7,3.5,4.2,6.1,7.4,7.9c3.2,1.8,7.3,2.7,12.3,2.7c4.1,0,7.6-0.5,10.6-1.5
		c3-1,6.4-2.8,10.3-5.6V19.6H23v9.1H31.8z"/>
	<path d="M40.7,30l12.5-0.8c0.3,2.1,0.8,3.7,1.7,4.8c1.4,1.8,3.3,2.7,5.8,2.7c1.9,0,3.3-0.5,4.3-1.4
		c1-0.9,1.5-2,1.5-3.1c0-1.1-0.5-2.1-1.5-3c-1-0.9-3.2-1.7-6.7-2.5c-5.8-1.3-9.9-3.1-12.3-5.3c-2.5-2.2-3.7-5-3.7-8.4
		c0-2.2,0.6-4.4,1.9-6.4c1.3-2,3.2-3.6,5.7-4.7c2.5-1.1,6-1.7,10.5-1.7c5.4,0,9.6,1,12.4,3.1c2.9,2.1,4.5,5.4,5.1,9.9l-12.4,0.7
		c-0.3-2-1-3.4-2.1-4.3c-1.1-0.9-2.5-1.3-4.4-1.3c-1.5,0-2.7,0.3-3.5,1c-0.8,0.7-1.2,1.5-1.2,2.4c0,0.7,0.3,1.3,1,1.9
		c0.6,0.6,2.1,1.1,4.4,1.6c5.7,1.3,9.9,2.6,12.3,3.9c2.5,1.3,4.3,2.9,5.4,4.9c1.1,1.9,1.7,4.1,1.7,6.5c0,2.8-0.8,5.4-2.3,7.8
		c-1.5,2.4-3.6,4.2-6.3,5.4c-2.7,1.2-6.1,1.8-10.2,1.8c-7.2,0-12.2-1.4-15-4.3C42.6,38.1,41,34.4,40.7,30"/>
	<path d="M79,0.7h21.8c4.8,0,8.3,1.2,10.7,3.5c2.4,2.3,3.6,5.6,3.6,9.9c0,4.4-1.3,7.9-3.9,10.4
		c-2.6,2.5-6.5,3.7-11.8,3.7h-7.2v16.2H79V0.7z M92.2,19.4h3.2c2.5,0,4.3-0.5,5.3-1.4c1-0.9,1.5-2.1,1.5-3.5c0-1.4-0.4-2.5-1.3-3.5
		c-0.9-1-2.6-1.4-5-1.4h-3.7V19.4z"/>
	<path d="M141.5,26.6l11.5,3.6c-0.8,3.3-2,6.1-3.7,8.3c-1.7,2.2-3.7,3.9-6.2,5c-2.5,1.1-5.6,1.7-9.4,1.7
		c-4.6,0-8.4-0.7-11.3-2.1c-2.9-1.4-5.5-3.8-7.6-7.3c-2.1-3.5-3.2-7.9-3.2-13.4c0-7.2,1.9-12.8,5.6-16.7c3.7-3.9,9-5.8,15.9-5.8
		c5.4,0,9.6,1.1,12.6,3.3c3.1,2.2,5.3,5.7,6.8,10.3L141,16.3c-0.4-1.3-0.8-2.3-1.3-2.9c-0.7-1-1.6-1.8-2.7-2.4
		c-1.1-0.6-2.3-0.8-3.6-0.8c-3,0-5.3,1.2-6.8,3.7c-1.2,1.8-1.8,4.7-1.8,8.6c0,4.9,0.7,8.2,2.1,10c1.4,1.8,3.4,2.7,6,2.7
		c2.5,0,4.4-0.7,5.7-2.2C140,31.5,140.9,29.4,141.5,26.6"/>
	<path d="M5.2,57.2v-2.5H3.1l0.1,1h0.6v0.8c-0.1,0.1-0.3,0.1-0.5,0.1c-0.6,0-0.9-0.5-0.9-1.5c0-1.1,0.3-1.6,1-1.6
		c0.4,0,0.8,0.1,1,0.4L5.2,53c-0.5-0.4-1.1-0.6-1.8-0.6c-0.5,0-0.8,0.1-1.2,0.3C1.5,53.1,1,54,1,55.1c0,0.7,0.1,1.2,0.5,1.7
		c0.4,0.6,1,0.9,1.9,0.9C4,57.7,4.6,57.5,5.2,57.2z"/>
	<polygon points="9.2,56.5 7.5,56.5 7.5,52.5 6.1,52.5 6.1,57.6 8.9,57.6 	"/>
	<path d="M11.6,56.6c-0.5,0-0.9-0.3-0.9-1.6c0-1,0.2-1.6,0.8-1.6c0.6,0,0.8,0.3,0.8,1.6C12.4,56.3,12.2,56.6,11.6,56.6z
		 M11.6,57.7c1.8,0,2.3-1.4,2.3-2.8c0-1.1-0.5-2.4-2.2-2.4c-1.3,0-2.3,1-2.3,2.8C9.3,56.7,10.1,57.7,11.6,57.7z"/>
	<path d="M16.9,56c0,0.3-0.1,0.5-0.5,0.5H16v-1h0.5C16.8,55.5,16.9,55.7,16.9,56z M16.5,53.6c0.3,0,0.4,0.1,0.4,0.4
		c0,0.3-0.1,0.5-0.4,0.5H16v-0.9H16.5z M18.4,56c0-0.6-0.4-1-0.9-1.1c0.6-0.2,0.8-0.7,0.8-1.1c0-0.9-0.6-1.3-1.3-1.3h-2.3v5.1h2.1
		C17.9,57.6,18.4,56.9,18.4,56z"/>
	<path d="M21.1,55.6h-0.7l0.2-0.8c0.1-0.3,0.1-0.6,0.1-0.8c0,0.2,0,0.5,0.1,0.7L21.1,55.6z M23.1,57.6l-1.5-5.1h-1.4
		l-1.6,5.1h1.4l0.3-1h1.2l0.3,1H23.1z"/>
	<polygon points="26.6,56.5 24.9,56.5 24.9,52.5 23.5,52.5 23.5,57.6 26.3,57.6 	"/>
	<path d="M32.4,55.8c0-1-0.8-1.3-1.3-1.4l-0.5-0.1c-0.4-0.1-0.5-0.3-0.5-0.4c0-0.2,0.2-0.4,0.5-0.4
		c0.4,0,0.8,0.1,1.1,0.4l0.6-0.9c-0.5-0.3-1.1-0.5-1.8-0.5c-1.1,0-2,0.7-2,1.7c0,0.9,0.5,1.3,1.2,1.5l0.6,0.2
		c0.4,0.1,0.5,0.2,0.5,0.4c0,0.3-0.2,0.5-0.7,0.5c-0.5,0-1.1-0.2-1.4-0.4l-0.5,1c0.5,0.3,1.1,0.5,1.9,0.5
		C31.5,57.7,32.4,57,32.4,55.8z"/>
	<polygon points="36.5,52.5 32.6,52.5 32.6,53.6 33.8,53.6 33.8,57.6 35.2,57.6 35.2,53.6 36.3,53.6 	"/>
	<path d="M38.7,53.6c0.4,0,0.6,0.1,0.6,0.5c0,0.3-0.2,0.6-0.6,0.6h-0.4v-1H38.7z M41,57.6c-0.2-0.4-0.6-1.3-0.8-1.7
		c-0.1-0.3-0.3-0.5-0.5-0.5c0.6-0.1,1.1-0.5,1.1-1.4c0-0.8-0.5-1.5-2-1.5H37v5.1h1.3v-2c0.3,0,0.4,0.1,0.6,0.6l0.5,1.4H41z"/>
	<path d="M43.7,55.6H43l0.2-0.8c0.1-0.3,0.1-0.6,0.1-0.8c0,0.2,0,0.5,0.1,0.7L43.7,55.6z M45.6,57.6l-1.5-5.1h-1.4
		l-1.6,5.1h1.4l0.3-1h1.2l0.3,1H45.6z"/>
	<polygon points="49.1,52.5 45.2,52.5 45.2,53.6 46.4,53.6 46.4,57.6 47.7,57.6 47.7,53.6 48.9,53.6 	"/>
	<polygon points="52.7,57.6 52.7,56.5 50.9,56.5 50.9,55.4 52.2,55.4 52.2,54.4 50.9,54.4 50.9,53.6 52.5,53.6 
		52.6,52.5 49.6,52.5 49.6,57.6 	"/>
	<path d="M57.2,57.2v-2.5h-2.1l0.1,1h0.6v0.8c-0.1,0.1-0.3,0.1-0.5,0.1c-0.6,0-0.9-0.5-0.9-1.5c0-1.1,0.3-1.6,1-1.6
		c0.4,0,0.8,0.1,1,0.4l0.7-0.8c-0.5-0.4-1.1-0.6-1.8-0.6c-0.5,0-0.8,0.1-1.2,0.3C53.4,53.1,53,54,53,55.1c0,0.7,0.1,1.2,0.5,1.7
		c0.4,0.6,1,0.9,1.9,0.9C56,57.7,56.6,57.5,57.2,57.2z"/>
	<path d="M61.8,52.5h-1.6l-0.4,1.1c-0.1,0.2-0.2,0.4-0.3,0.7c-0.1-0.3-0.1-0.4-0.3-0.7l-0.4-1.1h-1.6l1.6,3v2.1h1.3
		v-2.2L61.8,52.5z"/>
	<polygon points="66.7,52.5 63.9,52.5 63.9,57.6 65.2,57.6 65.2,55.4 66.3,55.4 66.3,54.4 65.2,54.4 65.2,53.6 
		66.6,53.6 	"/>
	<path d="M69.1,56.6c-0.5,0-0.9-0.3-0.9-1.6c0-1,0.2-1.6,0.8-1.6c0.6,0,0.8,0.3,0.8,1.6C69.9,56.3,69.7,56.6,69.1,56.6z
		 M69.1,57.7c1.8,0,2.3-1.4,2.3-2.8c0-1.1-0.5-2.4-2.2-2.4c-1.3,0-2.3,1-2.3,2.8C66.8,56.7,67.6,57.7,69.1,57.7z"/>
	<path d="M73.9,53.6c0.4,0,0.6,0.1,0.6,0.5c0,0.3-0.2,0.6-0.6,0.6h-0.4v-1H73.9z M76.1,57.6c-0.2-0.4-0.6-1.3-0.8-1.7
		c-0.1-0.3-0.3-0.5-0.5-0.5c0.6-0.1,1.1-0.5,1.1-1.4c0-0.8-0.5-1.5-2-1.5h-1.8v5.1h1.3v-2c0.3,0,0.4,0.1,0.6,0.6l0.5,1.4H76.1z"/>
	<path d="M80.2,53.6c0.3,0,0.5,0.1,0.5,0.5c0,0.6-0.2,0.7-0.6,0.7h-0.4v-1.2H80.2z M82.2,54.1c0-1.2-0.8-1.6-2.1-1.6
		h-1.7v5.1h1.3v-1.8h0.4C81.8,55.8,82.2,54.8,82.2,54.1z"/>
	<polygon points="85.8,56.5 84.1,56.5 84.1,52.5 82.8,52.5 82.8,57.6 85.6,57.6 	"/>
	<path d="M88.4,55.6h-0.7l0.2-0.8c0.1-0.3,0.1-0.6,0.1-0.8c0,0.2,0,0.5,0.1,0.7L88.4,55.6z M90.4,57.6l-1.5-5.1h-1.4
		l-1.6,5.1h1.4l0.3-1h1.2l0.3,1H90.4z"/>
	<path d="M94.7,57.6v-5.1h-1.2v1.6c0,0.3,0,0.8,0,1.1c-0.1-0.3-0.3-0.7-0.4-1l-0.9-1.7h-1.3v5.1h1.2v-1.4
		c0-0.6,0-1.1-0.1-1.3c0.1,0.3,0.3,0.7,0.4,1l0.9,1.8H94.7z"/>
	<polygon points="99.2,52.5 95.3,52.5 95.3,53.6 96.5,53.6 96.5,57.6 97.9,57.6 97.9,53.6 99,53.6 	"/>
	<path d="M104.9,57.1l-0.6-0.9c-0.3,0.3-0.5,0.3-0.9,0.3c-0.3,0-0.5-0.1-0.7-0.3c-0.2-0.2-0.2-0.7-0.2-1.5
		c0-0.6,0.1-0.9,0.3-1.1c0.1-0.1,0.3-0.2,0.6-0.2c0.3,0,0.5,0.1,0.8,0.3l0.6-1c-0.2-0.2-0.8-0.4-1.3-0.4c-0.9,0-1.6,0.4-2.1,1.2
		c-0.2,0.5-0.4,0.9-0.4,1.6c0,0.7,0.2,1.4,0.6,1.8c0.5,0.5,1,0.7,1.7,0.7C104,57.7,104.5,57.4,104.9,57.1z"/>
	<path d="M107.3,56.6c-0.5,0-0.9-0.3-0.9-1.6c0-1,0.2-1.6,0.8-1.6c0.6,0,0.8,0.3,0.8,1.6
		C108.1,56.3,107.9,56.6,107.3,56.6z M107.3,57.7c1.8,0,2.3-1.4,2.3-2.8c0-1.1-0.5-2.4-2.2-2.4c-1.3,0-2.3,1-2.3,2.8
		C105,56.7,105.8,57.7,107.3,57.7z"/>
	<path d="M114.2,57.6v-5.1h-1.2v1.6c0,0.3,0,0.8,0,1.1c-0.1-0.3-0.3-0.7-0.4-1l-0.9-1.7h-1.3v5.1h1.2v-1.4
		c0-0.6,0-1.1-0.1-1.3c0.1,0.3,0.3,0.7,0.4,1l0.9,1.8H114.2z"/>
	<path d="M119,55.8c0-1-0.8-1.3-1.3-1.4l-0.5-0.1c-0.4-0.1-0.5-0.3-0.5-0.4c0-0.2,0.2-0.4,0.5-0.4
		c0.4,0,0.8,0.1,1.1,0.4l0.6-0.9c-0.5-0.3-1.1-0.5-1.8-0.5c-1.1,0-2,0.7-2,1.7c0,0.9,0.5,1.3,1.2,1.5l0.6,0.2
		c0.4,0.1,0.5,0.2,0.5,0.4c0,0.3-0.2,0.5-0.7,0.5c-0.5,0-1.1-0.2-1.4-0.4l-0.5,1c0.5,0.3,1.1,0.5,1.9,0.5
		C118.1,57.7,119,57,119,55.8z"/>
	<polygon points="122.9,57.6 122.9,56.5 121.1,56.5 121.1,55.4 122.4,55.4 122.4,54.4 121.1,54.4 121.1,53.6 
		122.7,53.6 122.8,52.5 119.8,52.5 119.8,57.6 	"/>
	<path d="M125.4,53.6c0.4,0,0.6,0.1,0.6,0.5c0,0.3-0.2,0.6-0.6,0.6H125v-1H125.4z M127.7,57.6c-0.2-0.4-0.6-1.3-0.8-1.7
		c-0.1-0.3-0.3-0.5-0.5-0.5c0.6-0.1,1.1-0.5,1.1-1.4c0-0.8-0.5-1.5-2-1.5h-1.8v5.1h1.3v-2c0.3,0,0.4,0.1,0.6,0.6l0.5,1.4H127.7z"/>
	<path d="M132.3,52.5h-1.4l-0.7,2c-0.1,0.3-0.2,0.6-0.3,1h0c-0.1-0.5-0.1-0.6-0.2-1l-0.6-2h-1.4l1.7,5.1h1.2L132.3,52.5
		z"/>
	<path d="M134.5,55.6h-0.7l0.2-0.8c0.1-0.3,0.1-0.6,0.1-0.8c0,0.2,0,0.5,0.1,0.7L134.5,55.6z M136.5,57.6l-1.5-5.1h-1.4
		l-1.6,5.1h1.4l0.3-1h1.2l0.3,1H136.5z"/>
	<polygon points="139.9,52.5 136,52.5 136,53.6 137.2,53.6 137.2,57.6 138.6,57.6 138.6,53.6 139.7,53.6 	"/>
	<rect x="140.4" y="52.5" width="1.3" height="5.1"/>
	<path d="M144.9,56.6c-0.5,0-0.9-0.3-0.9-1.6c0-1,0.2-1.6,0.8-1.6c0.6,0,0.8,0.3,0.8,1.6
		C145.7,56.3,145.4,56.6,144.9,56.6z M144.9,57.7c1.8,0,2.3-1.4,2.3-2.8c0-1.1-0.5-2.4-2.2-2.4c-1.3,0-2.3,1-2.3,2.8
		C142.6,56.7,143.4,57.7,144.9,57.7z"/>
	<path d="M151.7,57.6v-5.1h-1.2v1.6c0,0.3,0,0.8,0,1.1c-0.1-0.3-0.3-0.7-0.4-1l-0.9-1.7h-1.3v5.1h1.2v-1.4
		c0-0.6,0-1.1-0.1-1.3c0.1,0.3,0.3,0.7,0.4,1l0.9,1.8H151.7z"/>
</g>
</svg>
