<svg id="Layer_1" data-name="Layer 1" xmlns="http://www.w3.org/2000/svg" xmlns:xlink="http://www.w3.org/1999/xlink" viewBox="0 0 870.5 512.7" role="img">
<title>A map of the world split into regions</title>
  <defs>
    <style>
      .cls-1 {
        fill: none;
      }

      .cls-2 {
        clip-path: url(#clip-path);
      }

      .cls-3 {
        fill: #ededed;
      }

      .cls-4 {
        clip-path: url(#clip-path-6);
      }

      .cls-5 {
        fill: #b8cdd0;
      }

      .cls-6 {
        fill: #f6bf58;
      }

      .cls-7 {
        fill: #676766;
      }

      .cls-8 {
        fill: #fff;
      }
    </style>
    <clipPath id="clip-path" transform="translate(0 0)">
      <rect class="cls-1" width="870.5" height="512.72"/>
    </clipPath>
    <clipPath id="clip-path-6" transform="translate(0 0)">
      <path class="cls-1" d="M490.2,380.3l-1.4-3.8.6-1.7v-3.5l-.8-1.2.2-1,1.2,1,.5,3.2.7,1-.7,2.3.4,3.1,1,2.3-1-.8-.6.3Zm-9.5-13.9a29.3,29.3,0,0,0-.5-2.9l-1.7-1.3-.8-1.5v-2l-.5-1.5.5-4.7c.6,2.2,1.2,4.5,1.6,6.8l-.4,1.2,1.7,1.5.2,1.2,1.2,3.2-.3.5Zm6.4-23.7,1.9.3.3,1.5h1.5l-1.4.6-.3.7.3.5-2.1,2.9,1.1.5-1.8.7-.4,1-.2-.9-.4.2-.9-1-.2.8-.7.5-.4-1.8a40.3,40.3,0,0,1,.5-5l1.7-.9,1,.3ZM484,257l-.6-.3.2-.4.7.7v.5l-.3.2Zm71.5-53.4-1.6,2.7.5,1.7,1.4,2.3-.3.9-1.1.5-1.8,3.6-1.1.4-1.4-.8h-2.5l-.4-4.7,1.5-3.2,1.4-.5v.7l.4-.2.5-1.6.3-.2.3.9,2.1-.2-1.7-.7.3-1.2.5.7.8-.9.3.9Zm42,0,.3,1-.5.5-2.3.4-5.8-.7-.6-.7-.3.9-2.3,1.6-.5,3,.7,1.5h-.5l-1.6-2.3V207l.2-.7,3.4-2.7,7,.5.9.7Zm-73.5,2,1.1-.5-1.1-.8,4.2-.9,1.5-1.6,2.1.8,2.1-.5,1.3,1.2,1.9,3.5,1.7,1.5.2.7h-.4l.2,1-6-1.2-.6.8h-1.4l-.3.7.6,1.7h-3.4l2.1,2.2.8,2.8,3.3,1.6-.5,3.2.8,2.3-.2-1.8,1.8-1.2h.7l.7,1.6,1.7,1.7-1.2.9.5.4-.5.3-2.9-.5-.5-1.1-.3,2.6.3,1.4,1.2-.5.5.5-.5.5,1.3.6-1.3.9,1.7,1.2-.6,1.6a49.5,49.5,0,0,0,.6,5.4l-1.8.2.8-.3-4.8,1.1-2.3-1.1-1.4-1.6-2.5-.6-.6-3.1V231l1,.5.7-3.9.8-.8,1.1.3-.3-.8-1.6-.3-1.5-2.9-1.5-1.7-1.8-4v-3l-.3.9-.8-1.9-1.2-1.6,1.5-2.7.3-1.6.4.2.2-1.7-.4-.7.9.2.8,1.6Zm143.5-28,2.3-2.9,2.9-7.7.8-.7.6.7-.9,6.4-1.1,2.7v-.9l-1.1,1.3h.7v.8l-2.1,2.5-3.7,2.1-1.8,2.8-2.5.8-2.1-.6,3.3-1.2,2.2-2.8,3.7-3.1-1.7.9ZM481.1,142.3l-1.4-3.4h-.5v-1.6l2.1-1.8,3.4,2.5.9,1.9v1.6l-.9,2.1-1.5-.2-1,1.5h-.9ZM657.6,7.7l-4.2,6.6-1,3,1.2,2-.6-.2v1.4l-5.5.8,2.2,2.6-.2,2.5-5.3-1.6-1.4,1.7-3,1.2.3-1.2-.7-.3-1.6,1.5.9-2.5-.8-.6L631,25.7v1.2l1.4-.2-.2,1.2-10.1,3.8-2.9,3.9h-2.6l1.9,1-1.4.7-.8,3-2.1-1.8-.5,1.6,2.2,1.2L614,43.1l2,1.2.6,1.9h-.7v1.4l-13.6,2.7-1.1.7.6.6-1.2,1.4.6.5-.6.8,1.7,2.5-.5,1.7.3,2.4,3.4,1.8v.7l-.3.8,2.9,1.8.5,2.1-.9,3,1,4.7v2.4l-1.3.6v1.7l-2.3-1.7a21.7,21.7,0,0,0,0-7.2l1.8-1.6.7-2.4-4.3-.5-1.7-2.7-3.7-2.7-4.4,1.5-.2,1,1.7.7-2.1,2.2h-.9l-1.1-2.1-.9.6.7,2.7,2.9,2.4,1-.8,1.1,3.5-7.3-3.2-.4-.7.7-.3V68l-.7-3.2,1-2.3-.5-2,.5-.4-1.4-2.9-.7.4.6,4.9-4,3.6-.7,2.6,3,7-1.7,6.4.8,3.1-.3,2,3.2,1,2.3-1.2s3.4,1,3.8,2.7l1.3,4.2-1.4,1-.2,2.5,3.2,1.3-2.7.4-1.2-1.4.4-3.2-.4-.6.3-1.5-1.4-1.7-.5-1.9-4.9,1.7-.6,2.6,1.1,2.8-.2,2.2-1.8,2.3-1.1,3.2-2.8,1.9v2.1l-.5.2L576,107l-.2-2.2-.6-.7,1.7.5,3.5-1.6-1.3-1.5,1.8.3,1.2-3.1,1.1-.8v-3l.8-2V91.5l-2.3-3,.4-6.2-.6-3.4.8-1V74.2l-.4-2.7L580,69l2.1-6V58.4l-7.9-1.8a41.7,41.7,0,0,0-2.2,9.9L568,70.9l-.3,1.8h.9l-1.2,2,2.1.9-.6,3.2.4,1.6-.9.4-.2,3.2,3,.8v1l1,2.9,1.5,1-2.1,4.7L568.6,90l-7-5.4-7.2-2.3-2,1.7,1.5,3.7-.3,1.6-2.3,1.6.2,1.7-.9.9-1.1-.8.7-2-1.3-2.2L545.2,92h-4.6l-1.8,2.8-1.7-1.2-.3-1.8.4-1.5-.7-.4,1.8-1-2.8.7-.3.8.2,1.1h-.6l-.6-1-1,1.2.5.3-.5,1.4-.7-1.2-1.1.4-8.8,6.1-.7,2.8v1.3l-2.6,2.4-.3-1.6-1.4.2-2.3-4,.9-1.9,3.1-.8-.6-2.6-1.6-1.9L511.2,91l2.1,2.6a27.4,27.4,0,0,1-.8,7l1.7,2.4-1.1,4.5.2,2.7-.9-1.7-.9.5.4-1.3-3-1.7-2.2,3-3.8,2.9v1.8l2.3,5.4-5.6-2-1,1.2v-1.1l.6-.3-3.4-2.2-.9,1.7.3,1.2,1.5,2.2,1.4-.5,1,3.3-1.7.7-3.2-1.5-1.6-2-2.3-.5.6-1v-1.7l-1.3-2.9,1-.7v-2.8l-6.7-7.9,1-.5,2.6,2.6,2.2.2.2,1.2,10.5,3,2.9-1.3,2.8-3.4.5-2.3-.7-.5-.2-2.9L503,95.3l-3.5-1.4-6.3-6.6-5.9-.3-.5-1.3-.8.6.2-.8-2.3-1,.3-1.4,1.8,1.2.5-1.2-2.9-1.5v1.2l-.4-.2-.4,1.2-1.7-1.1-3.2.8.8-1.5-3-2.2,3.3.5,2.3-2.7L479,75.3l-1.6.3-.3-1.5-1.5.8v2.4h-1.4l.8-1.4-1.4.2.8-.7-.5-.5,1.1-.3.3-1.4-2-1-1.4,5.1-1.1.6V73.6l-3.7,6.8-.4-.4.6-2.7,1.7-3.1-1.5.5-.6-1.5-1.6,1.2.8,1.3-3.2,3.6-.2,1.8-.9-1,.2-.6-1.4.5-1.1-1.4-.3,1.2-.6-1.2V80l1,.3.2,2.8L458,80.8v.8l-1.5.5-.3.7.2,1.2-1,1.8a21.3,21.3,0,0,0,.2-4.4L454.5,83l-.4,2.2V82.6l-1.1.2-.3,2,1.1,2.1-1.8-2.4h-.6l.9,1.5-.5.5-.9-.5-.2-1.2-.4,1.5.2.7-1.5,1.4.8,1.1h-.4v.8l-2.9,1.7,2.6.5-.8,1-2.3-.3.2,2.6-.6.5-.7-1.8-1,2,.3,1.2-.8.8h1.2l-2.7.7-.9,3.4-2.2,1.9v.9l.4.2-.7.5.6,1.3-2.2,2.2,1.2-.7.4,1.2-1-.5v1.7l-.6.2.4,1.6-.9-1.1-.5,1.8.7-.5v1.2l-2.4,1.5-.2,1,.3.2v1.3l-1.1-.3-2,2.8v.9l-1,.6,1.1,1.9,2.8-1.5-2.9,2.5-.9-1.5-1.1.7.3.8-.4.4-.4-1.1-1.2.6-2.5,2.5-1.5.8,1.5,1v.7H422l.6.4-.4.5.2,1.2-.6-1.1-.8,1.2.3.7-2.3-.5.2,1.2,2.8.2-3.3.8.7.6-.7,1.2.2,1.5h2.9l.4-1.4v1.1h1.3l1.2-2-.4,1.9.7-.2-1.4.8.2.9-.6.3-.5-1.2-3.8.9.5.5v.6l-.8-.3.4,1,1.3-.5-1.3,1.9.4,1,.5-.7.2,1-.4.5v.5l2-3.4h1.7l-.9,1.2-.4-.6-1.8,3.1,1.4.2-2.6,1.8.2.7,2.4-1-.9,3.1-.8-.4-.3,1.5,2,2.2.9-.5v1.5H425l3.4-2.9,1.2-2.3,1.4.4.6-1.4-.5-2.2.7.8-.2-1.5.5-.3.3,3.5,1.1.7-.2.7a14.1,14.1,0,0,0,.5,3.5l.6-.5v.5l-.6.7.8.3v1.2h.4v2.2l2.6,4-.8.7.3.8-.6.2,1.2,2.7-.4,1h3l.8-3.1,3.7-.4,1.7-6.3-.3-2.3.5-.2v-1.9l-1-.6,1.1-.3-1.5-.6,1.8-.3,1.4-1.8.9.7.9-1.2V148l.9-.3-3.3.3-2.3-1,1.7-.5,2.1,1,1.6-.9.8-1.8-1.3-2,.3-.2-2.1-1.8-1.7,2.3-1.5.4,2.1-1.7q-.1-3.5,0-6.9l.6.4.3-3.4-.4-1.5.7.3.5-.9V128l.4.8a22,22,0,0,0,1.9-3L456,123l2.6-3.7-1.1-2.5,1.1-2.1-.3-1.3,1.5-1.3-.4-1.2.9.8.4-1.8,3.7.8.3-1.2,2.9,3.2.6,3-2.1,1.1-.3,1.6c-1.8,2.7-3.6,5.2-5.5,7.8h-1.2l-.2,1.3h-.8l-.9,2,.6,2.4V133l1,3.1h-.4v1.7l-.5,1.1.5,1.2-.3.7,2.9,2,.8-.5.6,2,.6-.5.3.7,2.1-.5,3.7-2.2a38.5,38.5,0,0,0,6.6-1.3V142l-.5-.6.3,1.2,3.1.9,1.1,1.2-2.8-.2-2,1.7-.6-.6v1.5l-.5.2-5.2-1.1-5.2,2.3-.2,2,.8.4-.6.4.4,1.6,2-.2-.4,5.7-.5,1.3-1.8-.6-2-3.2-2,1-1.7,3.9-.2,2.5.8,4.5-.3,1.5-1.2-.5.5-.7-1.9,1.1-1,2.1-2,.9-.8-1.8.8.3-.4-.9-3.3.2-6.9,3.7-.3.3.6.2-.2.7-.8-.3-2.9-2.9-1.3.5.4-.9-2.7,2.4h-1.7l.6-1.7h-2.3l-.5-.7v-1.4l-.7-.3h.4l-.6-1,.6-2.3-.3-.6h.8l-.2-.8,1.1-.3v-1.2l.5.3.9-.8v-.9l-1.7.2.3-.8h-.6l1.1-3-.2-2.4-5.1,4-.6,2.5.2,3.9,1.3,1v2l.8,1.9-.8.8,1.1,2-1.2.6v1.9l-.4-1-.7.6-.4-1-.7-.2-1.1.2-.5,1,1.1,1-1.1-.2-.9-.8-2.9.8v1.5l.4.2-.6,1.5.2,1-1-.5v-1l.5-.4-.5-.8-1.9,4.4.3.7h1.3l-2.3.9,1,.5h-2a13.3,13.3,0,0,1-4,1.9l-.3,2.8-3.3,2.1-.3,1h.8l-3.6.4-.7-1.2-1.3-.2.9,4.4-2.8.2-2-1.1-3.1,1.2v.9l.9-.2-.4.5.4.5-.6.2.8,1,.9-.2,3.5,1.3.2.9,1.6.2h-.9l.2,1.5.6,1.2,1.7.9v2l1.1,1.8-.8-1-.5,2.9.5.3-.9,4-1.1.9-15.3-1.2-.6,1.3-1.5.2-.5,1,1,1.2-.3.7.3.7.3-.2-.3,1.8.3,3-1.8,7.6.8,1,1-.3-.4,4.8,3.5-.4,2,.4,1.4,2.7,1.4.7,2.6-2.2H402l1.7-2.6h1.4l.8-2.4,1.2-1.1v-.6l-.9-.6-.3-1.4,2.8-4.9,5.4-3.5.6-1.6-.5-.6v-1.5l.3-1.2,1.9-1.3,2.5.5,2.6,1.2,3.3-2.8,1.5-.4,1.5-1.7,3.3,1.5,1,3.4,1.5,2.3,1.1.2,3.3,3.8h1.7l1.6,2.3h1l.5,1.5,1.1.8.4-.5,1.4,4.3-.9.6-.3,1.5v1h.8l1.1-1.5.3-1.7,1-.5V230l-1.3-1,.6-2,1.1-.7,1.6,1,1.1,1.4.4-.9-1.5-2.2-4.7-2.5.5-1.5-.4-.4-2,.6a22.3,22.3,0,0,1-2.6-2.7l-1.3-3.8-2.6-1.9-.5-1.7.5-1.4-.5-.5v-1l2.3-1.3h1.1a14.1,14.1,0,0,1-.1,2l.5,1.2h.4l.9-1.8h.4l.8.9.5,2,.9.7-.7.7,2,2.3,2.2.4,1.5,1.4h-1.1l2,.7,3.4,3.4.7.3-.5,1.5v3.2h-.3a29.5,29.5,0,0,1,3.6,5.1v-.4l.7.4.2.3h-.9l.9,1.8h3.7l1.2.7-.6.4-2.2-.8-1.5.4-.6,1.3,1.2,1.7v1.3l.5.5.4-1,.8,2.1.8-1.2,1,1.2-.9-3.8.9.9.8-.7-.8-1.5,1.2-.2,1.1,1-.2-1.6-3.5-2.5,1.1-.2v-1.2l.9.6-1.5-2.8v-2l.6-.2-.2.5,1.7,1.9v-1.2l1.1,1-.4-1.4,1.2.6-1.5-1.4,1.8-1.2H467l4.5,1.2-1.4.8-.2,1,3.4-3,3.4-.2v-.9l-2.1-1-.3-1.3-1.2-2,.9-1V217l1.2-.9.5-1.4.6-4.4.3.7-.4,1.2,1.5-1.2.3-2.4h-.1v-1.5l.3.9,1.6-1.5-.7-1.4.9.9.5-1.4,2.9-1,.8,1.2h-1.4l.9.3-.4.7,4.4.5.4.5-3.1,2,2.1,1V212l1.4.5,3.7-2.7,2.3.4.3-1.6-3.7.5-.5-1.3-.9-.3.2-.7-.9.2.7-.4.5-.6.4.8V206l.7-1.2.4.7,1.1-1.2,8.1-2.5.5.6-2.2.9.2.5H498l-.2.6,1.9,1.7-1.4.3-1.2,2.3h-1.4l-.5.7,1.7,2,.6-.2,2.8,1.9,3.7,3.7,2.4,1.5.9,2.7v1.2l-3.2,2.5-2.4-.3-3.1.6-4.1-1.4-.7-1.4h-1l-1.2-1.3h-4.3l-2.5,1.1-2.9,2.5-4.6-.9-.5.9.3.5,1.7.5-2,.2h-.4l.4.7-3.2-.4.2.7-2.5-.2-.9,1.2-.6,1.9,1.7-.2-.3,1.2.6,1.1-.5.7.9.9H471l-.4-.9-.4,1.4,2,.8v1l.7.4-.3.6.8.7-.5.7,2.3-.2-2.1,1.3,1.5-.3v.5l1.3-.6.6.6.6-.3.4,1.3,1.4.5,1.5-.5.4-1.8.7-.2,4.6,2.9,3.1-1,.9-1.2.9-.2,1.6.7,1.2-1,.5.5-.7.7a39.2,39.2,0,0,1-1.4,13.6l-1.2,2.2a16.3,16.3,0,0,1-4.3,1.8h-1.3l-1-.8h0l-.7-1-2,.2-1.3.5.5-.5-4.3,2-5-1.9-4.3-.4-.6-1-4.2-.9-.7-1.5-2-.7-2.6.4-2.5,2.3v1.4l.4,1.5-.6,1.3-2.3,1.2-3.1-2.1-4.4-1.1-1.5-3-3.3-1.5h-3.5l-2.3-1.2-.6-.2-.4-1.2-.7.4-1-.7-.8-.8v-.6l.6.2.2-.8,1.7-1.5.6-1.5-.2-1.2-.9-.7-.5-1,1.6-2.3-.2-.7-1.4,1-.4-.2-.2-1.3-1.4-.3-2.3,1.1-1.9.4-1.4-.9-.8.7-1.5-.7-2.5,1.3-.8-.4-2.4-.2-6.4,1.4-2.4,1.1-.5.8-2.2.4-1.2,1.5-1.7.7-2.5-.7-3.2.5-1.4-.9-1-1.5-1.1.5-2,5.2-4.1,2.7-1.9,2.4-.3,1.5-1.4,2v2.2l.4,1.9a18.2,18.2,0,0,1-1.5,2.7l-3.2,2.8-3.1,1a18.3,18.3,0,0,1-1.4,3.2l-2.2,2.2-1,3-2.1,3.2-1.9,4.5-.6.4-.6,3.3h.5l1.2,2.1v1.4l-.7,1.2,1,2.5v2.3l-1.2,4.2v1.2l-.8,1.5-1.6,1.1h.6l1.8,3-.6.7a7.1,7.1,0,0,1,.2,2.5l2.1,2,2.5-.7-1.5.7.2,1.4.7.6.2.5.7-.5.9,2.2,1,.7,1.6,2,.4,1.9-.2.3a11.8,11.8,0,0,0,1.9,2.5l2.2,1,5.2,4.9,4.3,2,.8.2,2.7-1.4,3.2-.8,4,.2,2.8,1.2,5.2-2.8h2l.6-.9,1.7-.4,5.5-.4,1.4.7.4.8,1.1,1v1.7l1.9,1.5,1.5-.5.6-.6,2.5.5.2-1.1.7.9h.7l.4,1.2h1.6l-.3.9.9,1.1a30.4,30.4,0,0,1-1.3,5.4l.4.7v.7l-.4.5,1.2,1L429,343v1.9l-1.1.8,1.2,3.1a102.9,102.9,0,0,1,6.6,8.2l.8,2.2v1l2.1,5.4.2,1.5-.5,1,.5,2.1,1,1.4c0,1.5-.1,3-.2,4.5l-1.8,1.7a41.7,41.7,0,0,0-2.9,8.4c-.1,2-.1,4.1,0,6.1a97.5,97.5,0,0,1,6.5,12.4v4.5l.8,2.5a41.9,41.9,0,0,0,1,7.1l1.3,2,1.8,1.7a74.7,74.7,0,0,0,4.3,10.1l.2,2-.5.7-.5-.2v.8l1.4,2.4.2,1.2h.7v.8l2.9,1.2.9-.9,3.6-.3,1.6-1,5.6.5.3-.7,1.8.4.2-1,3.3-.7a36.9,36.9,0,0,0,10.3-13.5l2.4-2.3,1.1-5.2v-1.9l-.3.7-.6-.8.8-1.4,4.6-2.1,1.5-1.9v-.9l-.4.9a55.1,55.1,0,0,1,.6-5.7l-.3.2-.9-3.9-.8-.9v-1.8l3.1-2.7.3-.8.5.6.9-1.5-.3-.3,2.1-1.8,3.8-1.6,1.7-1.5v-.5l2-2,.2-.9h-.5l.8-1.3-.3-1.4h-.4c-.1-2.2-.1-4.4-.1-6.6l.9-2.1-.4-1.5-1.4-1.1c-.5-1.5-1.1-3-1.5-4.5l.7-3.3-1.7-2.1,1.1-4.3.8-.9,1.6-4.3a31.2,31.2,0,0,0,5.3-5.6v-1h.8l4.9-5.1,2.1-1.2,4.5-4.7,1.4-2.7,1.5-1.7,2.3-6,.6-.7,1.4-2.3.5-3,1-.2-.7-.2.3-.5-.2-2,.3-1.2-1.2-.5-1.4,1a49.4,49.4,0,0,1-6.7,1.2l-1.9,1.2-2-.5-1.8,1.2h-1.2l-2.6-4.4-.2-1.1-.6-1-1.5-1.2-2.8-3.7-1.8-1h-.8l-.8-1.3v.8l-.3-.2-1.3-2.2-.9-4.2-.9-1.5-2.6-2.3-.3-6.2-.8-1v-1.5l-3.1-3.1-.3-2.3.8-.2-1.5-1.5a43.4,43.4,0,0,1-4.1-10.3l-2-2.6-.7-2.2.5-1.4,1.8,4.4,1.9,2.3.7-.3.9-4.5.3.3-.6,3.5,1.3.2,4.4,7.7.9,3.2.9.2,1.4,1.3,1.7,4.1-.2,1.3.8,3.5,2.5,1.7,1.3,1.7.6,2,1.3,2.2,1.4,1.2a38.1,38.1,0,0,1,1.3,4.5l-.4,1.7.6.6.9,5.1.6,1.4,3.4-.2,2.1-1.7h2.5l2.4-1.5,2.3-.4.8-1.2a71.5,71.5,0,0,1,7.7-2.9l.3-1.7,1.5-1.2,2.8-1,1.8.2,1.6-2.4,2-.5.9-2.2,2-.7a12.1,12.1,0,0,0,.8-3.8c0-1.9,1.3-.2,1.3-.2l1.8-2.3a14.3,14.3,0,0,0,1.4-3.4c.5-1.7-2.7-3.2-2.7-3.2l-4.3-1.8-1.4-2-.2-2.3.4-1.8A59.1,59.1,0,0,0,538,277v.5l-1.1.7-3.2-.3-.8.5h-1.2l-.3-.7-.6-.2a34,34,0,0,1,.3-4.5l-.9-.9-1,2.1v2l-1.6-3.1.3-1.1-.5-1.5-1.7-1.2v-1l-1.2-1.2-1.1-2-.7-2.2-.7-.2,1.2-.9-.6-1.1,1.1.2.4-.3.6-1.6,1.6,1.9,1.2-.5,1.4,2.9.9.8,1.2,3,2.3,1,.8,1.2,1.7.7.3.6,2.6.5,4.3-1.8,1.2.7,1.3,3.5,10.1,1.7.3.3.9-.5,4.9-.5,1.1.7.3-.7.6.2,3.7-.2.6,1.5.9.3.9,2.4,1.3.3,2.1,2.7h1.8l1.6-.8-.2,1.3-.9.7-2.3.3.2.7,3.3,3.6h1.9l1.6-.9.8-3.5,1.6.3-1,1,.8,4.1-.3,2.1.3,1.9h.3v1.9l1,5.1a17.8,17.8,0,0,1,1.2,2.9l.5-.2v1.5l1.9,3.7.8,3.6,1.5,2.1,2.3,6.8,1.7,2.3h.7l1-1,.3-1.5,1.8-.7v-.8l.9-1.9h1.2v-3.5l1.2-4.2-.4-1.2-.2-4.5.6-1.2h1.4l.9-1.5,2.2-.7.6-1.3,4.3-3.7,2-2.7,3.2-1.8,1.7-2.1V286l2.1-1.1.5-1.2.4,1.9,1-.4v-.4l.3.6.3-.2,1.6-.6.2.3.7-.8.7.7.8-1.2v-1.2l.6-.8.6.6H628a30.2,30.2,0,0,1,1.6,5.1l1.6,2.3,1.8,1,.3,1.2-.4-.3-.2.5.8.8v-.5l1.1,2.2.5,3.2-.8,3.2.8-.4v.7l1.8.4,3.2-2.6.2-2,.4,1.5,2,1,.4,4.2.5-.7,1.2,3.4,1.5.2.6,2.2v2.3l-.3.4.8.4-.8,3.9.5.4-.9,3.1v2.1l.9-.2c1.2,1.6,2.5,3.2,3.7,4.9l.9,5.5,1.8,3.9,5.1,3.8.8-.5.9.5.3-1.1-2-3.6v-4.7l-1.1-1.6-1.5-1.6h-.5l-1.5-1.8-1.5-.2-1-1-1.2-3.7a76.2,76.2,0,0,1-.1-11.7l3.4.7.9,3.1,2.7,1,.6,2,1.1-.5V316l2.1.2,1.4,1.2L662,319l.2,2,.4.2,2.7-2.2-.4-1.3,1.1,1-.2-1,1-1.4H668a33,33,0,0,0,4.1-2.3l.3-1v-2l.5-1-1.2-6.9-1.1-1-.3-1.2-1.4-.5a35.7,35.7,0,0,0-3.1-3.7l-.3-1.2-1.3-1.3-.2-1.4.8-2.4a30,30,0,0,1,3.3-3.8l1.4-.5.6-.5.2.5.7-.9,1.4,1.1,1.2-.5v1.8l1.1,1.8.8-.3-.6-1.5.6-1.3,6-1.5.4-2.1,1.1,1V282l1.1,1.6.7-.2v-.5h.1l.5.3.6-.8.2.3.9-.7.6.6,2.3-.9,1.4-1.6,1.2-.4.3-.5v.3l1.1-1.1v-1l1.4-.4,1.5-2.5.5.2.7-2.6-.4-1,.7-.5.2.9,2.8-5.1.6.2.6-2.3-.2-.7.8-.2v-1.2l-.8.4,1.2-1.2-2-1.2-2.2.5,4.1-2.5a13,13,0,0,0-3.2-3l-1.1-.2h1.1l3.2,1-2.5-3.1-1.6-5.2-2.5-1.6,1.2-2.3,1.1-.9.2-1.2,1,.5.6-1.2v-.7l2-.3.6-.8h.6l.3.6.8-1.8-2.6-.3-1.7-1.2-3.2,2.3-1.3-.5-.6-1.8-1.7-1.1-1-1.3v-.8l.8-1.5,1.2.3,1.6-.7.9-1.7,2.3-1.3,1.6-2.5,1.7-.6.9,2.1-2.2,3.2,1,.6-.3,1-1.1.9.4.2,5-3.6,2.5-.4.6,1.1,2,.2-.6,2.5.4.3-.9.7-.6,1.5,1.1-.2-.3.6.4.8.8-.3v-.7l2.2.8.7,3-.4-.4-1.4.6.5,1,.4-.6.7,2.6-1.1,3.1.6.3-.2.7-.4-.3-.2,1,1.5-.4,1.1-.8-.3.5h.3l.3-.9.3.5.8-1.1,1.1.6.6-1.1.7.2,1-.8.7-2.2-.7-4.7-2.2-3.6-2.1-2.1v-2.2l2.1-1,3.3-2.9v-2.3l2.2-2.9h.4l-.2-.7h1.2l1.6-2.9.4,1.2.8-.7v1.5l2.1.7,1.9-.7,2.4-2,7.4-10.2a27.6,27.6,0,0,1,5.3-9.1l1-6.3-.5-2.8a20.2,20.2,0,0,1,2.3-6.2l-.7-1,.2-.8-.2-1.4-2.5-1,2.6.5.4-1.2-2.4-2-1.4-2.3-2.6-.2v2.4l-.9,1.1v-1.1l-.5.4-2.2.6.9-1.4-.8-1,.8-1-1.1.5v1.2l-1,.8v-3.9l-2.5.2-1.2-.8v-.9l5.9-5.7,3.6-5.3,2.8-2.6,1.1-2.5,3.5-4,2.1-1.4,5.7-.3,1.4,1.4.9-1.6,2.6,1,2-.6.6.8.7-.2-.4-.8,1-.3-.2-1.1.4-.3,4,1.5,1.3-.6,1.8,1.5-2.5,1,.7,1.2,2.7-.9.8.5L780,149l3.1.5.6-.3-.2-.9-2.1-.6.3-.7-.3-1.2h.5l1-2.5,2.8-2.5,3.1-5.1,4.3-1.3,1.9,1.3,1.4-1.5-.4,2.2-.8,1.4.3,1-.5.8,1.4-.2-.6,2.4,5.4-5.7,1-.5.6,1,.5-.9-.6-.6v-1.9l1.3-2.3,2-.9,1.3,1v.5l-1.9,1.2-.2,3-.5.9v1.5l-.6.8.3,1.2-4.3,2.4-.3,1.3a68.1,68.1,0,0,0-8.3,10.9l-2.3,1.5h-1.3l.4,1.5-.6,2-2.2,2c-1.8,8.6.8,17.4,2.2,25.9l3.5-4,.8-4.7,2.7-1.2.6.3V174l2.4-2.5,1.6.4,1.2-1.1-1.1-3.6.6-2.1,1.3-1.2-.3-.8,1.5-.8-.6,1.5.8,1.2.7-1.4v-1.7l-1.1-.5-.2-2.1,1.3-3.1-1.4-.8-1.1,1-.5-.9.2-1.5,2-4.3h.6l.9-4.1,1.1-.6.4.6,1-.9,1,1.1.7-2,2.1-1.7.3.5v3.2l1.8-3.2,2.9-1.2,2.9.7,2.3,3,.5-2.6,3.9-2.6-.2-1,.9.4-.2-.9,2-1.2.8-1.8.9.5,2.8-1.8V133l5.1-2.1-.5-2,1.1,1.8.5-.7,3.3,2,1.2-2.3-1.2-1.7h.9l-1.2-2.2c-.1-1.1-.3-2.2-.4-3.3l-1-.3.7-.3-.7-1.7-.4.7-1.4-.9-.3-2.1h2l.8,1,3.5-3.2,1.7-2.9-1.4-2.1-.2-1.7,1.4-.2v-1.2h.5l.6,1.2.9-1.4V109l-1.1.2,1.3,3.3,4.7-.3,1.4,1v2.7l1.3,1.5,1.1.4-.3-.4,1-.2-.3.4,1.5.8.3,1.4.8-.5.3.8.6-1.5-.2,1.7,1,.3.2-1-.4-.3,1.8.3-1.5-1.5.6-.5-.9-.2,2.4-1.7-1.3-1.1h1l.8-1.7,1.9.2-.7-1.2v-1.2l1.9,1.5v-2l2.2-1.2-2.2-.7.2-.6-3.1-4.2-3.5-.4-.3,1.2-.3-.8.4-.7-1.2-.6v.8l-1.7-.3,1,.4v2.4l.9.7-.6,1.3v-1.2l-1.8-1.6-.8-4.2.5-.2-1.4-2-1.2-.4,1.2,2.2-2.6-1.8.9-1-2.3-.7.5-.5v-.7l-1.1-.8-1.7-.2-.3-1.3-1.4-.7-.3-1.5-1.9-1.1-.9-.3-3.8-3.7-5.5-3.3h-6.9L821.6,81l-1,.3v2.2l-.9.8,1.3.4,1.1,3.5-2.8,2.5-3.9-3.4-.3-2.6-.9-1.6-2.3,2.2-4.5-.6L805.2,83l-4,.7L798.4,86V84.8l-3.8-2,.9-3.1-.2-1.6-2.7-4.2-10-.3-5.2,1.5-1.8-1.3,1.4-1.7-1.9-2.2-2.1.3-1.2-1.8-3-.5,1.1-1.9,1.4.4-.6-2.5-.8-.7-20.2-5.4-.6.8.8,1.5-3.5,4.8.4,1.5-.5.9.8,2.4-1.4-.5-3.5,3.1-5.9-4.1-1.3.2-.5,2.3-2.8-.6-2.2-4.7L727.9,69v3.1l-1.7,3.8-.9-1.8-2.5-1-2-5.1-.6.2-.3-2.2,2-2.3-.3-.2.4-1.7L721,60l.6-3.5-3.2-4.4-2.8-.7-.9,1.2L708,48.5l-.2,1.4-1-.5-.5,2.9.8,2.8-.6.8-5.3,1-6.1-2.1V52.4l1-.5-7.8-2L683,51.7l1.8,1.7-2.1,1h-.6l.9-.9-.8-.2.4-2.6-1.4-3.7V49l-.9,1-2.8-1.1-.3-1.4.5-.6-1.4,1.2-1.8-1.2-1.4,2,.4,1.8,2.2-1.7.8,1.2-3,2.2-1.3-1,.6,1.2-.5.5-3.8,2-2.9-.3-.2.7v1.3l1.1.8-1.7-.8-1.4.8,4-6.9,2.5.2,5.5-8.7,3.4-1.5V39.3l1.3-.5-.4-.5,2.3-1.5,1.4-2.7-.4-1.7.4-.7-2-.6-1.1-2.5,2.3,2.5,1.1-2.4-.2-1.3H683l-.9-3.3-.8,1.6-.8-1.5.5-1-4-4.7-7-.3-2,3.3h-2.9l2.4-3.3.5-1.7v-1l-3.9-.6.2-1.3-3.6,2.2,4.3-4.6-.7-2.5-4-2Z"/>
    </clipPath>
  </defs>
  <title>home_page_map_graphic</title>
  <g class="cls-2">
    <path class="cls-3" d="M212.9,218.6h2.9l-2.6,2.1-4.6,2.4h-2.9l-.9-.7.7-1,1.6.2,3.2-2.5,1.4.3Zm10.4-6.4-1.4,1.6.7.4-.5.5.3,1.2-2,.8-2.8-.4-2.2.7h-1.9l1.5-1.7,2.6-.8h2.6l-.4-.8h.6Zm-20.7-7.6.5,1,8,1.5,1.8,2v.9l.9,1.1h-.9v1.2l-1.7-.7-.5.5v-1.3h-.5l-.3-1.2H209l.7,2-1,2.2v2.8l-1.5,1.2-.3,1.5.2,1.1-1-.2.3-.9h.5l.2-1.5h.1L206,214l-1.1.4-.7.9-.7-.2,1.4-2.4-.3-3.2-2.3-1.6h-1.4v1.2l-1.1.4v1.3l-.4.3-.2-.9-1.3,1.5-.7,3.8.7,2v1.7l-1.1,2.6-1.1.9-1.1-.6-.6-1.7V217a33.1,33.1,0,0,1,2-7l-.2-.5-.6,1.6-1.4,1.1.3-1.1,1.7-2.8,1.2-1v.8l3.3-1.7,1.2.9.4-.7,1.6.2-.9-1.8h-.1Zm-9-9.6,1.5.5.8,2.2v-1.8l1.7.2,1.5,3.1h2l-.2,1.3.8,1.2v1.5l.6.3V205l-1.4-.4-.2-.7-2.4.2-1.4,1h-1.5l-1.6-1.6-1.2.5v-.8l1.5-2-5.6,3.4h-1.7l-.2-1.3-2.6,1.2,1.9-2.4,3.6-3,1-.5,1.2-1.9.3.9.8-1.9v1.5Zm-24.4-22.7h.7l.6.3v.6l-.3.2v.3l-.4.5h.5V174l.5-.2v.5l-.4.2v1.1l.3,1v1.1l.7.9v1.2l.6,1.5v1l.6.8.2.9,1.4,2.2v.5h-.3v1.4l-.2.7h-.4l-.3.9H173l-.3-.9v-1.2l.8-1.3v-.3h-.5a7.7,7.7,0,0,0,.2-1.5l-.4-.6h-.4v.9l-.3.3-.4-.7v-1.4l-.6-.3v-.6h-.4v1l-.8-.3v-1.4l-1.5-1.5-.2-1.3.6-.3.2-.3h-1.2l-.5-.5v-1.1l.4-.5.2-.9.4-.3,1,.2,1,.4v-.4l-.5-.5v-.9l.3-.4-.5-.5h-.7v-.2Zm-26.3-27.1,1.8.3v.3l-1.1.4-.4.3v1.1l.6-.4h.4l.3.3-.4.3v.5l.9-.5h1.8l.4.6h2.6v.4h-3l-.4.4-.7.3h-2.6l-1.7.8h-.6v1.1l-.8.3h-1.1l-.6-.4.2-.5h.6l.5-.6.4-1.1.7-.2,1.1-1.4.3-1,1-.4-.5-.6ZM127.2,128v1.4l2.3,2.2h.6l.5-.8v-1.7l.6,1.1v1.3l.8,1.4h.5l.3-.4v-.8l.5.2-.3.6v.9h1.1l1.4-.4,1.4-2v-.9l1.2-1,2.2-.7,2.7.5.3.9-.7.6-1-.7-1-.3.2,1,.7.5h-.8l-.8.5-1.2-.4.2.4v.6h-.5l-1.4,1.1v1.3l-1.5,1.6-1,.6h-1l-.2.7h-.6l-.4.3v1l-.2.5-.6.2-.6-.4-2.7,1.2-.8-.3-.7.4-.7-.2v-.5l-2.9-1.7-.6-.8h-.9v.5h-1l-.2-.3,1.1-1.4,1.1.5,1.2,1,1.4.2.2-.6h.4l1.1,1h.5v-1.1l1.2-.2-.3-.5.4-.4v-1.2H130l-.2-.6.3-.7-1.2-.3.3-.6-.7-.2-.5-1.1-1-.4v-.6l-.7-.6v-.7l-.6-.8.9.2Zm-10.7-24.8a10.5,10.5,0,0,1,2.4.6l.2.4a18.6,18.6,0,0,1-2.8,2.1v.6h-.5l.3.5.8-.2.8.6h2.4l1-.5v-.8l1.6-1,.2.3-.4.4v.7h.6l-.8,1.1.3.5-.6,1.3-.6.4v.5l-.8.7v.6l.6-.5h.5v.4l-1.4.6a8.6,8.6,0,0,0-1.4-1.3l-.5.3h-.9v.6l-.6.5v.6l1,.6v.6l-.7-.2-.4.4v.4l-.9.6-.6,1H115l-1.4,1-.3-.3.2-.7,1-.6s.1-.6.1-.8.5,0,.5,0l.6-.7v-1.9h-1l-1.3,1.4-.3.7v.9l-1.3,1-.3-.4h-1.8l-1-.8v-.3l1.1-.2.6-.8v-1.2l.9-.4.3-.2.3-1.3-1-.6V110h.6l.8.6h1.4l.4-.9-.9-.2-.8-.9-2.6-.2-.2,1.2-.5-.8-1.1.6h-.8l-.5-.7-.7.4v.8l-.6.6-.6-.8.3-1.8,1.2.2.7-.6.6.6,2.1-1.8.3.7.4-.5h.9l.4-.4.5.4,1-.7h.9v-.6l2.2-1Zm60.2-38-1.8,3.2.6,1-.2,1.6-.9-1-.9,1-.3,3.6,1.1,1.3-1.4,2.2v2.4l5.2,4.8,1.7-.5v1.9l-.6.3.3-1.5-.9.5-1.2,4.5h1.4l.4-.9-.4.2.3-1.2,1.1,3-2.8,3.9-2.3-.3.3.8-.3,1.7.8,1.2v2.3l-.8-.5.3-.7-1.2.7V99.4l-1-.6,1-.7-.3-.7.3-3.3-1.6,1.4.4-1.9-1.1.2-.8-1.6-3.4.7,1.6,3.8,2.1-.4v1.6l-.3.5-2.1-1-1-2.2-.4.3.9,1.9-4.7-.7-4.8,1.2-2.5-3.2-3.3.2v-.8L151,92.4l.6-.3-.8-1.4.3-.3-1.5-1.7L144.4,91l-1.1,2.1,2,1.7.8-.4-.6-.8.7-.5,2.2.7V92.6l-.3-.5h.6l-.3-.6,1.9-.6L149,94.1l-2.9,1.1-.3.7.3.2L145,97.4l2,4.4-.3.4.4.9-1.3.2v1l-1.6-2.1,1.4-.6-.4-1.3-1.4-.5-.2-1.7-.4,1.7-.2-2.4h-2l-.8-2L136,97.8l-6.9-.4-2.2-1.3.8-.5V94.4l1.2-.3-.6-.3h2.5l-.5-1.9-2.5-3-2.4-.2L126,90a86.5,86.5,0,0,1-9.9-4.2L112,82.6h-3.2l-.9,3-2.6.4,1.2-2.7-1-.2v-3h-.7l.3.7v.5l-.5-.2L103,84l.8.7-1.3.8h-.9l-1.7-2.3-1.4-4.5-1.8-2L96.3,78l1.3,1.3-3.5,4,.6-2-3.5,2.2-1.7,3.7V85l-4.6,2.9,2.6-3.2,2.2-.2a33.3,33.3,0,0,0,3.6-3.9l-.4-1.5L82.6,86.2l-1.7,2L82,90.7v1.2l-1.4-2.4H78.8l.9,1.6-.6.2L76.2,89H73.9l-4.3-4.8-4.2-1-.6.6-4.7-3.7-4.9,1-9.8-3.8H39.6l.4-.6-.9-.4-.8-.5.3-1.3-1.8.3L36,73.6l-2.4,1.2-2-2.6-1,.9.4,2.3-2.5-1,1.8-2.5-2.7-1.5-3.1,4-2.9.4v.9l-.8-.4,1.2-1.4-2,1.4-.6.6,1.6,1.2-1,.2-.3,1.8-.6-.7.5-1.3-.5-.7-4.1,3.5.3-.9-.3-.2-.6,1.8L15.5,82l-1.8-1.2-1.1,1.8,1.3.2-1.6.4,1,1.1-1-.5L12,85.7l-2,3-5.5.8-.2,2.7h.5l-1.9,1,6.2,4.7,1,1.4.6,2.9,2,.8,1.1-1.4V103l1.9-.4.3.6-.9,1.1,1.4,1.5v-1l4.2.9L17.9,107l-2.4-.7-.9-1.3.4,1.3v1.1l2.5.3-.5.8-1-1-.7,2.2-4.5-.7-1-1,.7-.5v-1.7l-.4-.3H8.3l-2.8,2.2.6.8-1.8-.2L0,111.4l1.8,2,2.8.5-1.7.7,1.9,3.8,3,.9,3.1-.9,1.2,1,.2-.6-1-.7h.8l.9,2.2,2.3-3.4,2.5.4-.4,1.5H16.1l1.5,3.6-.6,2.3-2.9.3-1.8,2.5-1.7.3-.9.7v1H8.3l-2.2,2-.6,2.7-.9.6.5.6-.6,1,2.3-.8-1.6,1.3H6.6l-.3.8.5,1.4.9-.5.7.3-.3.9h2.3l-1.8,3.2.3,1.4h1.5l-1,.4.7,1,2,.3,1.6-2.7-.5-1,.7-1.3,1.9-1.4-2.1,2.9,1.6,4-.7,1.7,1,.7-.4.5.4,1-1.3.8,3.3-1.5,1.1-1.8V150l1.7.2,1.5,2.5.5-.5-.3-1.2.9-1.3v.8l1.1,1,3.2-2.3-1.5,2.7-.4,1.3h.5l-1.7,4.9-1.2,1-.5,1.3-3.6,2.2-.8,2.2.6.5-2.4-1-5,4-.3.2.5,1.2.3-1.2,1.4.3-.2-1,.5.9.9-.2,1.2-2.3h.3v1.1l4-2.2.4,1.4.5-1.7,2-.7-1.2-2,1,.9,2-.9-.4-.3,1.3-.3v-1.1l2.5-1.2v-1h-.3l1.9-1.4v-.8l.8.2.9-1.4,2.2-1-.4-.7.5-.8,1.7-1.7-.9-1H33.2l.5-1.7,3.4-3.2L36,143l1.3.3,2-3.7,2.6-2,1.2-5.6v2.6l-.9,3h1l2-1.5-1.7,2.4,2.3,1.2-3.2-.7-2.2,1.4V143l-1.2,2.8.7.7,1.5-.8-1,1.6h-1l-.4,1,.5.6,1.9-.6,1.5-1.7-.2,1.2.6-1.5.8-.2.3-1.3.2,1.2.4-2,2.2.5,1.2-2.9-1.4.4.8-1.4-.9-.3,2.1-2.6-.3,2.1.4-.4v-1.2l.7,1.1,1.9-.5v1.1h1.1l-1.1.7,1.5-.5-.6.9h1.4l-.2.6,1.3,1.2.7-.8,2.4,2.5,6.4-.2v.8l1.7.7,1.7-.3.9-1.4,1.2,1.2-.4.4v1.1l-.5-2.2-.3,1.9-.6.5,2.9,2,1.8-2-.4-.5.6.5-.9,1v1.7l1.5,1.5v.7l2.3,1.6,1.2-.6v-.7l-2.2-2,.4-.5,1.5,1.1.4-.8.7,1.9-.2.8.9-.4.4,1.2h.4l.3-.9-1.1-3.6.2-1.2,1.7,5,1.5.8.6,1.2.8-.8-.3.7-.4.3.4.8h.4l1.2,1.7-1.3-1.1v.7l.4-.2v1.2l.7.2-.8.7,1.5.3.3,1-.8-.7.5.9,1.2,1,.5,1.3,1.4.9-1,.3-.7,2,.3.7.9-1.5,1.6-1.1.6,3.7h.6v.9l-.9.5.2,1.2,1.8-1.2.2,1.7h-.7l-.2,1.2,1.2.8-.3,1.2,1.8,2.3h.6V178l.9,2.3,1.1-.2v.8l.9-.3.3,3.5.8-.7v1.1h.4l-1.1.3.8.6h-.8l.2.7,1.2.9,2.2-.4-.3.5,1,.7-.4.7,3.6.5-.3,1.3.3.7,1.1.5.6-.2v-.8l.8,1.4v1.1l1.1-1.1v1.7l1.3.2-.9.4.5.6,1.2,1.2-.6.9.5.5.3,1.6-1.6,2.1-.3-.6.8-1.5v-.8l-4.4-1-.4.6,1.4,4.8h.3v.8l.4.3v.9l-.4-.5v1l1.9.7-1.7.4-.6,9.9-.6,1.9a34.1,34.1,0,0,0,1,5.4l-.7,3.7,1.3,2.2.3,2.8,1.7,2.7.8.5.3-.8h1.2l-.9.7.6,1.4-.7-.9-.2.4.5,1.6,1.2,1-.2,1.7,3.1,4.1v1.6l4.8,1.7.5,1,1,.4,1.4,1.5.5,2,1.4,2.2,4.9,4.6-.9-5.1,1.8,1.5h.9l1.5,1.2,1.1,3.7,2.1,3.8,1.9,2.1,1.2.3.3,1.7,2,2.6a24.4,24.4,0,0,1,1,2.4v.7l.7-.2,1.5.5,1,.9v1.2l2.3,1.9,1.4,2.2,1.7,1.5,1.2,3.7-.6,1.4.4.6-.9.5.5,1.7a14.1,14.1,0,0,0,3.7,2.7l1.2,1.3,3.5,1.1,2.3,2,5.4,1.8,2.3,1.6,3.7.9,2.7-1.5h1.1l2.6,1.2c1.8,1.7,3.6,3.4,5.5,5l3,.5,3.4,1.5h1.2l.9-.5h.6l.5,1H195v.3l4.3,4.9L199,316l.6,1.2,1.4,1,.2-.9-.5-.3h.6l1.1,1.5,1.8,1,.2,1.5.8.4v-.7l.6.8.3.7.3-.5,2.5.3,1,1.5.8-.3.3,1.5h.8l1.1-.8-1-1.2.2-.7,2.9-2.2,2,1.6h.9l-.7,1.2c.6,1.3,1.3,2.6,2,3.9l-.2,6.8,1.3.2-1.4,1.7-.3,1.2-2.2.6V339l-.9.5.3.7-2.9,1.6v1.6l-.8,2.3-1,.9v3.3l1.2.9.9-1.2.3,1-.2,1.3a26.5,26.5,0,0,0-3.3,3.4l.4,2.3.5.7-.5,1,2.8,2.4,1.2,2.7,1.4,1.3,2.9,8.4,3,4.9.2,2.6,2.8,3.1,3.3,2.4,3.6,1.5,4.3,3.8a42.5,42.5,0,0,1,.6,13.3l-.8,1.2.3,5.7-.6,1.5v3l-1.8,6.2.3,3.1-.8,1.1v1.2l.6,5.6-.5,4-3.1,9.4h-.6l.2,1.7-1.1.5a23.2,23.2,0,0,0,.6,7.4l-.7,1.3-.5,5.2,1.1,1.4,1-.9,1.7.4-1.2,1.1.8.2v1.7l-.3-.7-.4.3.4.8-.6.4.2,1-.8,1.7.5,1.2-1,1.3,1.3,1.1v1.3l-1.7,1v.8l.7.5-1,.4v.5l.9-.3-.6.6.4.2-.7.5-.2,1.2.8-.9-.3,1-.9,1v-1l-.5.7-.4-.3.2-.7-.4-1h-1.8l.6,1.2-1.9,1.3-.2,1,.7.5-.2-1,.6-.3,1.1.8H227l.6.8-.3.5.3.3-1.1.9,1.1.4-.2.9.7-.3,1,2-1.8-.7v.9l-.9-1.1.4,1.7h1.2l.3.8-1.2-.3V494l1.1-1.1-.3,1.3.3.7-1.1.3-.8,1.9,1.7,1.5-.6.4v.5h.8l.2.4-1,.2v1l1.1,1.2.3,2.7.5.2-.3-2.1.8,1.9.2-.7-.2-.7,1,.4-.8-1,1.3,1-.5.8.6,1.2-.7,1.3h2.9l1,1.4-.6,1.1-1.8,1.4-.2-.7-.3.2.2,1,1.4,1h1.3l.7-4.5,3.8-2.4,2.1.4-1.5-2.7-.9-.4.9-.3-.5-2h-.6l.9-2.5,1.5-1.1-.5-1.7.7,1.3,1.3-.6.7-3.8,3.9-3.5.6-2.4-.3-1.6-2.3-.5-1.3-1.5-.7-1.5v-.9l1.7-2.7,1.6-.8H248l-.2-1.2,1.1-1.3v-2.9l.6-1.1,1.5-.9-1.6-1.2,1-.6.8,1h1.2l.3-.8v-1.2l-.3-.7-1.3.5.5.6-.9.2-1.3-1.3-.4-4.2.6-.7,2.8,1.7H254l1.3-.7.5-.9v-2.3l.7-2-.6-.8v-1.5l.6.4,2.4.2,7.2-1.8,1.1-.9.4-1.2,1.6-2.5.2-2.5h-.9l-.8-1.4.5-1.7-2.8-2.3-.2-1.9,1.3,1.4h1.7l2.4,1.2,3.2.4,1.9-1.1a19.4,19.4,0,0,1,4-5.5l.4-1.8,2.9-2.6a20.6,20.6,0,0,0,3.1-6.3l2.8-3.3.2-3,.4-.3-.5-.9v-2.3l.9-2,3.9-4,4.9-2.4.4-.9,5.5-.3.4-1,2-1.5.5-2,2.9-5.1.5-3.5.9-1.5a28.3,28.3,0,0,0,.3-8.7l.5-3.4,1.8-1.2,2-4a27.1,27.1,0,0,0,5.1-6.1l.9-5-.7-3.7-.7-1.3-3.9-.5-5.8-5.1-1-.5h-4.8l-4-1.5-2.1,1,.3-1.1-1-.4.4-.7-.8-1-1.1.6-.3-1.1-4-1.6h-2.3l-.9,2-1.2.6-.9,1.9-.2-1.6h-4.7l-.3.5v-.8h1.9v-1.3l-.7-.5.5-.7-1.4,1-.3-2,3.2-3.7.5-1.7-1.2-.5-1.7-5.7-.8-.7-.3.5-.6-1.2-2-1.6-2.9-1.4-.5.3v-.6l-2.3-.5-5,.3-1.7-2.2-1.9-.5-.4-2-2.2-1.8h-.6l-.9-.9-.9.5h-.9l.4-.7-.4-1.7-1.9-1.2h-1.5l-.6-1.1-.8-.4,2.2-.8h-5.1l-.3.2,1.1.3-3.2.8h-1.3l-1.2-1.1-4.5.3-.9-2a18.9,18.9,0,0,1-3.4-.9v.2l-2.6.7-1.6,1.1v1.2l1,1.5V319l-1.4.8-.9-1.6v-1l.9-1.9-.6-2.3,1.2-.7-.9.2h-1.4l-2.3,1.1-2.2.2-.8,1.3-.2-.5h-1l-1.6,1.4v2.5l-2.8,2.4v1.7H220l-.6-1.2.2-.5-1.9-1.9-2.6-.6H214l-.6,1.3-.6-.5-2.4,1.1-2.4-.5-.4-1.1-2.3-2a34.5,34.5,0,0,1-1.4-3.4c.2-1.6,0-4.8.7-6.2,1.9-4.1-3.1-6.3-6.1-6.1s-4.4-.2-6.7,0a12.3,12.3,0,0,0,1.2-2.6l.4-3.6-.7-.6.6-1.1h.3l-.2.9.6,1.1.8-3.3-.3-.3.3-.5-.3-.2,2-4.4-.5-.8-1.2-.2-.6.5v-.7h-.8l-5.5,1.7-1.1,5-1.2.8.2.8-.8.6-2-.7-4.9,1.5-1.4-1.2-1.5-.5-1.1-1a21.9,21.9,0,0,0-2.7-5v-1.5l-1.2-1.9a29,29,0,0,0-.3-7.2l.6-1.8,1.2-.5v-1.1l-.7-2.5v-1.2l-.5-.3h.7l-.2-1.6,2.1-1.8v-.9h2l1.2-.6.6-2.7.6.5-.3.5,2-1,4,.6.7-.6,2.8,1.8h1.6l.4-.8,1.4,1.3.6-.3-1.2-1.4.8-1.6-2.3.2-.2-.9,5.1-.2.6-1.7v2.1l2.2-.9v.4l1.7-.2,2.6,2.4,3.1-1.2,2.9,2.8v4.1l.6-.2-.3,1.5.9,1.5h.5l.7,2.8,1,.5.6,1.9,1.8-.7.5-2V270l-3.5-11.1,1.6-4.7.9-.6-.4-.8h1.6l2-1.8.9-1.7,2.6-1.2.9-1.3,2.5-1v-.7h-.7l.7-.8-.9-.6.7-.3,1,.7.9-1-.3-1-.4.8-.2-.8h-1.5l.2-1.2.3.8,1-.5.7.4-.5-2.7-1.2-.2.6-.3-.4-1.9.3-.6-2.5-2.1v-.5l2.3,1.5-.4-1.1v-2.6L223,230l-.9,2.1.5.2-.4,1.5,1.4,1.5-.7,1.7.3,1,2-4.7-1.3-3.5,1.6,1.3v.9l1.6-2.4.6-1.8-.6-1v-.7l2.8-2,3.5-.5.7-1.2.5.7,2.8-.7-.2-.8v.8h-.8l-1.6-2,1.9-5.1,2.6-1.1.8-1.9,1.2,1.1,2.9-1.7.3-.4-.3-.3.2-1.2,3.4-.3,2.7-2.6.4.4-1.2,1.3.2.5h3.5l-2,1.2-.6-.9-4.1,2.9.6-.2-.6,1.5v1.3l1.5,1.2,2.8-3,.5-1,1.2.3v-.8l1.7-.2,4.6-2-.9-.3v-.7l-1.3-.4-.2-.8-1.8.8-3.1-1.1.5-.5-1.9-.7-.5-.8-.3-2.2-1-.2,1.2-2.5-.8-.5-1.4.7-.3-.9-1.8-.3,1.7-.7,1.5.5,2.3-2L251,195l-1.6-1-3.8.2-4.3,2.3-2.9,2.6-2.8,3.8-.9.5,2-2.5,1.2-2.7.9-.5,1.2-2.2,2-1.8,1.9-.2,1-2.5,1.4-1.2h9.9l1.5.7,3.5-1.3-.2.4.5.2,4-4.4,4.3-.9,2.2-2.7-.9-1h.9l-.9-.8.6-.4-.3-1.7-1-.6h1.5l-.8-1.3.3-.4-2.4-1-.9,1.7v-3.5h-2l.9.4-2.3.3-4,3.3.2-1.1-2-.9.6-.5,1.7.8.6-1.1,2.9-1-1.7.2,4.8-2.2-1.6-1.9-.7.9-1.1-.4-1-1.7-1.1,1.5.4-1.5-.4-.5-1.9.4.5-.9-.2-1.5-2.3-.6v-1.5h-1.4l.4-.5-.6-.8.5-.5-2.8-.4,1.8-.3-.4-.5,1.5.6v-.6l.9-1-1.2-2-1.2.2,1.3-1.1-.9-1.5-.9.2.6-.7-.5-.7-1.5.6,1.5-1.7-2.4-.6,1.7-.8-1-.8.2-1.3-2.6.4,2.2-1.3-1.6-.8.6-.7-.9-.2-.3-1.7h-.6l.3-.8-.4-1.3h-.8l-1.7,2.8.7,1.5-1,.9v.6l-.3,1.4h-.9l.8,1.1-.6,1.2v-1.3l-.9-.7-.7,1.8-2.4,1.9-.3-1.7-.3.5v-1.3l-.9,2.5-1.7.4,1.7-.6v-1.5l-.5-2.1-4.7.9,1.1-.6-.3-.9.9.7,1.1-.7-.6-1,.6-.6L238,148l.6-1.5-.6-1.4-3.8-.8,4.4-.2-.7-2.3.7-2.2-.6-.9-1.1,1.2-.4-1.2-3.2-.3-.6-1.9.7-.6-1.7.3.4-.7-.4-1.5-1.3.7.4-2-2.9-1.8-3.1,1.8-5.8-2.3-1.6,1.8.2,2.5,1.6.4-1.7,5,1.5.5-.7.4v1.3l.6,1.3-.4,1h1.2l-.6,1.5.9.5h-1.5v1.8l-2.6,1.1v1.3l3,2.7a46.2,46.2,0,0,1,1.9,9.7l.7-1.3.6,1.5-1.3.3-2.2,4-4.8,3.7,1.6,2.7.6,6.4.9,1,1.1.2h-1.2l-1.5,1.7.9,1.3-.5,1-1.4-1-.3.3-.4.2v1.4l-1.7-1.1-1.8,1.4,1.4-1.9-.4-1.3-1.2-1.4h-2.3l1.7-1-2.1-3,.3-1.2a29.6,29.6,0,0,1-.3-8.4l-7.2-.6-1,2,.8-2.5-1.3-1.4-4.1-1.3-1.3-2.4a42.4,42.4,0,0,0-7.2-4l-4.2,1.7,1-1v-1.7l-1.9-6.3-2.3-.3-.3,1.5v-1.5l-1.4-1.3.3-.9V142l1.4-3.8-.9-1.2,2.5-1.3.4-1-.3-.7h.6l.6-1.5.9.7v-2.8h1.6l-1.1-1.6,2.3.2,2-1.2-.6-2.8-2.2-1.4-1.2.9.3-.7-2.7-1.5-.2.6-.6-.6.5-.7,3,1.7,1.6-.4,2.1,2.1,1.4-1.2v-1.7h.5l-.2-1,1.9.9,2.5-1.1,2.8-6.5-5.2-.9-2.7-3,.3-.5,3.3,1.3,1.7,2.2h1.7l3.1-4.6-.2-1.3L197,107l.4-1.4h2.8l.5,2.1,1.5.3v-1.2l1.7,1.4-.9-2.6.3-.8,1.5,2,1.9-1.3,3-4.2.2-1.9-2-2.8.3-2.2-.8.3V93.6l-.7-1,1.2-.5.5,1,1.2-1.4V90l-1.5-.3,1.5-1.8-2.3-.9-1.1-1.7.5-.3-.3-1.5-6.7-.9v3.9l1.8,1.8-1,1.4,1,.7-2.6.8v2.2l-1.8,4.4v2.1l-1.8,1.2-2.6-4.8.4-3.4.2,1h.7l-.9-4.3-2-2.8h-1l-.8,1.5v2.6l-1.2,2.9-.6-1.7.3-2.1-2.3-4,1,.4.2-1.6-4.4-1.1,1.8-2.4L183,79.7l2.2.4-3.6-5.4v-4l-1.6-2V66.8l-1.7.7-.4-.8.2-1.1Z" transform="translate(0 0)"/>
  </g>
  <polygon class="cls-3" points="824.6 462.8 825.9 461.1 827.2 463.8 828.8 462.7 828.9 462.7 828.8 463.8 829.2 462.8 829.7 463.2 829.4 463.7 829.7 465.7 827.5 469.4 826.3 470.5 826.2 472.2 826.9 473.2 825.4 472.6 823.7 473.9 823.1 473.6 821.3 481 818.7 483.1 817.1 483.7 814.2 482.5 813.9 481.6 811.6 481.6 812.1 480.6 811.4 481.3 811.6 480.6 811.1 480.6 812.1 480 812.2 479.3 811.8 478.9 812.1 478.3 812.8 478.3 812.4 477.9 812.5 477.1 813 476.8 813.4 477.3 813.4 476.4 815.1 473.7 817.3 473.1 821.7 469.2 822.9 465.7 824.2 464.7 824.6 462.8"/>
  <g class="cls-2">
    <path class="cls-3" d="M826.5,440.8l.6,1.7.4-.3,2.3,1.5.7,1.8h-.7l1.4,1.9-.3,1.5h1.2l.5.9v-2.2l.8.5.6,3,2.6,1.2,2.3-1.5,1.1.5-.5,3-.8.4v1.5h-2l-.7,1,.4,1.2-.9,2.2-2.7,3.9-1.9-1,1.1-2.1v-1.8l-3.4-2.7.5-1,1.4-.8.4-2.4.3-.2v-2.3l-.6-.7.5-.7-.8.2-.5-1v-1.7h-.6l.2.5a12.4,12.4,0,0,1-1.7-2.7l.3-.6-.5.5L826,441Z" transform="translate(0 0)"/>
    <path class="cls-3" d="M684.4,403v-.3l.2,2.2.9-1.9,2.2-.8,1-1.5,2-1.4,2.3.4,2.6-1.2.9-.9,1.1.2,3.4-1.2,1.4-1.1.7-1.9,1.3-1.3-.5-1.5.5-1.2,1-.9.3-.8,1.6,3v-1.2h.5l-.6-1.3v-1l1.1-.2.4.9h.8l-.3-.6.6-1.4-.2-.8,1.3-.2-.2-1.2.8.4-.3-1.4,1.3-.3v.5l.7-.5v-1.5l.3.6,1.8-1,1.7.9,1.4,1.5-.6,2.5.7-1.5.8-.7H721l1.2,1v-.6l.3-.4-.9-1.2,1.2-2.3,1.1-.2v-.6h-.3V378l.9-.7.8.7v-.9l.4-.5,2.5.2,1.2-.7V375l-2-1.1.6-.3.3.3h.3l1.1,1,.3-.5.6.8,1.6.2,1,.8h1.4l1.1.6,1.8-.8-.3.5h.5v1.2l1-1.7.4,1h.7l-.9,1.4.3.5-.3.5-.6-.2-.2.8-.4-.5-.3,1.4.4-.2-1,3.5,1.8,1v1.7h2l2.2,2,2,.5.7,1.1,2,1.4,1.9-.7a39,39,0,0,0,1.8-6.7l-.3-3.9.6-2.8-.3-.5,1.5-3.9,1.1-.8a13.3,13.3,0,0,1,.3,2.8l.6.5v1l.8.9.9,4.5.6.5,1.4-.5,1.9,2,.4,4.4.9.8.6,4.2.5.5.2,1.2,1.2.7h1.4l.4,1.5,1.3.2,1.6,1.1-.3,1.1.8.5,1.1,1.8.4,2.9.6-.2.4-1L773,405l.3-.5.4,3.2,3.6,3.4,1.8,3.3v4.1l1.1,4.7a48,48,0,0,1-2.6,11.2l-2.9,3.7v.9l-1.4,4.3-.3-.3-.9,2.2-.6,5.5-1.5,1-2.9.4-3.3,2.7h-1.2v.6h.6l-.3,1-2.1-2-.3-1.1-1.4.4.4-.9-.4-.8-1.1.7.6.5-3,2-2.3-1.4-1.6-.5-.7.4-2.6-1.5-1.1-1.5-.6-1.6v-1.3l-.3-1.3-1.1-1.6.3-1-2.9.7.8-1.2v-1.5l-.9-1.8-.9,3-2,.2v-.9h1.1l.2-2.4,1-2,.3-1.2-.6-2v1.3l-1.3,2.6-2,1.1-1,1.7v1.4l-2-1.4v-.5l.7.5v-1l-1.5-3.5-1.6-.9.3-1.1-2.1-1.4v.4l-1.8-.9-.8.4-1.5-1.4-1.8-.3h-4.2l-2.7,1.6-4.8.5-4.9,2.5-1.1,2.3-8.7.4-1.5,1.6-1.3.2-1.5,1.5H694v.5l-4.3-.8-1.4-1.7-1.1-.3v-2h1l.6-1.4v-4.7l-1.7-4-.3-3.4-1.9-3.7-.6-2.7-1.7-2.5.5.2.5,1,.6-.3-.3-1.4.4,1,.6-1-1.9-4.7v-1.3l.9-1.7-.2-3Z" transform="translate(0 0)"/>
  </g>
  <polygon class="cls-3" points="759 461.5 759 463.5 760.9 467.2 760.6 467.7 760.1 466.7 760.6 468.9 761.6 470.6 762.6 470.9 762.1 471.6 764.1 471.9 764.5 470.6 765.2 470.7 765.8 469 766.7 468.9 767.5 466.2 767.6 463.7 767 462 763.3 463.2 759 461.5"/>
  <g class="cls-2">
    <path class="cls-3" d="M750.3,368.2l-3.2-2.8-2.3.2-.2.5h-2.7l1.2-2.5.9-.2.8.5-.5-.8.5-.2-1.1-.6.5-.9-1.6-3.2-3.5-1.6-3.7-.9-1-1.2-.8.2-1.4-1.2v-1.7l-.9,2.6-1.2.3-.3-1.8-1.1-1.1h-.9v-.4h1.7l1.2-.7,1.1.2.3-.2.3-1.2-3.7.7-.8-.3-.6-1.6-2.1-.5.7-1.3,2.8-1.3h1.2l1.2,1h1.6l.4,1.3v3l.6,1,.2-.6h.3l.6,1.5.8.6h.9l2-3.1H740l.6-1,1.4-1.1,4.3,2.4A50.3,50.3,0,0,1,758,354l2.7,2.1.9,2.4,4.3,1.7.5,1.7-2,.3.6,1.5,1.7,1.7,1.5,2.3,1.4.2.2,1.2,1.8.7-.5.5,2.5.8-1.2.3.7.4-.7.5-.9-.7-5.3-1-2-2v-.5l-.7-.2-1.1-2-4.3-2-.8.5-.7-.4v1.1H756l-.2.5-1.2.5.9,1.4-1.4,1Z" transform="translate(0 0)"/>
    <path class="cls-3" d="M219.6,285.1l1.3,1,2.4.7v1h2l1.7,1.4-2.8,1h-5.5l-.3-.2,1.7-1.7-2.5-.5-1.5-2.3-2.9-.3-1.5-1.2-3.6-.4-.3-.5,1-.5-.5-.3h-2l-1.1,1-1.5.3-1.5,1.2-1-.3,1-.4.3-1.5,1.2-.8,3.2-1a27.5,27.5,0,0,1,5.7.5l1.7,1.5,2,.3,1.5,1.2Z" transform="translate(0 0)"/>
    <path class="cls-3" d="M134.1,271.5l.9.6.6,1.6-.3,2.8h1l3.3,3.2,1.3,2.2,1-.8.2-1.1-1.9-2.1-.4.3-.5-.3-2.3-7.1-.6-.3h-.6a49.1,49.1,0,0,0-2.8-6.2h-.6l-.4-1.2-1.7-1.5-.5-1.2-3.8-1.9v.6l.5.4.5,2.1,1.6,1,2.2,2.8-.2,2.2-2-.2v.4l3.4,2.7h.6l.5-.6.3,1Z" transform="translate(0 0)"/>
  </g>
  <polygon class="cls-3" points="536.3 48.9 539.7 45.4 542.1 46.5 539.7 44.5 541.1 44 540 43 542 42.7 540.7 40.5 543.5 40.2 541.1 39.5 541.7 37.5 540.7 37.5 540.6 36.5 540.9 35.1 542.1 36.3 545.5 33.9 548.6 28.4 552.7 24.9 553.2 25.2 552.5 26.5 554.1 25.7 554.1 23 557.5 24.5 562.1 22.8 569.4 15.5 572 16 573.4 19 572.8 20.8 573.4 20.8 571.9 24.5 560.8 30.4 560.2 29.4 554.8 36.1 552.7 36.1 552.4 37 553.3 37.8 552.1 40.2 550.2 39.5 551.3 41.7 549.2 40.5 549.6 41.8 548.9 43 547.3 41.3 548.6 44.7 547 47 545.6 44.5 545 46.4 546.4 47.7 546.3 49.2 543.8 48.4 545.5 50.4 544 49.9 544.7 52.1 543.7 53.9 539.8 52.2 537.4 52.9 539.7 49.7 537.1 50.4 536.3 48.9"/>
  <polygon class="cls-3" points="536.5 53.6 539.7 52.6 543 54.8 541.2 56.8 542.6 56.4 542.4 57.5 540.7 58.5 541.7 58.8 540.6 61.1 540.6 65.5 542.1 71.6 545.8 75.4 544 76.3 545 76.6 544.6 77.1 543.5 75.3 542.4 75.8 543 76.6 540.6 75.6 539.8 76.8 538.8 75.4 539.4 75.1 536.6 74.9 536.3 73.1 537.8 72.6 536 71.2 537.1 69.4 535.7 70.9 535.7 68.9 531.4 68.5 530.9 66.9 531.2 64.5 533.1 64.7 534.8 59.8 534.3 60.3 533.4 58 535.5 56.8 534.9 56.4 535.4 56.1 534.9 55.1 536.5 53.6"/>
  <g class="cls-2">
    <path class="cls-3" d="M400.8,188.5l2.2-.7.4-.8,1.4.6,4.3-.8,1.1-1.5-1.7-.2-.3-.6,2.4-2.7.2-2.6-1.1-1-2.9.5.8-2-1.7-1.8,1.2.5v-.9l-1.8-3.3-1.3-.5-1-4.2-2.5-2.2h-1.7l1.5-1-.7-1.2.7-.2a16.9,16.9,0,0,0,2-4.3v-1.4l-5.5.7-.3-.7,1-.6-.6-.5,2.3-2.2v-1.4h-.4l-3.9.5-.4,1.5h-.6l-.2.7.5.7-1.3.7.3,1.3h-.4v.8l.8.4-.8,2.5-.8.3,1.1,1.2,1.1-.7-1.3,6.1,1.1-2-.3-1.2.8-1-.3,1.7.7-.9.6.5-.4,1.2.4,1-.7,2.5h-.5l.5,1.2.3-.8,1.1.8v-.7l3.1-.5-1.4,2.1,1.1,1.8,1.2-.7-.8,2,.5.2-.5,1.2.3.3-2.1.4-2.2,2.1,1.4-.5.5,1.9-.5,1-2.7,1.8.6,1.1,1.4-.7.3.8,1-.3,1.1,1.2,2.2-1.2-1.3,1.8-2.6.4-3.5,4.7h1.1l1-1.4,2.5.4.6-1.5,1.5-.6Z" transform="translate(0 0)"/>
  </g>
  <polygon class="cls-3" points="391.9 173.5 393.3 172.2 393 171.2 393.3 171.9 393.5 171.4 392.4 170.7 392.5 169.3 391.9 168.2 389.5 168.8 389.9 168 389 167.5 388.5 169.2 388.4 168 387.2 168.5 385.6 170.5 387 170.8 386.1 172.5 383.3 172.2 382.9 173 383 173.7 382.4 173.7 383.6 174.5 382.6 175.6 383 176.6 385.2 177.2 383.2 179.9 385.3 178.9 385.8 179.6 383.6 180.1 382.9 181.4 381.8 181.6 382.9 182.1 382 183.1 383.5 183.1 382.4 184.1 383.8 183.6 383.3 184.6 384.4 184.5 388.6 181.9 391.3 181.8 392.1 178.4 392.1 175.7 391.5 174 391.9 173.5"/>
  <g class="cls-2">
    <path class="cls-3" d="M488.8,369.1l1.2,1,.5,3.2.7,1-.7,2.3.4,3.1,1,2.3-1-.8-.6.3v-1.2l-1.4-3.8.6-1.7v-3.5l-.8-1.2Zm-11.2-16.6c.6,2.2,1.2,4.5,1.6,6.8l-.4,1.2,1.7,1.5.2,1.2,1.2,3.2-.3.5-.9-.5a29.3,29.3,0,0,0-.5-2.9l-1.7-1.3-.8-1.5v-2l-.5-1.5Zm9.5-9.8,1.9.4.3,1.4h1.5l-1.4.6-.3.7.3.5-2.1,2.9,1.1.5-1.8.7-.4,1-.2-.9-.4.2-.9-1-.2.8-.7.5-.4-1.8a40.3,40.3,0,0,1,.5-5l1.7-.9,1,.3ZM587.7,203.6l7,.5.9.7,1.9-1.2.3,1-.5.5-2.3.4-5.8-.7-.6-.7-.3.9-2.3,1.6-.5,3,.7,1.5h-.5l-1.6-2.3V207l.2-.7Zm-32.2,0-1.6,2.7.5,1.7,1.4,2.3-.3.9-1.1.5-1.8,3.6-1.1.4-1.4-.8h-2.5l-.4-4.7,1.5-3.2,1.4-.5v.7l.4-.2.5-1.6.3-.2.3.9,2.1-.2-1.7-.7.3-1.2.5.7.8-.9.3.9Zm-25.8-1.8,2.1.8,2.1-.5,1.3,1.2,1.9,3.5,1.7,1.5.2.7h-.4l.2,1-6-1.2-.6.8h-1.4l-.3.7.6,1.7h-3.4l2.1,2.2.8,2.8,3.3,1.6-.5,3.2.8,2.3-.2-1.8,1.8-1.2h.7l.7,1.6,1.7,1.7-1.2.9.5.4-.5.3-2.9-.5-.5-1.1-.3,2.6.3,1.4,1.2-.5.5.5-.5.5,1.3.6-1.3.9,1.7,1.2-.6,1.6a49.5,49.5,0,0,0,.6,5.4l-1.8.2.8-.3-4.8,1.1-2.3-1.1-1.4-1.6-2.5-.6-.6-3.1V231l1,.5.7-3.9.8-.8,1.1.3-.3-.8-1.6-.3-1.5-2.9-1.5-1.7-1.8-4v-3l-.3.9-.8-1.9-1.2-1.6,1.5-2.7.3-1.6.4.2.2-1.7-.4-.7.9.2.8,1.6,1.1-1.5,1-.5-1-.8,4.1-.9Zm143.8-35.5.6.7-.9,6.4-1.1,2.7v-.9l-1.1,1.4.7-.2v.8l-2.1,2.5-3.7,2.1-1.8,2.8-2.5.8-2.1-.6,3.3-1.2,2.2-2.8,3.7-3.1-1.7.9.4-1,2.3-2.9,2.9-7.7ZM481.3,135.4l3.4,2.5.9,1.9v1.6l-.9,2.1-1.5-.2-1,1.5h-.9l-.3-2.5-1.4-3.4h-.5v-1.6ZM660.2,6.7l-2.6,1-4.2,6.6-1,3,1.2,2-.6-.2v1.4l-5.5.8,2.2,2.6-.2,2.5-5.3-1.6-1.4,1.7-3,1.2.3-1.2-.7-.3-1.6,1.5.9-2.5-.8-.6L631,25.7v1.2l1.4-.2-.2,1.2-10.1,3.8-2.9,3.9h-2.6l1.9,1-1.4.7-.8,3-2.1-1.8-.5,1.6,2.2,1.2L614,43.1l2,1.2.6,1.9h-.7v1.4l-13.6,2.7-1.1.7.6.6-1.2,1.4.6.5-.6.8,1.7,2.5-.5,1.7.3,2.4,3.4,1.8v.7l-.3.8,2.9,1.8.5,2.1-.9,3,1,4.7v2.4l-1.3.6v1.7l-2.3-1.7a21.7,21.7,0,0,0,0-7.2l1.8-1.6.7-2.4-4.3-.5-1.7-2.7-3.7-2.7-4.4,1.5-.2,1,1.7.7-2.1,2.2h-.9l-1.1-2.1-.9.6.7,2.7,2.9,2.4,1-.8,1.2,3.5-7.4-3.2-.4-.7.7-.3V68l-.7-3.2,1-2.3-.5-2,.5-.4-1.4-2.9-.7.4.6,4.9-4,3.6-.7,2.6,3,7-1.7,6.4.8,3.1-.3,2,3.2,1,2.3-1.2s3.4,1,3.8,2.7l1.3,4.2-1.4,1-.2,2.5,3.2,1.3-2.7.4-1.2-1.4.4-3.1-.4-.7.3-1.5-1.4-1.7-.5-1.9-4.9,1.7-.6,2.6,1.1,2.8-.2,2.2-1.8,2.3-1.1,3.2-2.8,1.9v2.1l-.5.2L576,107l-.2-2.2-.6-.7,1.7.5,3.5-1.6-1.3-1.5,1.8.3,1.2-3.1,1.1-.8v-3l.8-2V91.5l-2.3-3,.4-6.2-.6-3.4.8-1V74.2l-.4-2.7L580,69l2.1-6V58.4l-7.9-1.8a41.7,41.7,0,0,0-2.2,9.9L568,70.9l-.3,1.8h.9l-1.2,2,2.1.9-.6,3.2.4,1.6-.9.4-.2,3.2,3,.8v1l1,2.9,1.5,1-2.1,4.7L568.6,90l-7-5.4-7.2-2.3-2,1.7,1.5,3.7-.3,1.6-2.3,1.6.2,1.7-.9.9-1.1-.8.7-2-1.3-2.2L545.2,92h-4.6l-1.8,2.8-1.7-1.2-.3-1.8.4-1.5-.7-.4,1.8-1-2.8.7-.3.8.2,1.1h-.6l-.6-1-1,1.2.5.3-.5,1.4-.7-1.2-1.1.4-8.8,6.1-.7,2.8v1.3l-2.6,2.4-.3-1.6-1.4.2-2.3-4,.9-1.9,3.1-.8-.6-2.5-1.6-2L511.2,91l2.1,2.6a27.4,27.4,0,0,1-.8,7l1.7,2.4-1.1,4.5.2,2.7-.9-1.7-.9.5.4-1.3-3-1.7-2.2,3-3.8,2.9v1.8l2.3,5.4-5.6-2-1,1.2v-1.1l.6-.3-3.4-2.2-.9,1.7.3,1.2,1.6,2.2,1.3-.5,1,3.3-1.7.7-3.2-1.5-1.6-2-2.3-.5.6-1v-1.7l-1.3-2.9,1-.7v-2.8l-6.7-7.9,1-.5,2.6,2.6,2.2.2.2,1.2,10.5,3,2.9-1.3,2.8-3.4.5-2.3-.7-.5-.2-2.9L503,95.3l-3.5-1.4-6.3-6.6-5.9-.3-.5-1.3-.8.6.2-.8-2.3-1,.3-1.4,1.8,1.2.5-1.2-2.9-1.5v1.2l-.4-.2-.4,1.2-1.7-1.1-3.2.8.8-1.5-3-2.2,3.3.5,2.3-2.7L479,75.3l-1.6.3-.3-1.5-1.5.8v2.4h-1.4l.8-1.4-1.4.2.8-.7-.5-.5,1.1-.3.3-1.4-2-1-1.4,5.1-1.1.6V73.6l-3.7,6.8-.4-.4.6-2.7,1.7-3.1-1.5.5-.6-1.5-1.6,1.2.8,1.3-3.2,3.6-.2,1.8-.9-1,.2-.6-1.4.5-1.1-1.4-.3,1.2-.6-1.2V80l1,.3.2,2.8L458,80.8v.8l-1.5.5-.3.7.2,1.2-1,1.8a21.3,21.3,0,0,0,.2-4.4L454.5,83l-.4,2.2V82.6l-1.1.2-.3,2,1.1,2.1-1.8-2.4h-.6l.9,1.5-.5.5-.9-.5-.2-1.2-.4,1.5.2.7-1.5,1.4.8,1.1h-.4v.8l-2.9,1.7,2.6.5-.8,1-2.3-.3.2,2.6-.6.5-.7-1.8-1,2,.3,1.2-.8.8h1.2l-2.7.7-.9,3.4-2.2,1.9v.9l.4.2-.7.5.6,1.3-2.2,2.2,1.2-.7.4,1.2-1-.5v1.7l-.6.2.4,1.6-.9-1.1-.5,1.8.7-.5v1.2l-2.4,1.5-.2,1,.3.2v1.3l-1.1-.3-2,2.9v.8l-1,.6,1.1,1.9,2.8-1.5-2.9,2.5-.9-1.5-1.1.7.3.8-.4.4-.4-1.1-1.2.6-2.5,2.5-1.5.8,1.5,1v.7H422l.6.4-.3.5v1.2l-.6-1.1-.8,1.2.3.7-2.3-.5.2,1.2,2.8.2-3.3.8.7.7-.7,1.1.2,1.5h2.9l.5-1.4v1.1h1.2l1.2-2-.4,1.9.7-.2-1.4.8.2.9-.6.3-.5-1.2-3.8.9.5.5v.6l-.8-.3.4,1,1.3-.5-1.3,1.9.4,1,.5-.7.2,1-.4.5v.5l2-3.4h1.7l-.9,1.2-.3-.6-1.9,3.1,1.4.2-2.6,1.8.2.7,2.4-1-.9,3.1-.8-.4-.3,1.5,2,2.2.9-.5v1.5H425l3.4-2.9,1.2-2.3,1.4.4.6-1.4-.5-2.2.7.8-.2-1.5.5-.3.3,3.5,1.1.7-.2.7a14.1,14.1,0,0,0,.5,3.5l.6-.5v.5l-.6.7.8.3v1.2h.4v2.2l2.6,4-.8.7.3.8-.6.2,1.2,2.7-.4,1h3l.8-3.1,3.7-.4,1.7-6.3-.3-2.3.5-.2v-1.9l-1-.6,1.1-.3-1.5-.6,1.8-.3,1.4-1.8.9.7.9-1.2V148l.9-.3-3.3.3-2.3-1,1.7-.5,2.1,1,1.6-.9.8-1.8-1.3-2,.3-.2-2.1-1.8-1.7,2.3-1.5.4,2.1-1.7q-.1-3.5,0-6.9l.6.4.3-3.4-.4-1.5.7.3.5-.9V128l.4.8a22,22,0,0,0,1.9-3L456,123l2.6-3.7-1.1-2.5,1.1-2.1-.3-1.3,1.5-1.3-.4-1.2.9.8.4-1.8,3.7.8.3-1.2,2.9,3.2.6,3-2.1,1.1-.3,1.6c-1.8,2.7-3.6,5.2-5.5,7.8h-1.2l-.2,1.3h-.8l-.9,2,.6,2.4V133l1,3.1h-.4v1.7l-.5,1.1.5,1.2-.3.7,2.9,2,.8-.5.6,2,.6-.5.3.7,2.1-.5,3.7-2.2a38.5,38.5,0,0,0,6.6-1.3V142l-.5-.6.3,1.2,3.1.9,1.1,1.2-2.8-.2-2,1.7-.6-.6v1.5l-.5.2-5.2-1.1-5.2,2.3-.2,2,.8.4-.6.4.4,1.6,2-.2-.4,5.7-.5,1.3-1.8-.6-2-3.2-2,1-1.7,3.9v2.5l.7,4.5-.3,1.5-1.2-.5.5-.7-1.9,1.1-1,2.1-2,.9-.8-1.8.8.3-.4-.9-3.3.2-6.9,3.7-.3.3.6.2-.2.7-.8-.3-2.9-2.9-1.3.5.4-.9-2.7,2.4h-1.7l.6-1.7h-2.3l-.5-.7v-1.4l-.7-.3h.4l-.6-1,.6-2.3-.3-.6h.8l-.2-.8,1.1-.3v-1.2l.5.3.9-.8V162H431l.3-.8h-.6l1.1-3-.2-2.4-5.1,4-.6,2.5.2,3.9,1.3,1v2l.8,1.9-.8.8,1.1,2-1.2.6v2l-.4-1.1-.7.6-.4-1-.7-.2-1.1.2-.5,1,1.1,1-1.1-.2-.9-.8-2.9.8v1.5l.4.2-.6,1.5.2,1-1-.5v-1l.5-.4-.5-.8-1.9,4.4.3.7h1.3l-2.3.9,1,.5h-2a13.3,13.3,0,0,1-4,1.9l-.3,2.8-3.3,2.1-.3,1h.8l-3.6.4-.7-1.2-1.3-.2.9,4.4-2.8.2-2-1.1-3.1,1.2v.9l.9-.2-.4.5.4.5-.6.2.8,1,.9-.2,3.5,1.3.2.9,1.6.2h-.9l.2,1.5.6,1.2,1.7.9v2l1.1,1.8-.8-1-.5,2.9.5.3-.9,4-1.1.9-15.3-1.2-.6,1.3-1.5.2-.5,1,1,1.2-.3.7.3.7.3-.2-.3,1.8.3,3-1.8,7.6.8,1,1-.3-.4,4.8,3.5-.4,2,.4,1.4,2.7,1.4.7,2.6-2.2H402l1.7-2.6h1.4l.8-2.4,1.2-1.1v-.6l-.9-.6-.3-1.4,2.8-4.9,5.4-3.5.6-1.6-.5-.6v-1.5l.3-1.2,1.9-1.3,2.5.5,2.6,1.2,3.3-2.8,1.5-.4,1.5-1.7,3.3,1.5,1,3.4,1.5,2.3,1.1.2,3.3,3.8h1.7l1.6,2.3h1l.5,1.5,1.1.8.4-.5,1.4,4.4-.9.5-.3,1.5v1h.8l1.1-1.5.3-1.7,1-.5V230l-1.3-1,.6-2,1.1-.7,1.6,1,1.1,1.4.4-.9-1.5-2.2-4.7-2.5.5-1.5-.4-.4-2,.6a22.3,22.3,0,0,1-2.6-2.7l-1.3-3.8-2.6-1.9-.5-1.7.5-1.4-.5-.5v-1l2.3-1.3h1.1a14.1,14.1,0,0,1-.1,2l.5,1.2h.4l.9-1.8h.4l.8.9.5,2,.9.7-.7.7,2,2.3,2.2.4,1.5,1.4h-1.1l2,.7,3.4,3.4.7.3-.5,1.5v3.2h-.3a29.5,29.5,0,0,1,3.6,5.1v-.4l.7.4.2.3h-.9l.9,1.8h3.7l1.2.7-.6.4-2.2-.8-1.5.4-.6,1.3,1.2,1.7v1.3l.5.5.4-1,.8,2.1.8-1.2,1,1.2-.9-3.8.9.9.8-.7-.8-1.5,1.2-.2,1.1,1-.2-1.6-3.5-2.5,1.1-.2v-1.2l.9.6-1.5-2.8v-2l.6-.2-.2.5,1.7,1.9v-1.2l1.1,1-.4-1.4,1.2.6-1.5-1.4,1.8-1.2H467l4.5,1.2-1.4.8-.2,1,3.4-3,3.4-.2v-.9l-2.1-1-.3-1.3-1.2-2,.9-1V217l1.2-.9.5-1.4.6-4.4.3.7-.4,1.2,1.5-1.2.3-2.4h-.1v-1.5l.3.9,1.6-1.5-.7-1.4.9.9.5-1.4,2.9-1,.8,1.2h-1.4l.9.3-.4.7,4.4.5.4.5-3.1,2,2.1,1V212l1.4.5,3.7-2.7,2.3.4.3-1.6-3.7.5-.5-1.3-.9-.3.2-.7-.9.2.7-.4.5-.6.4.8V206l.7-1.2.4.7,1.1-1.2,8.1-2.5.5.6-2.2.9.2.5H498l-.2.6,1.9,1.7-1.4.3-1.2,2.3h-1.4l-.5.7,1.7,2,.6-.2,2.8,1.9,3.7,3.7,2.4,1.5.9,2.7v1.2l-3.2,2.5-2.4-.3-3.1.6-4.1-1.4-.7-1.4h-1l-1.2-1.3h-4.3l-2.5,1.1-2.9,2.5-4.6-.9-.5.9.3.5,1.7.5-2,.2h-.4l.4.7-3.2-.4.2.7-2.5-.2-.9,1.2-.6,1.9,1.7-.2-.3,1.2.6,1.2-.5.6.9.9H471l-.4-.9-.4,1.4,2,.8v1l.7.4-.3.6.8.7-.5.7,2.3-.2-2.1,1.3,1.5-.3v.5l1.3-.6.6.6.6-.3.4,1.3,1.4.5,1.5-.5.4-1.8.7-.2,4.6,2.9,3.1-1,.9-1.2.9-.2,1.6.7,1.2-1,.5.5-.7.7a39.2,39.2,0,0,1-1.4,13.6l-1.2,2.2a16.3,16.3,0,0,1-4.3,1.8h-1.3l-.9-.8v.6l-.4.2V257l-.6-.3.2-.4.8.7-.8-1-2,.2-1.3.5.5-.5-4.3,2-5-1.9-4.3-.4-.6-1-4.2-.9-.7-1.5-2-.7-2.6.4-2.5,2.3v1.4l.4,1.5-.6,1.3-2.3,1.2-3.1-2.1-4.4-1.1-1.5-3-3.3-1.5h-3.5l-2.3-1.2-.6-.2-.4-1.2-.7.4-1-.7-.8-.8v-.6l.6.2.2-.8,1.7-1.5.6-1.5-.2-1.2-.9-.7-.5-1,1.6-2.3-.2-.7-1.4,1-.4-.2-.2-1.3-1.4-.3-2.3,1.1-1.9.4-1.4-.9-.8.7-1.5-.7-2.5,1.3-.8-.4-2.4-.2-6.4,1.4-2.4,1.1-.5.8-2.2.4-1.2,1.5-1.7.7-2.5-.7-3.2.5-1.4-.9-1-1.5-1.1.5-2,5.2-4.1,2.7-1.9,2.4-.3,1.5-1.4,2v2.2l.4,1.9a18.2,18.2,0,0,1-1.5,2.7l-3.2,2.8-3.1,1a18.3,18.3,0,0,1-1.4,3.2l-2.2,2.2-1,3-2.1,3.2-1.9,4.5-.6.4-.6,3.3h.5l1.2,2.1v1.4l-.7,1.2,1,2.5v2.3l-1.2,4.2v1.2l-.8,1.5-1.6,1.1h.6l1.8,3-.6.7a7.1,7.1,0,0,1,.2,2.5l2.1,2,2.5-.7-1.5.7.2,1.4.7.6.2.5.7-.5.9,2.2,1,.7,1.6,2,.5,1.9-.3.3a11.8,11.8,0,0,0,1.9,2.5l2.2,1,5.2,4.9,4.3,2,.8.2,2.7-1.4,3.2-.8,4,.2,2.8,1.2,5.2-2.8h2l.6-.9,1.7-.4,5.5-.4,1.4.7.4.8,1.1,1v1.7l1.9,1.5,1.5-.5.6-.6,2.5.5.2-1.1.7.9h.7l.4,1.2h1.6l-.3.9.9,1.1a30.4,30.4,0,0,1-1.3,5.4l.4.7v.7l-.4.5,1.2,1-1.4-.3v1.8l-1.1.8,1.2,3.1a102.9,102.9,0,0,1,6.6,8.2l.8,2.2v1l2.1,5.4.2,1.5-.5,1,.5,2.1,1,1.4c0,1.5-.1,3-.2,4.5l-1.8,1.7a41.7,41.7,0,0,0-2.9,8.4c-.1,2-.1,4.1,0,6.1a97.5,97.5,0,0,1,6.5,12.4v4.5l.8,2.5a41.9,41.9,0,0,0,1,7.1l1.3,2,1.8,1.7a74.7,74.7,0,0,0,4.3,10.1l.2,2-.5.7-.5-.2v.8l1.4,2.4.2,1.2h.7v.8l2.9,1.2.9-.9,3.6-.3,1.6-1,5.6.5.3-.7,1.8.4.2-1,3.3-.7a36.9,36.9,0,0,0,10.3-13.5l2.4-2.3,1.1-5.2v-1.9l-.3.7-.6-.8.8-1.4,4.6-2.1,1.5-1.9v-.9l-.4.9a55.1,55.1,0,0,1,.6-5.7l-.3.2-.9-3.9-.8-.9v-1.8l3.1-2.7.3-.8.5.6.9-1.5-.3-.3,2.1-1.8,3.8-1.6,1.7-1.5v-.5l2-2,.2-.9h-.5l.8-1.3-.3-1.4h-.4c-.1-2.2-.1-4.4-.1-6.6l.9-2.1-.4-1.5-1.4-1.1c-.5-1.5-1.1-3-1.5-4.5l.7-3.3-1.7-2.1,1.1-4.3.8-.9,1.6-4.3a31.2,31.2,0,0,0,5.3-5.6v-1h.8l4.9-5.1,2.1-1.2,4.5-4.7,1.4-2.7,1.5-1.7,2.3-6,.6-.7,1.4-2.3.5-3,1-.2-.7-.2.3-.5-.2-2,.3-1.2-1.2-.5-1.4,1a49.4,49.4,0,0,1-6.7,1.2l-1.9,1.2-2-.5-1.8,1.2h-1.2l-2.6-4.4-.2-1.1-.6-1-1.5-1.2-2.8-3.7-1.8-1h-.8l-.8-1.3v.8l-.3-.2-1.3-2.2-.9-4.2-.9-1.5-2.6-2.3-.3-6.2-.8-1v-1.5l-3.1-3.1-.3-2.3.8-.2-1.5-1.5a43.4,43.4,0,0,1-4.1-10.3l-2-2.6-.7-2.2.5-1.4,1.8,4.4,1.9,2.3.7-.3.9-4.5.3.3-.6,3.5,1.3.2,4.4,7.7.9,3.2.9.2,1.4,1.3,1.7,4.1-.2,1.3.8,3.5,2.5,1.7,1.3,1.7.6,2,1.3,2.2,1.4,1.2a38.1,38.1,0,0,1,1.3,4.5l-.4,1.7.6.6.9,5.1.6,1.4,3.4-.2,2.1-1.7h2.5l2.4-1.5,2.3-.4.8-1.2a71.5,71.5,0,0,1,7.7-2.9l.3-1.7,1.5-1.2,2.8-1,1.8.2,1.6-2.4,2-.5.9-2.2,2-.7a12.1,12.1,0,0,0,.8-3.8c0-1.9,1.3-.2,1.3-.2l1.8-2.3a14.3,14.3,0,0,0,1.4-3.4c.5-1.7-2.7-3.2-2.7-3.2l-4.3-1.8-1.4-2-.2-2.3.4-1.8A59.1,59.1,0,0,0,538,277v.5l-1.1.7-3.2-.3-.8.5h-1.2l-.3-.7-.6-.2a34,34,0,0,1,.3-4.5l-.9-.9-1,2.1v2l-1.6-3.1.3-1.1-.5-1.5-1.7-1.2v-1l-1.2-1.2-1.1-2-.7-2.2-.7-.2,1.2-.9-.6-1.1,1.1.2.5-.3.5-1.6,1.6,1.9,1.2-.5,1.4,2.9.9.8,1.2,3,2.3,1,.8,1.2,1.7.7.3.6,2.6.5,4.3-1.8,1.2.7,1.3,3.5,10.1,1.7.3.3.9-.5,4.9-.5,1.1.7.3-.7.6.2,3.7-.2.6,1.5.9.3.9,2.4,1.3.3,2.1,2.7h1.8l1.6-.8-.2,1.3-.9.7-2.3.3.2.7,3.3,3.6h1.9l1.6-.9.8-3.5,1.6.3-1,1,.8,4.1-.3,2.1.3,1.9h.3v1.9l1,5.1a17.8,17.8,0,0,1,1.2,2.9l.5-.2v1.5l1.9,3.7.8,3.6,1.5,2.1,2.3,6.8,1.7,2.3h.7l1-1,.3-1.5,1.8-.7v-.8l.9-1.9h1.2v-3.5l1.2-4.2-.4-1.2-.2-4.5.6-1.2h1.4l.9-1.5,2.2-.7.6-1.3,4.3-3.7,2-2.7,3.2-1.8,1.7-2.1V286l2.1-1.1.5-1.2.4,1.9,1-.4v-.4l.3.6.3-.2,1.6-.6.2.3.7-.8.7.7.8-1.2v-1.2l.6-.8.6.6H628a30.2,30.2,0,0,1,1.6,5.1l1.6,2.3,1.8,1,.3,1.2-.4-.3-.2.5.8.8v-.5l1.1,2.2.5,3.2-.8,3.2.8-.4v.7l1.8.4,3.2-2.6.2-2,.4,1.5,2,1,.4,4.2.5-.7,1.2,3.4,1.5.2.6,2.2v2.3l-.3.4.8.4-.8,3.9.5.4-.9,3.1v2.1l.9-.2c1.2,1.6,2.5,3.2,3.7,4.9l.9,5.5,1.8,3.9,5.1,3.8.8-.5.9.5.3-1.1-2-3.6v-4.7l-1.1-1.6-1.5-1.6h-.5l-1.5-1.8-1.5-.2-1-1-1.2-3.7a76.2,76.2,0,0,1-.1-11.7l3.4.7.9,3.1,2.7,1,.6,2,1.1-.5V316l2.1.2,1.4,1.2L662,319l.2,2,.4.2,2.7-2.2-.4-1.3,1.1,1-.2-1,1-1.4H668a33,33,0,0,0,4.1-2.3l.3-1v-2l.5-1-1.2-6.9-1.1-1-.3-1.2-1.4-.5a35.7,35.7,0,0,0-3.1-3.7l-.3-1.2-1.3-1.3-.2-1.4.8-2.4a39,39,0,0,1,3.3-3.8l1.4-.5.6-.5.2.5.7-.9,1.4,1.1,1.2-.5v1.8l1.1,1.8.8-.3-.6-1.5.6-1.3,6-1.5.4-2.1,1.1,1V282l1.1,1.6.7-.2v-.5h.1l.5.3.6-.8.2.3.9-.7.6.6,2.3-.9,1.4-1.6,1.2-.4.3-.5v.3l1.1-1.1v-1l1.4-.4,1.5-2.5.5.2.7-2.6-.4-1,.7-.5.2.9,2.8-5.1.6.2.6-2.3-.2-.7.8-.2v-1.2l-.8.4,1.2-1.2-2-1.2-2.2.5,4.1-2.5a13,13,0,0,0-3.2-3l-1.1-.2h1.1l3.2,1-2.5-3.1-1.6-5.2-2.5-1.6,1.2-2.3,1.1-.9.2-1.2,1,.5.6-1.2v-.7l2-.3.6-.8h.6l.3.6.8-1.8-2.6-.3-1.7-1.2-3.2,2.3-1.3-.5-.6-1.8-1.7-1.1-1-1.3v-.8l.8-1.5,1.2.3,1.6-.7.9-1.7,2.3-1.3,1.6-2.5,1.7-.6.9,2.1-2.2,3.2,1.1.6-.4,1.1-1.1.8.4.2,5-3.6,2.5-.4.6,1.1,2,.2-.6,2.5.4.3-.9.7-.6,1.5,1.1-.2-.3.6.4.8.8-.3v-.7l2.2.8.8,3-.5-.4-1.4.6.5,1,.4-.6.7,2.6-1.1,3.1.6.3-.2.7-.4-.3-.2,1,1.6-.4,1-.8-.3.5h.3l.3-.9.3.5.8-1.1,1.1.6.6-1.1.8.2.9-.8.7-2.2-.7-4.7-2.2-3.6-2.1-2.1v-2.2l2.1-1,3.3-2.9v-2.3l2.2-2.9h.4l-.2-.7h1.2l1.6-2.9.4,1.2.8-.7v1.5l2.1.7,1.9-.7,2.4-2,7.4-10.2a27.6,27.6,0,0,1,5.3-9.1l1-6.2-.5-2.9a23.2,23.2,0,0,1,2.3-6.2l-.7-1,.2-.8-.2-1.4-2.5-1,2.6.5.4-1.2-2.4-2-1.4-2.3-2.6-.2v2.4l-.9,1.1v-1.1l-.5.4-2.2.6.9-1.4-.8-1,.8-1-1.1.5v1.2l-1,.8v-3.9l-2.5.2-1.2-.8v-.9l5.9-5.7,3.6-5.3,2.8-2.6,1.1-2.5,3.5-4,2.1-1.4,5.7-.3,1.4,1.4.9-1.6,2.6,1,2-.6.6.8.7-.2-.4-.8,1-.3-.2-1.1.4-.3,4,1.5,1.3-.6,1.8,1.5-2.5,1,.7,1.2,2.7-.9.8.5L780,149l3.1.5.6-.3-.2-.9-2.1-.6.3-.7-.3-1.2h.5l1-2.5,2.8-2.5,3.1-5.1,4.3-1.3,1.9,1.3,1.4-1.5-.4,2.2-.8,1.4.3,1-.5.8,1.4-.2-.6,2.4,5.4-5.7,1.1-.5.5,1,.5-.9-.6-.6v-1.9l1.3-2.3,2-.9,1.3,1v.5l-1.9,1.2-.2,3-.5.9v1.5l-.6.8.3,1.2-4.3,2.4-.3,1.3a68.1,68.1,0,0,0-8.3,10.9l-2.3,1.5h-1.3l.4,1.5-.6,2-2.2,2c-1.8,8.6.8,17.4,2.2,25.9l3.5-4,.8-4.7,2.8-1.2.5.3V174l2.4-2.5,1.6.4,1.2-1.1-1.1-3.6.6-2.1,1.3-1.2-.3-.8,1.5-.8-.6,1.5.8,1.2.7-1.4V162l-1.1-.6-.2-2.1,1.3-3.1-1.4-.8-1.1,1-.5-.9.2-1.5,2-4.3h.6l.9-4.1,1.1-.6.4.6,1-.9,1,1.1.7-2,2.1-1.7.3.5v3.2l1.8-3.2,2.9-1.2,2.9.7,2.3,3,.5-2.6,3.9-2.6-.2-1,.9.4-.2-.9,2-1.2.8-1.8.9.5,2.8-1.8V133l5.1-2.1-.5-2,1.1,1.8.5-.7,3.3,2,1.2-2.3-1.2-1.7h.9l-1.2-2.2c-.1-1.1-.3-2.2-.4-3.3l-1-.3.7-.3-.7-1.7-.4.7-1.4-.9-.3-2.1h2l.8,1,3.5-3.2,1.7-2.9-1.4-2.1-.2-1.7,1.4-.2v-1.2h.5l.6,1.2.9-1.4V109l-1.1.2,1.3,3.3,4.7-.3,1.4,1v2.7l1.3,1.5,1.1.4-.3-.4,1-.2-.3.4,1.5.8.3,1.4.8-.5.3.8.6-1.5-.2,1.7,1,.3.2-1-.4-.3,1.8.3-1.5-1.5.6-.5-.9-.2,2.4-1.7-1.3-1.1h1l.8-1.7,1.9.2-.7-1.2v-1.2l1.9,1.5v-2l2.2-1.2-2.2-.7.2-.6-3.1-4.2-3.5-.4-.3,1.2-.3-.8.4-.7-1.2-.6v.8l-1.7-.3,1,.4v2.4l.9.7-.6,1.3v-1.1l-1.8-1.7-.8-4.2.5-.2-1.4-2-1.2-.4,1.2,2.2-2.6-1.8.9-1-2.3-.7.5-.5v-.7l-1.1-.8-1.7-.2-.3-1.3-1.4-.7-.3-1.5-1.8-1.1-1-.3-3.8-3.7-5.5-3.3h-6.9L821.6,81l-1,.3v2.2l-.9.8,1.3.4,1.1,3.5-2.8,2.5-3.9-3.4-.3-2.6-.9-1.6-2.3,2.2-4.5-.6L805.2,83l-4,.7L798.4,86V84.8l-3.8-2,.9-3.1-.2-1.6-2.7-4.2-10-.3-5.2,1.5-1.8-1.3,1.4-1.7-1.9-2.2-2.1.3-1.2-1.8-3-.5,1.1-1.9,1.4.4-.6-2.5-.8-.7-20.2-5.4-.6.8.8,1.5-3.5,4.8.4,1.5-.5.9.8,2.4-1.4-.5-3.5,3.1-5.9-4.1-1.3.2-.5,2.3-2.8-.6-2.2-4.7L727.9,69v3.1l-1.7,3.8-.9-1.8-2.5-1-2-5.1-.6.2-.3-2.2,2-2.3-.3-.2.4-1.7L721,60l.6-3.5-3.2-4.4-2.8-.7-.9,1.2L708,48.5l-.2,1.4-1-.5-.5,2.9.8,2.8-.6.8-5.3,1-6.1-2.1V52.4l1-.5-7.8-2L683,51.7l1.8,1.7-2.1,1h-.6l.9-.9-.8-.2.4-2.6-1.4-3.7V49l-.9,1-2.8-1.1-.3-1.4.5-.6-1.4,1.2-1.8-1.2-1.4,2,.4,1.8,2.2-1.7.8,1.2-3,2.2-1.3-1,.6,1.2-.5.5-3.8,2-2.9-.3-.2.7v1.3l1.1.8-1.7-.8-1.4.8,4-6.9,2.5.2,5.5-8.7,3.4-1.5V39.3l1.3-.5-.4-.5,2.3-1.5,1.4-2.7-.4-1.7.4-.7-2-.6-1.1-2.5,2.3,2.5,1.1-2.4-.2-1.3H683l-.9-3.3-.8,1.6-.7-1.5.4-1-4-4.7-7-.3-2,3.3h-2.9l2.4-3.3.5-1.7v-1l-3.9-.6.2-1.3-3.6,2.2,4.3-4.6-.7-2.5Z" transform="translate(0 0)"/>
  </g>
  <g class="cls-4">
    <path class="cls-5" d="M384.5,261l36,29.7,27-2.7s12,18,15,18-6,23.7-6,23.7l-9,15s-39,21.3-36,24.3-78-81-78-81Z" transform="translate(0 0)"/>
  </g>
  <g class="cls-2">
    <path class="cls-3" d="M513.8,387.2l1.8-.8.3.3,1.7-1,.8.9h.6l-.5-1.4,1.1-.8.3.8.6-.2-.4-1a3.1,3.1,0,0,1,.9-1.1v.8l.7-.8.7-.2-.8-.7.4-.8.4.3L522,380h.7v.5l.6-1.5h.8v-2.2l.9-.8,1.7,2.3,1.4,6.6-.3,1.3h-.3l-.5-1.3h-.4v3.2l-.8,1.5c-.9,7.1-3.4,14-5.3,21l-1.3,1.7h-1.8l-2,1.2-2.6-2-.6-1-.3-3L511,405v-2.2l3-5.8-1.4-6.4,1.3-2.7v-.7" transform="translate(0 0)"/>
    <path class="cls-3" d="M599.2,323.2l.3,2.5.9,2.1h1.4l2.4-2,.2-2.2c-.6-2.1-1.3-4.2-2-6.3l-.8-.3.3.6-1.8,2.1Z" transform="translate(0 0)"/>
    <path class="cls-3" d="M242.9,127.8a31.9,31.9,0,0,1-3-4.2l.6-.3,1.5,1.9.9-.7,2.3,3.2,2.9.3,1.6,2.5h.3l-.6-1.9,1.2.4-.3-1.2-.9-1.4v-1.1l1.1,1,.3-2.6-.5-1.8-1.5-.7.6-2.7-.9-.8-.7.7v-1.5l-1.5.3.4-.8h-1.2l-.2.8-.7-2.5-.6-.2v-2.5h-1.7v-1.7l1.9-.5-2.5-2.9.9-.5,1.4,1.2-.6-1.5h1.4l-.2,1.3,2.5,1.6v.8l1.3-.2v2l1,1.7.6-.5v1.4l.4.6.8-.3,1.6,2,.9-2.5-.5-2.9,1.7,1.2.8-2.5.7-.3-1.2-.4.6-1.3-.6-.2,2.1.4.4-.4-.5-.7.9-1.3-2-2.5-2.7.7.7-2.7-2.7.5.6-1.4-1.4-2.7-1.5-.3.3-1.5-2.3,1.2-.8-.9.5-.8-.3-.7h-1.7l.4-1.2-3.9-1.6,1.5-.5-1.1-1.6.9-.8-1.8-1.3,4.9-.7-5.7-2,3.9-1.4.4-.8-.3-.7L241.7,79l-.3,1.3-1.8,1.2.9-1.7L238,80l2.8-1.7V76.6l-2.6-1.3-2.1,2,1.2-2.7-2.3,1.5.8-2.2-.2-1h-3.6l2.3-.8.3-.7-1-2.2L231,67.4l-.8,1.5h-1.1l.2,1.8-.9-1v-1l-1.1.8,1.2-2.8-3.5,1,1.5-1.5.2-1.7-2.2-.5.5-1.7L223.3,60l-4.6-1.5-2.4,1.6.6,1.7-1.7,1-1.8-.8-.2-1.5-.6,2.7-2,2.5-.2-1.2,1-.5-.6-.5,1.2-4.9-1.1-1.7.5-1.5-2-1.5.6-.8-.8-3.7-5,1.3-.8,1,.6.7v1l-2-1.2.3,1.9-1.7-1v.8l.4.7,2.6,1.2-4.1-.4,3.7,2.9-4.2-1.2.5,4,1.7.5L198.3,65l1.6,2.5,1.5.4-.3,4.8-.3,1-.2-1.8-3.8,1.2,4-2.2-3.2-5.1-.5-1.3.5-2.9-1-2.1,1.1-5.1,3.1-5.2-6,.2-4.1,5.5-.6,3.1.4.3h-.7l-1,3.3.2,1.7h.6L188.4,65l.6,1.9-.5,2.8,7.1,3.5-5.5-.5.3.5-.3.9,3,4.5,2.6.4,1.3-1.4v1.5l1.4,1.9h6.9l2.7,1.5,1-1.1,1.2,1.5h.5l-1.9-2.9,4.2,1.2.4,1.2,2.2-.5.3-.5-1-2.9-.9-.3,1.7-.2,1.4,1.7,1.4-.3v3h1.7l.2,1-.6.5,3.2,2.7v1.2l-.7.8-1.6-.3.2,2.8,2.4-2,1.7-.2v1l1.5,2.2V90.7l1,.3v2.6l2,1.3,1.7,6.1-1.5,2-.2,1.7-3.5,3.7,2.1,3.5v1.2l-1.5-.7-2.8,1.8-4.9-1.1.3.5h-.4v1.1l-1.3,1-.5,2.2.9,1.7,2.5,1,2.1-1v-1l.4-.3,2.6,1.1.3-.5-1-1.8.7-.5.2,1.2,2.6.5,1.4,3.8,4,2.2-1.4,1-.5-.7,2,3.2,2.3,1.4.9-.9.3,1.1.9-.4,1,2.2.6-.3.6,1.1,2.9,1.4,1.2-.5,1.1,1.5.9-.2-.3-2.5Z" transform="translate(0 0)"/>
  </g>
  <polygon class="cls-3" points="358.3 124.5 355.4 122.5 351.8 122.8 351.7 121.3 353.8 120.6 353.8 119.6 353.1 119.8 353.8 118.3 353.2 118.8 352 116.6 348.8 117 351.5 115.3 353.7 115.4 354 114.3 352.1 114.6 353.8 112.8 352.1 111.7 347.2 112.6 347.7 111.6 349.1 111.9 348.2 110.4 350.3 111.4 349.1 110.1 349.5 109.9 348.9 108.9 349.8 108.7 349.5 108.2 352.3 110.2 352.3 108.6 351.2 107.9 352.1 107.5 350.6 107 350.8 106.2 352.3 106.4 354.9 109.1 354.4 109.6 355.1 110.6 354 110.9 354.9 111.7 355.4 114.1 356.1 112.9 356.3 111.4 357.4 111.9 357.5 108.4 359.5 110.9 359.7 108.9 361.3 107.9 362.9 111.4 362.4 108.1 364 109.2 364.7 108.1 366.9 108.1 366.6 106 367.3 105.7 369.2 108.1 371.2 106.5 370.1 108.9 371 108.7 370.9 111.1 372.7 111.2 373.5 112.8 373.1 113.8 373.9 114.1 373.3 116.1 371.6 117.5 372.2 117.6 370.5 120.1 369.5 119.1 367.2 122 365.3 122.2 361.5 125.5 358.3 124.5"/>
  <polygon class="cls-3" points="444.3 234 443.1 236.9 443.4 238.2 443.1 239.2 442 239.2 441.1 238.2 437.1 236.2 436.8 235.2 437.1 234.4 438.5 234.2 439.7 235 444.3 234"/>
  <polygon class="cls-3" points="434.2 164.3 434.5 164.8 433 165.6 433.6 166.1 433.9 168 435.1 168.2 435 168.7 436.1 169 436.1 168 436.7 167.8 436.2 166.6 437.3 165.8 436.5 163.6 435.5 164.3 435.5 164.6 435.1 165.8 435.1 164.5 434.2 164.3"/>
  <g class="cls-2">
    <path class="cls-3" d="M128.7,86.5l-4.1-1.3-2-4.4,7.2-2.3,4.6.6.9-1.2L131,75.6l-3.8,1.3-5-.8-1.7-3.2,5.9-2.7-.6-.5,1.3-1-6.3,1.5-.3-.7,1-.6V67.7l-2.6.2-.3-1.9,2.3-3.2-.9-1.1.6-2.4,8.5-6.6,1,.7.5,2.9-1.2,3.5,2.3-.8V56.8l1.2-1,4.3,3.2-1.7,3,5-2.2-.7-1h.8l-1.5-2.7,2.3.9,2.1,3.3.5,4.2.6.7-.3,1.8.6.7,1.7-2.2a49.9,49.9,0,0,1-2-10.9l.8-.5-.5-1,2.9,1.5v-1h.6l3.2,4.2-.2.8.5.9.6,5.2,1.5,3.7-.3,4.2,2.8,3.5,1.5-.2,3.1,3.9h1.4V81l-.3,2.5h-.6l-.5-2-.4,2-.6-.2-.5-1.7L158.3,83l.3,1.5-1.5-.2.2,2.4,2.3-1.9.4.4-.6,1.8,1.5.5-3.3,2.7L152,89l.7-1.1-3.4-.9V85.5l-.6-.7-1.9,3.7-3,.4-2.2,2.3-9,1.2.6-.7L132,90.5l-.3-1.1V88Z" transform="translate(0 0)"/>
  </g>
  <polygon class="cls-3" points="105.9 46.5 106.8 47.9 104.2 54.8 105 56.3 103.8 56.6 104.1 59.6 101.9 65 106.2 67 108.5 72.4 112 68.9 112.8 69.9 114.6 68.7 115.1 67 115 65 115.7 62.5 117.9 61.8 118.6 58.8 127.5 51.6 122.2 44.2 119.1 44.4 118.2 46.7 118.3 44.5 116.8 46.2 117.1 44.5 112.7 40.8 108.8 41.7 108.8 43 108.4 41.7 105 42.7 105.9 44.4 105.6 45.2 105.9 46.5"/>
  <polygon class="cls-3" points="164.8 65.9 164 64 161.2 63.3 158.8 58.6 159.1 56.9 160 56.4 162 59.5 164.3 58.5 164 57.3 164.6 56.9 163.7 54.6 164.9 54.8 161.4 52.1 163.2 52.4 163.1 51.1 161.7 49.9 164.3 49.6 163.5 48.4 164 47.9 167.2 49.6 170.9 47.9 171.8 49.1 170.4 51.6 171.2 53.1 169.8 54.1 168.4 57.1 170.4 56.1 171.7 58.5 171.5 59.6 172.7 58.5 173.3 61 172.7 62.3 173.2 66.4 171.2 68.4 169.4 68.2 169.7 69.7 168.6 71.1 167.1 70.6 166.1 67.4 164.8 65.9"/>
  <polygon class="cls-3" points="176.7 14.4 173.2 14.3 172.1 15.6 173.7 17.5 172 17.8 176.7 23.9 181 22.5 183.6 30.7 182.5 32.9 182.4 34.9 184.2 36 183.2 37 183.3 38.8 184.7 40.7 186.5 38.6 185.9 39.6 186.7 40.8 186.7 39.5 189.4 41.8 190.2 40.7 189.8 39.3 191 40.3 191.4 38.6 191.6 38.8 192.1 39.1 191.9 42 192.5 42.2 199.3 41.5 199.3 40.3 200.2 42 200.6 40 200.9 41.7 204.2 41.2 204.9 39.5 204 37.8 205.2 38.8 205.4 40.8 206.2 41.8 208.3 42.3 212.4 40.8 211.5 36.3 213.7 33.8 213.2 31.2 207.1 27.7 197.7 31.6 199.1 32.9 196.3 33.4 197 32.8 194.5 30.7 194 32.4 193.6 31.1 192.5 32.3 191.6 30.1 191 32.9 189 31.2 190.1 30.6 190.4 29.1 189.9 28.4 186.5 27 185.5 28.9 185.9 27.2 185.8 26.9 187.6 26.4 184.7 24.9 189.6 25.2 190.4 23 185 21.3 187.6 21.2 184.9 18.3 179.8 21.7 180.4 17.1 176.7 14.4"/>
  <polygon class="cls-3" points="172.1 84.7 169.7 82 168.8 84.2 169.1 84.8 168.1 84.8 168.4 86.3 166 88 165.8 89.4 173.7 92.4 176.3 89.9 175.7 90.2 172.1 84.7"/>
  <polygon class="cls-3" points="198.9 110.9 200.2 110.5 200.8 111.9 200.9 114.1 202.2 112.9 203.1 113.6 202.9 114.4 208.1 117.9 208.9 121.5 210.7 121.1 212.6 123.3 210.3 125.2 207.2 123.8 207.2 122.3 205.5 122 205.8 121 204.3 121.5 204.2 123.3 200.3 127 199.4 126.2 199.3 122.6 198.9 123.6 195.9 124.7 195.6 123.8 196 122.5 197.9 121 197.6 118.4 198.2 113.1 198.9 110.9"/>
  <polygon class="cls-3" points="275.1 78.5 277.9 79.6 281 84.2 277.7 86.3 275.6 85.8 277.3 84.8 273.9 84.2 275.1 83.7 273.7 82.3 275.3 81.8 274.1 80.1 275.1 78.5"/>
  <polygon class="cls-3" points="270.7 184.6 269.6 185.3 267.8 188 268.2 188.3 267.6 189.8 267.9 190.2 267.2 190.5 266.7 192.9 265.9 193.4 266.2 194.7 265.5 194.7 264.9 196.4 263.5 196.9 265.2 197.4 263.2 199.4 263.2 200.1 263.9 200.8 269.3 200.8 271.8 199.6 271.6 200.4 270.8 201.1 272.4 201.1 272.8 200.2 274.1 200.6 271.4 202.8 271.9 203.4 274.8 201.3 275.4 199.2 275.9 199.2 276.2 201.6 275.7 203.4 277 202.3 277.3 204.4 278.2 204.1 279.1 201.3 278.8 200.1 278 200.9 278.6 198.2 277 200.4 276.5 199.9 276.8 198.9 276.2 198.2 277.9 197.2 278.2 196.4 275.9 197.1 277.1 193.5 274.8 193 272.7 193.9 273.1 192.7 271.4 193 271 192.2 272.4 191.3 270.8 191 271 190.5 269.3 192.5 269.3 190.7 270.7 188.5 270.7 187.1 271.4 187.1 271.6 186.1 271.3 185.3 272.2 184.5 270.7 184.6"/>
  <polygon class="cls-3" points="232.8 290.3 233.3 292.1 232.8 293.8 233 295.3 233.6 296.3 235.3 294.3 235.9 295 238.2 294.2 240.6 294.7 241.1 293.7 240 292.6 238.3 292.3 239.1 291.8 237.7 291.6 237.3 290.8 235.4 290.1 232.8 290.3"/>
  <polygon class="cls-3" points="230.4 290.3 230.8 292.1 230.4 293.8 230.5 295.3 229.5 294.8 228.1 295.2 226.1 294.7 225.5 295.3 224.2 294.2 224.2 293.8 228.8 294 229 293.5 228.1 292.8 227.9 291.1 226.4 290.6 227.6 290 229.1 290.6 230.4 290.3"/>
  <polygon class="cls-3" points="428.7 223.6 429.5 224.3 429.9 225.8 429.9 230.3 429.5 231 428.9 230.8 427.8 232 427 230.7 427.2 228.5 426.4 224.9 427.3 225.1 428.7 223.6"/>
  <polygon class="cls-3" points="221.8 93.7 224.4 94.4 224.9 95.9 224.7 99.3 223.3 101 220.3 101 219.5 98.9 219.6 96.9 221.8 93.7"/>
  <polyline class="cls-3" points="215.7 50.4 219.5 51.7 222.4 57.1 214.4 58.6 212.9 57.5 212.4 54.4 210.8 53.1 211.1 50.4 215.7 50.4"/>
  <polygon class="cls-3" points="161.2 0 162 0.2 163.1 4.4 164.6 5.7 166.5 4.9 167.1 2.4 165.8 0 165.8 0 161.2 0"/>
  <polygon class="cls-3" points="201.9 0 201.6 1 203.5 1.7 199.3 4.5 201.7 4.7 200.2 5.7 200.9 5.7 200.5 7.1 201.4 8.2 202 6.6 201.7 9.2 204.8 9.1 204.5 10.1 204.9 11.1 202.6 11.9 199.4 10.4 197.6 5.4 193.1 6 193.3 8.2 194.7 11.6 196.5 11.4 195.7 13.6 196.8 13.8 192.7 15.5 190.4 18.5 190.1 20.8 191 22.5 191.9 20.8 192.2 22.3 192.5 19.5 192.8 22.5 193.9 23.2 194.5 23 194.7 21 196.3 23.2 197.1 20.5 197.1 23 202.2 24 200.8 21 202 22.5 202.8 20 204.6 22.5 205.4 21 204.8 18.6 206.6 23 208 21.5 207.1 19.5 208.6 21.8 210.6 21.8 211.1 23.2 210.6 24.9 210.7 25.5 218 20.5 218.3 18.5 217.6 16.1 216 17.8 215 15.8 215.8 14.8 214.7 13.4 208.9 15 208.4 12.9 210.3 12.4 209.4 10.3 212.1 12.8 217.5 11.8 219 8.6 218.1 7.7 217.5 4.2 223 4.4 223.9 2.2 220.6 1.3 223.8 1.3 224.7 0 201.9 0"/>
  <polygon class="cls-3" points="170.2 0 172.5 0.8 170.2 2.4 171.9 4.5 171.6 5.9 176.6 4 177.4 3 176.8 1.5 177.1 0 177.1 0 170.2 0"/>
  <polygon class="cls-3" points="176.6 5.9 181.2 7.2 180.4 7.9 180.4 10.1 176.7 9.9 174 7.2 176.6 5.9"/>
  <polygon class="cls-3" points="176.7 29.9 180.2 34.3 180.2 39.6 177.5 40.5 173.3 36.3 173 34.4 174.9 32.4 174.1 31.9 176.7 29.9"/>
  <g class="cls-2">
    <path class="cls-3" d="M176.6,45.9l3.8-.9,7.7,2.5L187,50.6h-.8l-.3,2.8-.9.5.5.2c-.6,1.5-1.2,3.1-1.9,4.5l-5.3-.3,2.1,2.5-1.5,3.4-2,.6-.6-.3.6-1-.6-.3V61.3l.6-1.3-1.6-1.2c-.1-3.2-.2-6.4-.1-9.6l2.4,1-1.8-2.7Z" transform="translate(0 0)"/>
  </g>
  <polygon class="cls-3" points="170.3 26 170.1 20.7 168.3 18.5 166.8 20.8 163.5 18.8 162.2 20.7 164.5 22.5 163.2 23.2 164.6 23.5 164.2 24 165.4 26 160.2 20.8 159.4 23.7 160 23.7 160.2 26.2 161.2 25.7 160.8 26.9 161.6 28.2 159.7 27.2 159.1 28.4 159.6 29.4 158.8 30.1 167.1 28.4 162.9 31.9 164.3 33.9 163.1 34.3 163.2 36 169.1 36.3 168.8 34.4 170 35.1 168.8 32.9 169.7 31.1 169.5 30.1 170.7 32.3 170.7 28.6 169.7 28.4 170.3 26"/>
  <polygon class="cls-3" points="135.5 2.2 140.9 2.2 136.7 5 139.6 5.4 139.5 8.7 134.9 10.6 132.4 8.4 132.1 5.2 135.5 2.2"/>
  <polygon class="cls-3" points="152.7 55.3 153.7 50.9 153 49.7 149.1 49.2 147.6 51.7 151.7 57 152.7 55.3"/>
  <polygon class="cls-3" points="140.4 20.5 142.1 17 143.5 16.5 144.1 17.8 143.6 18.8 143.9 21 145.2 22.7 143.9 25.2 146.4 26 145.5 28.2 147.4 27 148.1 29.4 148.5 25.4 151 26.9 151.6 30.1 149.9 36.1 144.4 37.1 143.5 36.8 143.9 36.3 143.6 35.3 134.1 42.3 130.7 41.3 129.7 39.8 129.8 39 133 36.5 136.3 36.8 138.1 33.6 134.9 34.9 133.8 33.8 133.5 35.3 131 36.3 130.7 35.6 131.4 34.6 131.2 32.9 132.3 31.9 130.7 32.3 130.3 34.1 129.4 33.3 129.7 35.6 128.8 36.6 126.9 35.3 126.9 36.8 125.4 35.8 125.2 34.4 121.9 33.9 122.9 31.6 125.7 31.4 128 29.1 124.6 30.9 122.9 29.6 128.9 26.7 124 27.4 124.6 24.2 128.9 24 126 22.7 128.3 20.3 130.3 21.2 130.3 23.7 134.3 23.9 136 26.7 135 27.9 136.7 27.5 137.3 30.9 143 31.1 143.2 29.2 140.6 27 142.2 25.7 139.6 22.3 139.3 21 140.4 20.5"/>
  <polygon class="cls-3" points="116 14.6 119.1 10.4 123.4 11.1 123.7 10.2 122.8 9.4 124.5 8.2 126.9 11.4 124.8 12.9 125.8 15.3 124.8 16 125.8 18.3 123.2 20 123.1 22.8 120.9 21.2 121.5 17 120.2 17.3 119.7 18.5 120 20 118.6 20.7 119.6 22.3 118.6 24.7 116.9 22.2 117.3 24.5 116.5 25 117.3 26.4 115.4 28.1 114.3 23.7 113.3 26.7 111.7 24.4 110.2 26.7 109.7 26.2 110.4 24.2 109.3 24 110.5 21.3 112.3 21.3 113.3 18.3 115.7 16.6 115.4 16.5 116 14.6"/>
  <polygon class="cls-3" points="98.1 189.3 98.1 188.3 96.1 188.2 96.9 187.3 102.7 189.5 104.7 192.9 107.1 194.7 108.2 197.1 107.4 197.7 104.7 196.6 105 195.7 104.5 196.2 103.9 195.7 104.4 195 102.8 195.2 102.4 194.7 103 194.7 102.4 193.9 100.7 193.4 100.5 192.7 101.8 192.4 99.3 191.5 98.7 190.2 98.6 190.7 97.3 190.5 97.2 189.2 98.1 189.3"/>
  <polygon class="cls-3" points="32 157.9 33.7 156.4 34.5 157.7 34.6 156.6 34.3 155.4 35.1 156.4 36 155.6 35.9 155.1 36.8 155.9 37.6 155.2 37.6 156.7 38.3 156.7 38 157.4 36.5 157.1 37.2 158.2 36 158.1 34.2 160.8 34.3 159.9 33.9 159.1 33.1 158.9 33.6 159.1 33.3 160.3 32 157.9"/>
  <polygon class="cls-3" points="863.3 125.3 868.5 128 870.5 126.7 870.5 126.3 869.1 126.2 867.2 124.3 865.6 124.7 863.6 123.6 863.3 125.3"/>
  <polyline class="cls-3" points="843.9 69 845.9 68.7 849.5 71.4 849 72.9 845.9 74.3 843.5 73.6 840.9 74.8 840.1 73.2 843.3 69 843.9 69"/>
  <polyline class="cls-3" points="750.3 48 753.1 48.5 755.2 51.4 755.5 54.3 746.6 52.9 746.2 52.2 747.8 51.7 749.1 48 750.3 48"/>
  <g class="cls-2">
    <path class="cls-3" d="M753.5,172.4l.6.9,1.1,5.9-.5,2.3a57.7,57.7,0,0,0,3.9,14.8l-2.2-2.4-1.8.6-1.1,6.2,1.2,2.8,1,.5v2.7l-.4-1.8-1.8-.5-1.1,2.7-.4-.4-.2-2.3.8-5.2-.8-2.7.8-5.2-.5-3.1.3-2.1-1-2.1a33.3,33.3,0,0,1,.3-7.7l1.5.2.6-1.2-1.1-2.5Z" transform="translate(0 0)"/>
  </g>
  <polygon class="cls-3" points="759.3 214.4 760.3 213.7 759.6 215.4 760.1 216.9 761.3 216.7 761 217.2 756.6 218.9 755 222.1 751.8 219.9 750.1 220.4 748.5 220.1 748 220.6 748.3 221.3 750 222.4 747.4 223.8 747.5 221.8 746.8 220.9 746.9 219.9 748.3 218.6 748.3 217.2 750.3 217.6 750.6 216.7 750.6 215.5 751.2 214.4 751.5 211.8 751.2 209.8 751.7 209.2 755.5 213.5 758.3 214.9 759.3 214.4"/>
  <g class="cls-2">
    <path class="cls-3" d="M750,223.9h.6l.2,2.3,1.5,4.2-1.4,4-1.1.4V239l-.9,2.2.3,2-1.1,1.7-1,.8.4-2.4h-.6l-.4,1.6-1-.4-.7,2h-.3v-1.3h-.3l-1.3,1.5h-2.6l.5-.5h-.9l-.3-1-.6,1.3.7.7v.7h-1.2l-1.5,2.2-1.4-1.7.4-2.1-2.4-.2-1.2,1-3.4.3-.9,1.4-2.8-.4v-1l1.1-.3,3.5-3.5,5.8-.7v.5l1.3.2.7-.7v-1.5l1.2-1.5.7-2.2.7-.5h.5l-.9,1.2v1.1l3.4-1.8,2.1-2.2c.7-1.8,1.3-3.6,1.9-5.4v-.6l-.8-.7.6-.8v-1.6l1.1-2,.8,1.4.9-.4.3-1.1-.9.5-.2-.7.2-.5Z" transform="translate(0 0)"/>
  </g>
  <polygon class="cls-3" points="733.1 251 731.4 250.5 730.4 252.7 729.9 252.7 729 250.8 728.2 250.6 729.9 248.6 731.1 248.8 732.7 247.5 734 248 734.4 249.3 733.1 251"/>
  <polygon class="cls-3" points="725 249 722.1 251.2 722.7 252 722.7 252.3 722.2 251.8 722.4 253.2 723.6 253 723.6 251.3 724.2 252.5 724.4 253.7 723.6 255 723.6 257 724.4 257.5 724.5 255.9 724.9 256 724.9 257.9 726.1 256.7 727.8 252.3 727.5 251.2 726.8 251 727 249.8 725.9 250 725 249"/>
  <polygon class="cls-3" points="702.2 275.2 703.1 275.8 703.1 277 700.6 284.7 699.1 282.2 698.8 280 700.9 275.8 702.2 275.2"/>
  <polygon class="cls-3" points="711.8 318.3 712.3 318.3 713.7 319.9 714 320.9 713.7 321.4 714 321.7 714.6 324.2 713.8 327.3 713 324.7 712 325.9 711.8 326.6 712.6 327.9 712 329.3 711.5 328.1 710.6 328.6 708.9 327.4 708.5 325.6 708.9 324.4 707.7 323.2 706.9 324.4 706.5 323.7 705.7 324.7 705.5 323.7 705.1 323.7 704.2 325.7 703.5 325.7 703.4 325.2 704.3 322.9 705.7 322.4 706.9 321 707.8 321.4 707.7 322.9 708.8 322.4 709.1 321.5 709.8 321.5 710.3 320.4 712 320.2 711.8 318.3"/>
  <polygon class="cls-3" points="767.5 358.7 771 358.7 771.9 357.3 771.8 358.3 773.4 358.5 775.6 356.8 775.4 355.3 776.8 355.1 777.3 355.8 776.5 358.7 775.6 358.7 774.8 359.8 773.3 360.5 771 360.7 770.4 360.2 769.6 360.3 768.1 359.5 767.5 358.7"/>
  <polygon class="cls-3" points="674 290.4 674.9 290.5 675.2 291.6 674 293.9 672.1 295.6 670 294.9 669.5 292.6 671.7 290.7 674 290.4"/>
  <g class="cls-2">
    <path class="cls-3" d="M701.4,340.5l-.8.4-.4,1-.8-.2-.6.5-.8,2,.2,1.4-.9,1.8v1.5l-1.1,2.2.3,2.2,1.1-.2.4,1.7-.7,3.2.7,1,1.9-.3-.2-5.7-.3-.7,1.4-1.4.6.4-.3,1.7.3.6,1.2,1.4.2,1.8h.6l.8-.8,1.3-.5V355l-.4-.2-.8-1.2.5-1.2-2.6-3.6h.7l1.6-.7,1.2-1.6,1.4-.2-.2-.8-.6-.2-.8.7h-1.6l-.2.4-.9-.2-1.4,1.3h-.9l-1.4-1.6.5-2.7.3-.5a70.8,70.8,0,0,1,9.2.1l2.1-2.6-.3-.9-2.8,2.2h-2.4Z" transform="translate(0 0)"/>
  </g>
  <polygon class="cls-3" points="711.1 368.9 710.1 370.6 708.3 371.4 707.4 371.3 708 369.3 710.3 368.1 711.1 366.9 716.1 366.2 716 367.1 711.1 368.9"/>
  <polygon class="cls-3" points="687.1 331.1 686.5 330.6 684.2 332 683.8 333.1 681.5 336 678.6 336.5 678.1 338 677.5 338 677.2 339.9 674.7 339.3 673.8 338.5 672.6 339.9 672.1 342.7 672.7 345.2 673.8 345.9 674.4 347.2 675.3 351.8 677.3 351.9 678.7 351.3 679.2 353.3 680.9 353 681.9 351.9 683.5 352.5 683.6 353.1 685 353 685.6 353.5 686.1 355 686.4 355 689.1 353.3 690.7 349.9 689.8 348.8 691.7 347.1 692.7 345.4 693 343 694 341.9 694 341.2 695 341.9 696.2 341.7 693.7 339 694 338 692.1 334.6 693.4 334.3 692.5 333.3 693 333 693.3 332.6 694 333 695.3 332.5 694.5 331.1 695.7 331.1 697 330.3 694.7 328.9 694 329.1 694 328.3 693.1 328.4 693.1 327.1 692.2 326.6 691.9 325.7 690.8 326.7 690.8 325.7 688.5 329.4 687.8 329.6 687.9 330.4 687.1 331.1"/>
  <polygon class="cls-3" points="679.8 365.9 678.7 366.1 676.6 365.7 674 364.4 671.7 364.2 671.1 364.5 667.4 363.7 666 363 666.3 362.5 663.5 361.9 663.2 361.4 664.2 361.5 665.1 359.8 665.5 359.7 667.1 360 668.3 359.7 668.6 360.3 670.4 360.5 672 362 675.5 362.4 676.3 361.2 676.9 360.8 677.5 361.7 678.3 361.4 680.7 362.2 681.9 364.2 685.3 364.5 685.2 366.2 685.6 367.2 682.2 365.9 681.2 366.2 679.8 365.9"/>
  <polygon class="cls-3" points="703.5 294.8 704 297.3 704.8 298.9 703.9 301 702.9 301.7 702.2 303.2 702.6 305.7 703.5 307.1 704.2 306.9 704.2 306.3 705.2 305.9 706.3 307.6 706.6 306.8 708 307.4 707.4 307.9 708 308.8 708 309.3 708.6 309.6 708.5 310.8 708 310.1 708.3 309.9 706.8 309.3 705.2 307.3 704.8 307.1 705.2 308.9 703.4 307.1 702.6 307.1 702 307.8 700.5 307.4 700.3 306.4 700.9 305.1 700.2 304.7 700 305.7 698.9 303.9 698.2 300.9 699.6 301 700.2 294.5 700.5 294.2 702.8 295 703.5 294.8"/>
  <polygon class="cls-3" points="762.2 31.2 767.8 33.1 766.8 34.4 773.9 35.9 772.8 38.6 769.1 39.6 764.1 36.5 762.2 31.2"/>
  <polygon class="cls-3" points="750.3 24.9 760.1 31.9 758.3 32.4 758.6 34.3 757.5 36.1 754.3 36.1 752.6 32.8 753.5 28.9 750.3 24.9"/>
  <polygon class="cls-3" points="746.8 28.2 747.8 28.6 747.7 30.6 748.9 30.7 749.2 29.1 748.9 26.4 750.8 26.4 752.9 29.6 752.1 32.8 752.6 35.3 755 37.6 752.4 38.6 751.4 36.3 746.6 39.1 746.3 38.6 746.9 38.3 746.2 36.5 745.5 36.8 745.4 38 745.8 37.8 745.2 40 742 38.8 739 33.6 740.5 33.3 739.3 30.9 740.9 28.7 740.2 27 744.3 24 746.8 28.2"/>
  <polygon class="cls-3" points="548.3 81 547.5 79.1 548.4 79.1 547.8 78.6 548.7 77.3 552.5 82.5 550.7 83.2 548.7 81.3 548.9 82.3 548.3 81"/>
  <polygon class="cls-3" points="524.2 85.3 525.4 84.8 528.2 88 525 90.9 523.3 89.9 523.3 90.9 523 89.9 523.1 87.5 524.2 85.3"/>
  <g class="cls-2">
    <path class="cls-3" d="M643.7,331.1l5.5,4,2.9,3.1.6.4.5-.4.7,1.2,1.6.8.4.7.2-.3.7.6,1.3.2-.2,1.5v.4l1-.5.6.5.3.6-.6.7.3.2-.4,1v.5l2,.6.5,2,.9.5-.3.9h2l.9,1.6-.5,7.3-1-.8-.6.6-.8-.6h-.3v.9a23.3,23.3,0,0,0-5.2-4.7l-.8-1.3a41.8,41.8,0,0,1-5.3-7.2l-.5-2.2-1.2-.8-1.1-3.7-.7-.9-3.4-1.1-1.9-1.2-1.4-1.9-1.3-3.1.3-1.2.7.3,1.4.9h1.1Z" transform="translate(0 0)"/>
  </g>
  <polygon class="cls-6" points="384.5 283.3 428.7 265.7 496.5 238.7 496.5 283.3 384.5 283.3"/>
  <rect class="cls-6" x="489.5" y="100.7" width="150" height="182"/>
  <g>
    <path class="cls-7" d="M511.6,139.1h5.5v1.4h-3.9v2.6h3.4v1.3h-3.4v3.8h-1.6Z" transform="translate(0 0)"/>
    <path class="cls-7" d="M518.6,138.4h1.6v8.2c0,.4.2.5.3.5h.3l.2,1.2h-.9c-1.1,0-1.5-.7-1.5-1.9Z" transform="translate(0 0)"/>
    <path class="cls-7" d="M525.2,141.2a3.6,3.6,0,1,1-3.3,3.6A3.3,3.3,0,0,1,525.2,141.2Zm0,5.9c1,0,1.6-.9,1.6-2.3s-.6-2.3-1.6-2.3-1.6.9-1.6,2.3S524.2,147.1,525.2,147.1Z" transform="translate(0 0)"/>
    <path class="cls-7" d="M530,141.4h1.4v1.2h0a2.5,2.5,0,0,1,2-1.4h.8l-.3,1.4h-.7c-.6,0-1.2.4-1.6,1.4v4.2H530Z" transform="translate(0 0)"/>
    <path class="cls-7" d="M538.7,143.8c-.1-.7-.4-1.3-1.3-1.3a3.4,3.4,0,0,0-1.9.7l-.6-1.1a4.9,4.9,0,0,1,2.8-.9c1.7,0,2.6,1.1,2.6,3v4H539l-.2-.7h0a3.3,3.3,0,0,1-2.1.9,2,2,0,0,1-2.1-2C534.6,144.9,535.8,144.2,538.7,143.8Zm-1.5,3.4a2.2,2.2,0,0,0,1.5-.8v-1.5c-1.9.2-2.5.7-2.5,1.4S536.6,147.2,537.2,147.2Z" transform="translate(0 0)"/>
    <path class="cls-7" d="M547.9,141.2a3.6,3.6,0,1,1-3.3,3.6A3.3,3.3,0,0,1,547.9,141.2Zm0,5.9c1,0,1.6-.9,1.6-2.3s-.6-2.3-1.6-2.3-1.6.9-1.6,2.3S546.9,147.1,547.9,147.1Z" transform="translate(0 0)"/>
    <path class="cls-7" d="M556.3,139.6h-.8c-.6,0-.9.3-.9,1.1v.8H556v1.2h-1.4v5.6H553v-5.6h-.9v-1.2h.9v-.7c0-1.5.7-2.5,2.3-2.5l1.3.2Z" transform="translate(0 0)"/>
    <path class="cls-7" d="M559.3,139.1h1.6l.8,4.6c.2,1,.3,2,.5,2.9h0l.6-2.9,1.2-4.6h1.4l1.1,4.6.6,2.9h0c.2-.9.3-1.9.5-2.9l.8-4.6H570l-1.8,9.1h-2l-1.2-4.8a15.5,15.5,0,0,0-.4-2.1h0a15.5,15.5,0,0,0-.4,2.1l-1.1,4.8h-2Z" transform="translate(0 0)"/>
    <path class="cls-7" d="M573.9,141.2c1.9,0,2.9,1.3,2.9,3.3a5.6,5.6,0,0,1-.1.7h-4.4a2.1,2.1,0,0,0,2.1,2,3.7,3.7,0,0,0,1.6-.5l.5,1a4.8,4.8,0,0,1-2.4.7c-1.9,0-3.3-1.3-3.3-3.6A3.3,3.3,0,0,1,573.9,141.2Zm1.5,3c0-1.1-.5-1.8-1.4-1.8s-1.5.7-1.7,1.8Z" transform="translate(0 0)"/>
    <path class="cls-7" d="M578.4,146.4a2.9,2.9,0,0,0,1.9.8c.7,0,1.1-.4,1.1-.8s-.8-.9-1.5-1.1-1.9-.9-1.9-2,.9-2.1,2.5-2.1a4.2,4.2,0,0,1,2.3.8l-.8,1a3.2,3.2,0,0,0-1.5-.6c-.7,0-1,.3-1,.8s.7.7,1.4,1,2,.8,2,2.1-.9,2.1-2.7,2.1a4.8,4.8,0,0,1-2.6-.9Z" transform="translate(0 0)"/>
    <path class="cls-7" d="M584.6,142.6h-1v-1.2h1.1l.2-1.9h1.3v1.9H588v1.2h-1.8v3.3c0,.8.3,1.2,1,1.2h.7l.3,1.2-1.4.2c-1.6,0-2.2-1-2.2-2.5Z" transform="translate(0 0)"/>
  </g>
  <g>
    <path class="cls-7" d="M513.5,158.5h-2.7v-1.4h6.9v1.4h-2.6v7.8h-1.6Z" transform="translate(0 0)"/>
    <path class="cls-7" d="M518.5,159.4h1.3v1.2h.1a2.3,2.3,0,0,1,1.9-1.4h.8l-.3,1.4h-.7a1.9,1.9,0,0,0-1.6,1.4v4.3h-1.6Z" transform="translate(0 0)"/>
    <path class="cls-7" d="M526.4,159.2a3.6,3.6,0,1,1-3.3,3.6A3.3,3.3,0,0,1,526.4,159.2Zm0,5.9c1,0,1.6-.9,1.6-2.3s-.6-2.3-1.6-2.3-1.6.9-1.6,2.3S525.4,165.1,526.4,165.1Z" transform="translate(0 0)"/>
    <path class="cls-7" d="M532.9,166.8V169h-1.6v-9.6h1.3v.7h0a3.6,3.6,0,0,1,2.1-.9c1.7,0,2.7,1.4,2.7,3.5s-1.4,3.7-2.9,3.7a3.4,3.4,0,0,1-1.8-.7Zm1.3-1.7c1,0,1.7-.8,1.7-2.4s-.5-2.2-1.5-2.2a2.2,2.2,0,0,0-1.5.8v3.2A2.2,2.2,0,0,0,534.2,165.1Z" transform="translate(0 0)"/>
    <path class="cls-7" d="M539,157.3a.9.9,0,0,1,1-1,1,1,0,0,1,1,1,1,1,0,0,1-1,.9A.9.9,0,0,1,539,157.3Zm.1,2.1h1.7v6.9h-1.7Z" transform="translate(0 0)"/>
    <path class="cls-7" d="M545.8,159.2a2.8,2.8,0,0,1,2,.8l-.7,1a2.1,2.1,0,0,0-1.2-.5c-1.1,0-1.9.9-1.9,2.3s.8,2.3,1.9,2.3a2.5,2.5,0,0,0,1.4-.6l.6,1a3.1,3.1,0,0,1-2.2.9c-1.9,0-3.3-1.3-3.3-3.6A3.4,3.4,0,0,1,545.8,159.2Z" transform="translate(0 0)"/>
    <path class="cls-7" d="M552.9,161.9c0-.8-.3-1.4-1.2-1.4a3.7,3.7,0,0,0-2,.7l-.6-1.1a5.5,5.5,0,0,1,2.9-.9c1.7,0,2.5,1.1,2.5,3v4.1h-1.3v-.8H553a3.3,3.3,0,0,1-2.1.9,1.9,1.9,0,0,1-2-2C548.9,162.9,550.1,162.2,552.9,161.9Zm-1.5,3.3a2.1,2.1,0,0,0,1.5-.8v-1.5c-1.9.2-2.5.7-2.5,1.4S550.8,165.2,551.4,165.2Z" transform="translate(0 0)"/>
    <path class="cls-7" d="M556.5,156.4h1.6v8.2c0,.4.2.5.3.5h.3l.2,1.2H558c-1.1,0-1.5-.7-1.5-1.9Z" transform="translate(0 0)"/>
    <path class="cls-7" d="M567.5,163.8h-3.1l-.7,2.5h-1.6l3-9.2H567l2.9,9.2h-1.7Zm-.4-1.3-.3-1.1c-.3-1-.5-2-.8-3h-.1c-.2,1-.5,2-.8,3l-.3,1.1Z" transform="translate(0 0)"/>
    <path class="cls-7" d="M574.3,157.6h-.8c-.5,0-.8.3-.8,1.1v.8H574v1.2h-1.3v5.7h-1.6v-5.7h-1v-1.2h1v-.7c0-1.5.6-2.5,2.2-2.5l1.3.2Z" transform="translate(0 0)"/>
    <path class="cls-7" d="M575.2,159.4h1.3l.2,1.2h0a2.3,2.3,0,0,1,2-1.4h.7l-.2,1.4h-.8a1.9,1.9,0,0,0-1.6,1.4v4.3h-1.6Z" transform="translate(0 0)"/>
    <path class="cls-7" d="M580.2,157.3a1,1,0,0,1,1-1,.9.9,0,0,1,1,1,.9.9,0,0,1-1,.9A1,1,0,0,1,580.2,157.3Zm.2,2.1H582v6.9h-1.6Z" transform="translate(0 0)"/>
    <path class="cls-7" d="M587.1,159.2a2.8,2.8,0,0,1,2,.8l-.8,1a1.6,1.6,0,0,0-1.1-.5c-1.1,0-1.9.9-1.9,2.3s.8,2.3,1.8,2.3a2.5,2.5,0,0,0,1.5-.6l.6,1a3.1,3.1,0,0,1-2.2.9c-1.9,0-3.3-1.3-3.3-3.6A3.4,3.4,0,0,1,587.1,159.2Z" transform="translate(0 0)"/>
    <path class="cls-7" d="M594.2,161.9c0-.8-.3-1.4-1.3-1.4a3.4,3.4,0,0,0-1.9.7l-.6-1.1a5.2,5.2,0,0,1,2.8-.9c1.8,0,2.6,1.1,2.6,3v4.1h-1.3l-.2-.8h0a3.3,3.3,0,0,1-2.1.9,2,2,0,0,1-2.1-2C590.1,162.9,591.4,162.2,594.2,161.9Zm-1.5,3.3a2.2,2.2,0,0,0,1.5-.8v-1.5c-1.9.2-2.5.7-2.5,1.4S592.1,165.2,592.7,165.2Z" transform="translate(0 0)"/>
  </g>
  <g>
    <path class="cls-8" d="M511.7,248.7h-1v-1.3h1.1l.2-1.9h1.3v1.9h1.8v1.3h-1.8v3.2c0,.8.4,1.2,1,1.2h.7l.3,1.2-1.4.2c-1.6,0-2.2-1-2.2-2.5Z" transform="translate(0 0)"/>
    <path class="cls-8" d="M520.1,249.9c0-.8-.3-1.4-1.3-1.4a3.4,3.4,0,0,0-1.9.7l-.6-1.1a5.2,5.2,0,0,1,2.8-.9c1.8,0,2.6,1.1,2.6,3v4.1h-1.3l-.2-.8h0a3.3,3.3,0,0,1-2.1.9,2,2,0,0,1-2.1-2C516,250.9,517.3,250.2,520.1,249.9Zm-1.5,3.3a2.2,2.2,0,0,0,1.5-.8v-1.5c-1.9.2-2.5.7-2.5,1.4S518,253.2,518.6,253.2Z" transform="translate(0 0)"/>
    <path class="cls-8" d="M525,250.7l-2-3.3h1.7l.8,1.3.6,1.1h.1l.5-1.1.6-1.3H529l-2,3.5,2.2,3.4h-1.8l-.8-1.4-.7-1.2h-.1l-.6,1.2-.7,1.4h-1.7Z" transform="translate(0 0)"/>
    <path class="cls-8" d="M534,249.9c0-.8-.3-1.4-1.2-1.4a3.7,3.7,0,0,0-2,.7l-.6-1.1a5.5,5.5,0,0,1,2.9-.9c1.7,0,2.5,1.1,2.5,3v4.1h-1.3v-.8h-.1a3.3,3.3,0,0,1-2.1.9,1.9,1.9,0,0,1-2-2C530,250.9,531.2,250.2,534,249.9Zm-1.5,3.3a2.1,2.1,0,0,0,1.5-.8v-1.5c-1.9.2-2.5.7-2.5,1.4S531.9,253.2,532.5,253.2Z" transform="translate(0 0)"/>
    <path class="cls-8" d="M540.4,247.4h1.4v1.2h0a2.5,2.5,0,0,1,2-1.4h.8l-.3,1.5-.7-.2c-.6,0-1.2.4-1.6,1.5v4.2h-1.7Z" transform="translate(0 0)"/>
    <path class="cls-8" d="M548.3,247.2c1.8,0,2.8,1.4,2.8,3.3,0,.3,0,.6-.1.7h-4.3a1.9,1.9,0,0,0,2,2,3,3,0,0,0,1.6-.5l.5,1a4.2,4.2,0,0,1-2.3.7,3.3,3.3,0,0,1-3.4-3.6A3.4,3.4,0,0,1,548.3,247.2Zm1.4,3c0-1.1-.5-1.7-1.4-1.7a1.7,1.7,0,0,0-1.6,1.7Z" transform="translate(0 0)"/>
    <path class="cls-8" d="M554.3,254.8V257h-1.7v-9.6H554v.7h0a3.6,3.6,0,0,1,2.1-.9c1.7,0,2.7,1.4,2.7,3.5s-1.4,3.7-2.9,3.7a3.4,3.4,0,0,1-1.8-.7Zm1.3-1.7c1,0,1.7-.8,1.7-2.4s-.5-2.2-1.5-2.2a2.2,2.2,0,0,0-1.5.8v3.2A2.2,2.2,0,0,0,555.6,253.1Z" transform="translate(0 0)"/>
    <path class="cls-8" d="M560.5,247.4h1.4v1.2h0a2.5,2.5,0,0,1,2-1.4h.8l-.3,1.5-.7-.2c-.6,0-1.2.4-1.7,1.5v4.2h-1.6Z" transform="translate(0 0)"/>
    <path class="cls-8" d="M568.3,247.2c1.9,0,2.9,1.4,2.9,3.3,0,.3,0,.6-.1.7h-4.4a2.1,2.1,0,0,0,2.1,2,3,3,0,0,0,1.6-.5l.5,1a4.5,4.5,0,0,1-2.3.7,3.6,3.6,0,0,1-.3-7.2Zm1.5,3c0-1.1-.5-1.7-1.4-1.7a1.8,1.8,0,0,0-1.7,1.7Z" transform="translate(0 0)"/>
    <path class="cls-8" d="M572.8,252.4a2.9,2.9,0,0,0,1.9.8c.7,0,1.1-.3,1.1-.8s-.8-.8-1.5-1.1-1.9-.9-1.9-2,.9-2.1,2.5-2.1a4.2,4.2,0,0,1,2.3.8l-.8,1a2.5,2.5,0,0,0-1.5-.6c-.7,0-1,.4-1,.8s.7.7,1.4,1,2,.8,2,2.1-.9,2.1-2.7,2.1a4.8,4.8,0,0,1-2.6-.9Z" transform="translate(0 0)"/>
    <path class="cls-8" d="M581.5,247.2c1.8,0,2.8,1.4,2.8,3.3,0,.3,0,.6-.1.7h-4.3a1.9,1.9,0,0,0,2,2,3,3,0,0,0,1.6-.5l.5,1a4.2,4.2,0,0,1-2.3.7,3.3,3.3,0,0,1-3.4-3.6A3.4,3.4,0,0,1,581.5,247.2Zm1.4,3c0-1.1-.5-1.7-1.4-1.7a1.7,1.7,0,0,0-1.6,1.7Z" transform="translate(0 0)"/>
    <path class="cls-8" d="M585.8,247.4h1.4v.9h0a3.6,3.6,0,0,1,2.3-1.1c1.5,0,2.1,1,2.1,2.7v4.4h-1.6v-4.1c0-1.2-.3-1.6-1.1-1.6a1.9,1.9,0,0,0-1.5.9v4.8h-1.7Z" transform="translate(0 0)"/>
    <path class="cls-8" d="M593.9,248.7h-1v-1.3H594l.2-1.9h1.4v1.9h1.7v1.3h-1.7v3.2q0,1.2.9,1.2h.7l.3,1.2-1.4.2c-1.6,0-2.2-1-2.2-2.5Z" transform="translate(0 0)"/>
    <path class="cls-8" d="M601.3,247.2c1.9,0,2.9,1.4,2.9,3.3a5.6,5.6,0,0,1-.1.7h-4.4a2,2,0,0,0,2.1,2,3.7,3.7,0,0,0,1.6-.5l.5,1a4.8,4.8,0,0,1-2.4.7c-1.9,0-3.3-1.3-3.3-3.6A3.3,3.3,0,0,1,601.3,247.2Zm1.5,3c0-1.1-.5-1.7-1.4-1.7a1.7,1.7,0,0,0-1.7,1.7Z" transform="translate(0 0)"/>
    <path class="cls-8" d="M608.2,247.2a2.3,2.3,0,0,1,1.8.8v-3.6h1.7v9.9h-1.4v-.8h0a2.9,2.9,0,0,1-2,.9c-1.7,0-2.8-1.3-2.8-3.6S606.7,247.2,608.2,247.2Zm.3,5.9a1.6,1.6,0,0,0,1.4-.8v-3.2a2,2,0,0,0-1.4-.6c-.8,0-1.6.9-1.6,2.3S607.5,253.1,608.5,253.1Z" transform="translate(0 0)"/>
  </g>
  <g>
    <path class="cls-8" d="M510.7,215.8a13.7,13.7,0,0,0,10.8,5c5.4,0,9.3-3.5,9.3-8.9s-4-9.3-13.7-9.3v-1.8c9.1,0,12.3-3.9,12.3-8.6s-3.2-7.5-8.1-7.5a12.1,12.1,0,0,0-8.9,4.3l-1.2-1.3c2.5-2.5,5.7-4.7,10.1-4.7s10,3.3,10,9.1-3.2,8.1-7.4,9.5v.2c4.8,1,8.8,4.5,8.8,10s-4.9,10.7-11.3,10.7-9.5-2.9-11.9-5.4Z" transform="translate(0 0)"/>
    <path class="cls-8" d="M538.8,202.6c0-12.6,3.9-19.6,11-19.6s11.1,7,11.1,19.6-3.9,19.9-11.1,19.9S538.8,215.2,538.8,202.6Zm20.2,0c0-11.7-3.6-17.9-9.2-17.9s-9.1,6.2-9.1,17.9,3.5,18.2,9.1,18.2S559,214.4,559,202.6Z" transform="translate(0 0)"/>
    <path class="cls-8" d="M566.8,202.6c0-12.6,3.9-19.6,11.1-19.6s11,7,11,19.6-3.9,19.9-11,19.9S566.8,215.2,566.8,202.6Zm20.2,0c0-11.7-3.5-17.9-9.1-17.9s-9.2,6.2-9.2,17.9,3.6,18.2,9.2,18.2S587,214.4,587,202.6Z" transform="translate(0 0)"/>
    <path class="cls-8" d="M594.9,202.6c0-12.6,3.9-19.6,11-19.6s11.1,7,11.1,19.6-3.9,19.9-11.1,19.9S594.9,215.2,594.9,202.6Zm20.2,0c0-11.7-3.6-17.9-9.2-17.9s-9.1,6.2-9.1,17.9,3.6,18.2,9.1,18.2S615.1,214.4,615.1,202.6Z" transform="translate(0 0)"/>
  </g>
</svg>
