<svg xmlns="http://www.w3.org/2000/svg" viewBox="0 0 78.6 78.6" height="22" width="22" aria-labelledby="Title_1" role="img">
<title id="Title_1">Previous</title>
     <path d="M67.1,11.4a39.7,39.7,0,0,0-55.7,0,39.7,39.7,0,0,0,.1,55.8c15.1,15.2,40.4,15.2,55.6,0A39.7,39.7,0,0,0,67.1,11.4Zm-5.2,5.3a31.7,31.7,0,0,1-.1,45.1A31.9,31.9,0,1,1,16.7,16.7,31.7,31.7,0,0,1,61.9,16.7ZM37.8,24.2a3.2,3.2,0,0,0-4.7.2L20.8,36.7c-1.9,1.9-1.5,3.6,0,5.2L33.2,54.3a3.2,3.2,0,0,0,4.7.1,3.2,3.2,0,0,0-.2-4.7l-3.9-4-4.6-3.5,8.8.3H55.8a3.2,3.2,0,0,0,2.3-5.4,3.3,3.3,0,0,0-2.4-1H37.9l-8.7.3,4.6-3.6,3.9-3.9C39.1,27.4,39.2,25.6,37.8,24.2Z"/>
</svg>
