<svg xmlns="http://www.w3.org/2000/svg" viewBox="0 0 78.6 78.6" height="22" width="22" aria-labelledby="Title_1" role="img">
<title id="Title_1">Download</title>
      <path d="M11.4,11.4c-15.2,15.2-15.2,40.5,0,55.8S52,82.3,67.2,67.1a39.7,39.7,0,0,0,0-55.7C51.9-3.8,26.6-3.8,11.4,11.4Zm5.3,5.3a32,32,0,1,1,0,45.2A31.7,31.7,0,0,1,16.7,16.7Zm7.5,24a3.4,3.4,0,0,0,.2,4.8L36.7,57.7c1.9,1.9,3.6,1.6,5.2,0L54.3,45.3a3.1,3.1,0,0,0,.1-4.6,3.1,3.1,0,0,0-4.7.2l-4,3.9-3.5,4.6.3-8.8V22.8a3,3,0,0,0-.9-2.4,2.9,2.9,0,0,0-4.5,0,3.3,3.3,0,0,0-1,2.4V40.7l.3,8.6-3.6-4.5-3.9-3.9A3.2,3.2,0,0,0,24.2,40.7Z"/>
</svg>
