<svg xmlns="http://www.w3.org/2000/svg" viewBox="0 0 78.6 78.6" height="22" width="22" aria-labelledby="Title_1" role="img">
<title id="Title_1">Next</title>
       <path d="M11.4,67.2c15.2,15.2,40.5,15.2,55.8,0s15.1-40.6-.1-55.8a39.7,39.7,0,0,0-55.7,0C-3.8,26.7-3.8,52,11.4,67.2Zm5.3-5.3a32,32,0,1,1,45.2,0A31.8,31.8,0,0,1,16.7,61.9Zm24-7.6a3.3,3.3,0,0,0,4.8-.1L57.7,41.9c1.9-1.9,1.6-3.6,0-5.2L45.3,24.3a3.1,3.1,0,0,0-4.6-.1c-1.4,1.4-1.3,3.2.2,4.7l3.9,4,4.6,3.5L40.6,36H22.8a3.4,3.4,0,0,0-2.4.9,3,3,0,0,0,0,4.6,3.3,3.3,0,0,0,2.4,1H40.7l8.6-.3-4.5,3.6-3.9,3.9C39.4,51.2,39.4,53,40.7,54.3Z"/>
</svg>
