<?xml version="1.0" encoding="utf-8"?>
<!-- Generator: Adobe Illustrator 24.2.3, SVG Export Plug-In . SVG Version: 6.00 Build 0)  -->
<svg version="1.1" id="Layer_1" xmlns="http://www.w3.org/2000/svg" xmlns:xlink="http://www.w3.org/1999/xlink" x="0px" y="0px"
	 viewBox="0 0 91.9 92.8" style="enable-background:new 0 0 91.9 92.8;" xml:space="preserve">
<style type="text/css">
	.st0{fill:#5E5E5E;}
</style>
<path class="st0" d="M40.8,68.3c6.2,0,12-2,16.7-5.4l17.7,17.7c0.8,0.8,1.9,1.2,3.1,1.2c2.4,0,4.1-1.9,4.1-4.2c0-1.1-0.4-2.2-1.2-3
	L63.5,57c3.7-4.8,5.9-10.8,5.9-17.4C69.4,23.9,56.5,11,40.8,11S12.1,23.9,12.1,39.6S25,68.3,40.8,68.3z M40.8,62.1
	c-12.3,0-22.5-10.2-22.5-22.5s10.2-22.5,22.5-22.5s22.5,10.2,22.5,22.5S53.1,62.1,40.8,62.1z"/>
</svg>
