<?xml version="1.0" encoding="utf-8"?>
<!-- Generator: Adobe Illustrator 24.2.3, SVG Export Plug-In . SVG Version: 6.00 Build 0)  -->
<svg version="1.1" id="Layer_1" xmlns="http://www.w3.org/2000/svg" xmlns:xlink="http://www.w3.org/1999/xlink" x="0px" y="0px"
	 viewBox="0 0 101 101" style="enable-background:new 0 0 101 101;" xml:space="preserve">
<style type="text/css">
	.st0{fill:#666666;}
</style>
<g id="Medium-M" transform="matrix(1 0 0 1 1687.3 1126)">
	<path class="st0" d="M-1636.8-1037c21.7,0,39.5-17.9,39.5-39.5c0-21.7-17.9-39.5-39.6-39.5c-21.6,0-39.4,17.9-39.4,39.5
		C-1676.3-1054.8-1658.4-1037-1636.8-1037z M-1650.1-1059.6c-2,0-3.6-1.6-3.6-3.7c0-1,0.4-1.9,1.1-2.5l10.6-10.7l-10.6-10.6
		c-0.7-0.6-1.1-1.6-1.1-2.5c0-2,1.6-3.6,3.6-3.6c1.1,0,1.9,0.4,2.6,1.1l10.6,10.6l10.7-10.6c0.8-0.8,1.6-1.1,2.6-1.1
		c2,0,3.7,1.6,3.7,3.6c0,1-0.3,1.8-1.1,2.5l-10.6,10.7l10.6,10.6c0.7,0.7,1.1,1.6,1.1,2.6c0,2-1.6,3.7-3.6,3.7c-1.1,0-2-0.4-2.7-1.1
		l-10.6-10.6l-10.6,10.6C-1648.1-1060-1649-1059.6-1650.1-1059.6z"/>
</g>
</svg>
