<svg xmlns="http://www.w3.org/2000/svg" height="18" width="18" viewBox="0 0 80.7 80.7" class="syn-symbol status" aria-labelledby="Title_1" role="img" >
<title id="Title_1">The editorial status of this taxon is Accepted</title>
<circle cx="40.3" cy="40.3" r="40.3" fill="#aac2c4"/>
<path fill="white"  d="M20.5,61.1a9.3,9.3,0,0,1,.7-3.1L34.3,21c1.2-3.5,2.9-5,6.1-5s4.9,1.5,6.1,5l13,37a9.3,9.3,0,0,1,.6,3c0,2.1-1.5,3.4-3.7,3.4s-3.4-1.1-4.2-3.8l-3.3-9.8H31.7l-3.3,9.8c-.9,2.8-2,3.8-4.2,3.8S20.5,63.1,20.5,61.1ZM47,44.7,40.5,24.6h-.4L33.5,44.7Z"/>
</svg>