<svg xmlns="http://www.w3.org/2000/svg" height="18" width="18" viewBox="0 0 80.7 80.7" class="syn-symbol status" aria-labelledby="Title_1" role="img">
<title id="Title_1">The editorial status of this taxon is Synonym</title>
<circle cx="40.3" cy="40.3" r="40.3" fill="#aac2c4"/>
<path fill="white"  d="M25.8,50.6c1.5,0,2.6.7,4.1,2.6a12.8,12.8,0,0,0,10.8,5.1c6.1,0,9.6-2.5,9.6-6.8s-2.4-5.8-7.6-7.1l-7.5-2q-12-2.9-12-12.9c0-8.5,6.8-14.1,17-14.1,5.4,0,10.2,1.6,13.2,4.4s3.5,4.3,3.5,6.6a3,3,0,0,1-3.2,3.2,3.9,3.9,0,0,1-3.5-2c-1.8-3.5-5.4-5.5-9.8-5.5s-9.1,2.7-9.1,6.8,2.3,5.6,6.7,6.7l7.5,1.9c8.7,2.1,12.7,6.2,12.7,13.1,0,8.9-7,14.4-17.9,14.4-5.9,0-11.2-1.6-14.2-4.5s-3.6-4.3-3.6-6.3A3.3,3.3,0,0,1,25.8,50.6Z"/>
</svg>	