<svg xmlns="http://www.w3.org/2000/svg" height="18" width="18" viewBox="0 0 80.7 80.7" class="syn-symbol status" aria-labelledby="Title_1" role="img" fill="#aac2c4">
<title id="Title_1">The editorial status of this taxon is Ambiguous</title>
<circle cx="40.3" cy="40.3" r="40.3"/>
<path fill="white"  d="M43,36c3.6-2.9,5.2-4.6,5.2-7.8S45.1,22,40.9,22A8,8,0,0,0,33,26.9c-1,1.6-1.7,2.2-3.1,2.2a2.9,2.9,0,0,1-3-3.1,9.8,9.8,0,0,1,3.7-7c2.5-2.1,6.1-3.3,10.7-3.3,8.8,0,14.8,4.8,14.8,12.2,0,5-2.5,8-7.1,11.6s-4.8,4.2-5.4,7.5-1.5,3.2-3.7,3.2a3.2,3.2,0,0,1-3.4-3.5C36.5,42.3,37.9,40,43,36ZM40,56a4.5,4.5,0,0,1,4.7,4.5,4.7,4.7,0,0,1-9.4,0A4.5,4.5,0,0,1,40,56Z"/>
</svg>	
