<?xml version="1.0" encoding="utf-8"?>
<!-- Generator: Adobe Illustrator 24.0.0, SVG Export Plug-In . SVG Version: 6.00 Build 0)  -->
<svg version="1.1" id="Layer_1" xmlns="http://www.w3.org/2000/svg" xmlns:xlink="http://www.w3.org/1999/xlink" x="0px" y="0px"
	 viewBox="0 0 162 32" style="enable-background:new 0 0 162 32;" xml:space="preserve" preserveAspectRatio="xMinYMin meet" class="undob-logo">
	 
<style type="text/css">
	.undob-st0{fill:#dedede;}
	.undob-st1{fill:white;}
	.undob-st2{fill:white;}
	.undob-st3{fill:white;}
</style>	 

<path class="undob-st0" d="M125.4,11.2c-0.2,0.1-0.5,0.3-0.7,0.5c-0.2,0.2-0.5,0.6-0.6,1c-0.2,0.8-0.5,1.6-1.3,1.7c-0.7,0.1-0.9-0.5-0.6-1
	c0.1-0.1,0.2-0.3,0.2-0.5c-0.5,0.5-1.1,0.8-1.7,0.5c-0.6-0.3-0.5-0.8,0.1-1.2c0.4-0.3,1.3-0.8,2.2-1.2c-0.1,0-0.1-0.1-0.1-0.1
	c-0.1-0.1-0.1-0.2-0.2-0.3c-0.1-0.1-0.1-0.2-0.1-0.2c-0.1,0-0.1,0-0.1-0.1c-0.1-0.1-0.1-0.2,0.1-0.3c-0.1-0.1-0.2-0.1-0.3-0.1
	s-0.2,0.1-0.3,0.1c-0.1,0.1-0.1,0.1-0.1,0.1c-0.1,0.1-0.1,0.2,0.1,0.3v0.1l-0.1,0.1h-0.1h-0.1v-0.1c-0.1-0.1-0.1-0.1-0.1-0.2
	s0.1-0.2,0.1-0.3c0.1-0.1,0.1-0.1,0.1-0.1c0.1-0.1,0.2-0.1,0.3-0.1c0.2,0,0.3,0.1,0.5,0.2h0.1h0.1l0.1-0.1c0-0.1,0-0.1,0.1-0.2v0.1
	V9.7h0.1l-0.1-0.1c-0.1-0.1-0.1-0.3-0.1-0.4l0,0c0-0.1,0.1-0.1,0.1-0.1c0-0.1,0.1-0.1,0.1-0.1c0.1-0.1,0.1-0.1,0.2-0.1
	c0.1-0.1,0.1-0.1,0.2-0.1c0.1,0,0.2,0.1,0.2,0.1v0.1V9h-0.1h-0.1c-0.1-0.1-0.3-0.1-0.5,0.1s-0.2,0.5,0.1,0.7c0.1-0.1,0.2-0.1,0.3,0
	l0.1,0.1h0.2c0.2,0,0.3,0.1,0.5,0.2c0.1,0.1,0.1,0.1,0.1,0.1c0.3-0.8,0.8-1.7,1.1-2.3c0.3-0.5,0.9-0.7,1.2-0.1c0.3,0.7,0,1.3-0.5,2
	c0.2-0.1,0.4-0.2,0.6-0.3c0.5-0.3,1.1-0.2,1,0.5C127.3,10.7,126.3,11,125.4,11.2 M126.7,13.8c-0.2,0.1-0.5,0.1-0.8,0.1
	c0.1-0.2,0.2-0.4,0.3-0.5c0.1-0.2,0.3-0.2,0.5-0.3C126.8,13.3,126.8,13.6,126.7,13.8 M125.5,13.8c-0.1-0.1-0.2-0.1-0.4-0.1
	c0.1-0.4,0.2-0.7,0.5-1c0.2-0.2,0.6-0.4,1-0.5c0.1,0.1,0.1,0.2,0.2,0.4c-0.3,0.1-0.5,0.2-0.8,0.5C125.7,13.2,125.6,13.5,125.5,13.8
	 M124.4,13.2c0.1-0.5,0.2-0.9,0.6-1.2c0.3-0.3,0.7-0.5,1.1-0.5c0.1,0.1,0.2,0.2,0.2,0.3c-0.4,0.1-0.8,0.3-1,0.6
	c-0.3,0.3-0.5,0.7-0.5,1.1C124.6,13.4,124.5,13.3,124.4,13.2 M140.1,8.1h-5c-1-4.5-5.1-7.8-9.9-7.8c-5.7,0-10.2,4.6-10.2,10.2
	c0,1,0.1,2,0.4,2.9c0.1,0.1,0.2,0.2,0.2,0.3c-0.1-0.3,0-0.7,0.1-0.8c0.3,0.1,0.5,0.4,0.6,0.8c0.1-1.3,0.5-2.8,1.3-3.9
	c-0.2-0.4-0.3-0.9,0-1.2c0.1-0.1,0.9-0.5,0.9-0.5c0.1-0.1,0.1,0.3,0.1,0.6c0.2-0.1,0.6-0.3,0.8-0.2c0.2,0.1,0,0.4-0.1,0.7
	c0.2,0.1,0.5,0.3,0.6,0.4c0,0.1-0.2,0.2-0.5,0.4c0.2,0.1,0.3,0.3,0.4,0.4c0,0.2-0.9,0.3-1.2,0.3c-0.1,0-0.2,0-0.3-0.1
	c-0.1-0.1-0.3-0.2-0.5-0.4c-1,1.5-1.4,3.4-0.7,5.2c0.3,0.8,0.7,1.7,1.3,2.5c0.5,0.6,1.2,1.2,2,1.6c0.1,0.1,0.1,0.1,0.2,0.1
	c1.3,0.7,3,1.1,4.6,1.1h0.1h0.1c0.3,0,0.5-0.1,0.9-0.1c4.5-0.5,8.1-3.9,8.9-8.2h4.9L140.1,8.1L140.1,8.1z"/>
<path class="undob-st0" d="M150,6.8c0.8,0.4,2,1.2,2.8,2.2c0-1.2,0.3-2,0.5-2.4c0.1-0.2,0.2-0.3,0.4,0c0.3,0.5,0.5,1.2,0.8,2.3
	c-0.3,0.1-0.6,0.1-0.9,0.3c0.5-0.2,1-0.2,1.6-0.1c0.7,0.2,0.9,0.8,0.7,1.5c-0.1,0.1-0.1,0.2,0.1,0.4c0.2,0.3,0.5,0.8,0.5,1.1
	c-0.2-0.3-0.5-0.7-0.7-1c-0.1-0.1-0.2-0.1-0.3-0.2c-0.2-0.1-0.5-0.2-0.8-0.2c-0.3,0-0.3,0.1-0.4,0.3c-0.1,0.3-0.4,0.7-0.9,1
	c-0.4,0.2-1.2,0.2-1.6,0.2c-0.4,0.1-0.8,0.3-1,0.6c-0.1,0.1-0.1,0-0.1-0.1c0.1-0.6,0.5-1.5,1-2.1c-1.3-1.3-1.7-3.2-1.7-3.9
	C149.6,6.8,149.6,6.7,150,6.8 M144.2,15.4c0.4,0.1,0.7-0.1,0.7-0.1c0.6-0.3,1.3,0,1.3,0c0.2,0.1,0.7,0.1,0.7,0.1
	c0.4,0,0.9,0.1,0.9,0.1c0.2-0.1,0.5,0.1,0.5,0.1c0.2-0.2,0.2,0.1,0.2,0.1c0.3,0.1,0.5,0.3,0.5,0.3c0.1,0.1,0.1,0.2,0.1,0.2
	c-0.1,0.1,0.5,0.5,0.5,0.5c0.2,0.1-0.1,0.2-0.1,0.2c-0.2,0.2-0.5,0.2-0.5,0.2c-0.1-0.1-0.9,0.1-0.9,0.1c-0.2,0-0.7,0.2-0.7,0.2
	c0.2,0.4,0,1.5,0.5,2.1c0.1,0.1,0.1,0.2,0.2,0.4c1,0.4,2.3,0.6,3.5,0.6h0.1h0.1c0.3,0,0.5-0.1,0.8-0.1c1.3-0.1,2.5-0.5,3.6-1
	c1.2-1.2,1.7-2.8,1.6-4.5c-0.2,0.1-0.6,0.1-0.6,0.1l-0.2-0.1c-0.2-0.2-0.9-0.7-0.8-0.8c0.1-0.1,0.3-0.1,0.5-0.2
	c-0.2-0.2-0.3-0.5-0.2-0.6c0.1-0.1,0.5-0.1,0.7-0.1c0.1-0.3,0.1-0.7,0.2-0.7c0.1,0,0.4,0.4,0.5,0.6c0.1-0.3,0.3-0.6,0.4-0.5
	c0,0,0.5,0.8,0.5,0.9c0.1,0.5-0.3,0.8-0.6,1c0.2,1.2-0.1,2.9-1,4.2c2.8-1.7,4.6-4.9,4.6-8.5C162,4.5,157.5,0,151.8,0
	s-10.2,4.6-10.2,10.2c0,1.7,0.4,3.4,1.2,4.7C143.4,15.3,144.2,15.4,144.2,15.4"/>
<path class="undob-st1" d="M53.5,14.3c0,0,0.1,0.4-0.1,0.6c0,0-0.3-0.3-0.2-0.5c-0.3,0-0.5-0.4-0.5-0.4c0.3-0.1,0.6,0.1,0.6,0.1
	c0.4-1.7,1.7-1.2,1.7-1.2S55.4,14.4,53.5,14.3"/>
<path class="undob-st1" d="M48.9,17.8c0,0,0.1,0.5-0.2,0.8c0,0-0.3-0.5-0.2-0.8c-0.3-0.1-0.5-0.6-0.5-0.6c0.4-0.1,0.8,0.2,0.8,0.2
	c0.8-2.2,2.6-1.1,2.6-1.1S51.1,18.2,48.9,17.8 M48.8,14.9c0.4-1.7,1.7-1.2,1.7-1.2s0.2,1.5-1.6,1.5c0,0,0.1,0.4-0.1,0.6
	c0,0-0.3-0.3-0.2-0.5c-0.3,0-0.5-0.4-0.5-0.4C48.6,14.7,48.8,14.9,48.8,14.9 M58.5,13.4c2.4-1.2,2.4-5.5,2.4-5.7
	c0-5.8-4.5-7.5-9.3-7.5c-10.2,0.3-9.9,9.7-9.9,9.7H49c0.1-0.8,0.7-1.5,1.5-1.5s1.6,0.7,1.6,1.5c0,0.9-0.5,1.3-1.6,1.5
	c-0.6,0.1-0.9,0.2-1.7,0.3c-3.2,0.8-6.1,2.8-6.7,8.9h11.4c-0.3-0.3-2.8-2.9-0.2-4.1c0,0,0.5-0.2,0.9-0.1c0.3,0.1,0.7,0.4,0.8,0.7
	c0.1,0.3-0.1,0.8-0.4,0.8c-0.2,0.1-0.4-0.1-0.4-0.1c-0.1-0.1-0.2-0.2-0.1-0.4c0.1-0.1,0.3-0.2,0.4,0c0,0,0-0.3-0.2-0.4
	c-0.4-0.1-1,0.4-0.9,1.1c0.1,0.4,0.4,0.7,0.9,0.7c0.7,0,1.1-0.8,1.3-1c0.1-0.1,0.3-0.2,0.6-0.3c0,0,0.7-0.1,0.9,0.6
	c0,0,0.3,0.9-0.5,0.9c0,0-0.6,0-0.4-0.5c0,0,0.1-0.3,0.5-0.1c0,0-0.4-0.7-0.8-0.1c0,0-0.2,0.3-0.1,0.7c0.1,0.3,0.6,1,1.3,0.9
	c0.3-0.1,1.3-0.1,1.2-1c-0.1-0.5-1.1-2.6-0.2-4c0.5-0.7,1-0.9,1.2-0.9c0.2-0.1,0.9-0.4,1.7,0.2c0.1,0,0.1,0.1,0.1,0.1v-1L58.5,13.4z
	"/>
<path class="undob-st0" d="M67,14.4h-0.3h-0.2l0.2,2.8c0,0,0.1,0.1,0.1,0.3c0,0.2-0.1,0.3-0.1,0.3l-0.1,3.4c0.4,0.1,0.7,0.1,1.1,0.1
	l-0.1-3.5L67,14.4z"/>
<path class="undob-st0" d="M78,9.2c-0.1,0.1-0.2,0.1-0.3,0.1c-0.1,0-0.1-0.2-0.1-0.2l-0.1-0.1c0,0-0.2,0.1-0.2-0.1c0-0.1,0.1-0.2,0-0.4
	C77.2,8.3,77,8.2,77,7.9c-0.1-0.3,0.2-0.6,0.4-0.8c0.1,0,0.1-0.1,0.1-0.1c-1.5-3.8-5.1-6.5-9.6-6.5c-5.7,0-10.2,4.6-10.2,10.2
	c0,1.5,0.3,2.9,0.9,4.2c0.4-0.3,0.7-0.5,0.8-0.5c0.2-0.1,0.9-0.4,1.7,0.2c0.7,0.5,0.6,1.2,0.5,1.3c-0.1,0.2-0.2,0.4-0.6,0.5
	s-0.8-0.1-0.8-0.3c-0.1-0.2,0.1-0.4,0.2-0.5c0.2-0.1,0.5,0,0.7,0.2c0,0,0.2-0.1,0.1-0.5c-0.2-0.4-0.6-0.5-1-0.4
	c-0.3,0.1-0.7,0.6-0.7,1c-0.1,0.8,0.6,1.5,1.3,2.3c0.9,0.9,2.5,2,3.9,2.4c0.2,0.1,0.3,0.1,0.5,0.2c0.3,0.1,0.7,0.2,1,0.2l0.2-3.3
	l-0.3-3.5C66,14.1,65.6,14,65,13.7c-1-0.5-1.3-1.1-1.4-1.5c-0.1-0.4-0.2-1.3,0.5-2.7c0.8-1.2,1.3-2.3,1.2-2.8
	C65.1,6.2,64.8,6,64.6,6c-0.2,0-0.2,0-0.5,0.3c-0.3,0.3-0.5,0.2-0.7,0.5C63.2,7,63.3,8,63.3,8s-0.6,0-0.6-0.7V6.6
	c0,0-0.2-0.7,0.3-1.2C63.5,4.8,64,5,64,5s1,0.2,1.5,0.7C66,6.3,66,6.9,66,7.2c-0.1,0.4-0.5,1-1.2,2c-0.9,1.1-0.9,2-0.5,2.5
	c0.4,0.5,0.6,0.3,0.6,0.3s0.2-0.2,0.1-0.4c-0.1-0.3-0.6-1-0.1-1.9c0,0,0.6-1.6,2.6-1.3c0.2,0.1,0.4,0.1,0.6,0.2h0.1
	c0.4,0.1,1.4,0.4,1.7,2c0.1,0.1,0.1,0.3,0.1,0.4c0.1,0.1,0.1,0.1,0.1,0.1c0.7,0.6,0.6,1.3,0.6,1.3c0.2,0.5,0.2,0.9,0.2,0.9l0.1,1
	c0,0-0.2-0.5-0.5-0.6c-0.1-0.1-0.4-0.2-0.6-0.2c0.1,0.4,0.2,0.8,0.2,0.8c-0.4-0.3-0.4-0.3-0.7-0.6c-0.1-0.1-0.2-0.4-0.3-0.6
	c-0.2,0.2-0.6,0.7-1.2,1c0,0-0.3,0.1-0.7,0.2l0.5,2.8c0,0,0.1,0.1,0.2,0.3c0.1,0.2-0.1,0.3-0.1,0.3l0.2,3.5h0.1
	c2.1,0,3.9-0.6,5.5-1.6c0-0.2-0.1-0.4-0.1-0.4c-0.1-0.7-0.1-1.3,0-1.5c0.1-0.2,0.1-0.4,0.1-0.5s-0.1-0.4-0.1-0.5
	c0-0.1-0.2,0.6-0.2,0.7c-0.1,0.1-0.1,0.3-0.1,0.3v0.7c0,0.1,0,0.2,0.1,0.2c0.1,0.1,0.1,0.2,0.1,0.3s0.1,0.4,0,0.5
	c-0.1,0-0.2-0.1-0.2-0.1C73,19.1,73,19.1,72.9,19c-0.4,0-0.4-0.2-0.4-0.2v-0.2c0-0.1-0.1-0.7-0.1-0.9c0-0.2,0.1-0.3,0.1-0.4
	c0.1-0.1,0.1-0.4,0.1-0.6c0.1-0.2,0.1-0.4,0.2-0.5c0,0,0.6-0.5,0.6-0.6c0-0.1,0-0.1-0.1-0.2c-0.1-0.1-0.6,0-0.9-0.5
	c-0.2-0.3,0-0.7,0.2-0.8c0.2-0.1,0.7-0.3,1-0.1c0.2,0.1,0.2,0.2,0.2,0.5c0,0,0,0.1,0.1,0.1c0.1,0.1,0.1,0.1,0.2,0.1
	c0.1,0.1,0.1,0.2,0.1,0.2c0,0.1,0.1,0.1,0.1,0.1s0,0.1-0.1,0.1s-0.2,0.1-0.2,0.1c-0.1,0-0.1,0.1-0.1,0.1c0.1,0.1,0.1,0.1,0.2,0.1
	c0.1,0,0.4,0.1,0.5,0.1c0.1,0,0.1,0,0.1,0.1c0.1,0,0.6,0.6,0.7,0.6s0.3-0.2,0.5-0.4v-0.1c-0.1-0.1-0.1-0.5,0-0.5
	c0.1-0.1,0.2-0.3,0.2-0.3s-0.1,0-0.1-0.1c0-0.1,0.1-0.1,0.1-0.8c0.1-0.8,0.1-1.3,0.3-2.7C76.7,10,76.8,10,77,9.9
	c0.2-0.1,0.6-0.2,0.8-0.2C78,9.2,78,9.2,78,9.2"/>
<path class="undob-st0" d="M76.1,15.9c-0.1,0.1-0.5,0.7-0.6,0.7c-0.1,0.1-0.1,0.1-0.2,0c-0.1-0.1-0.6-0.4-0.8-0.5c0,0-0.1-0.1-0.1,0
	c-0.1,0.1,0.1,0.6,0.1,0.8c0.1,0.2,0.1,1,0.1,1c0,0.1,0.1,0.2,0.1,0.3c0.6-0.6,1.2-1.3,1.6-2.2l-0.1-0.5L76.1,15.9z"/>
<path class="undob-st2" d="M118.3,19.2c-0.6-0.9-1.5-2.5-1.7-4.1c-0.3,0.2-1.5,0.2-1.7,0.1c0.1-0.1,0.1-0.2,0.2-0.2
	c-0.4-0.1-0.8-0.2-0.9-0.4c0.1-0.1,0.2-0.2,0.4-0.2c-0.4-0.1-0.8-0.2-0.8-0.4c0.1-0.2,0.2-0.2,0.3-0.3c-0.5-0.2-0.9-0.6-0.8-0.8
	c0.1-0.2,0.6-0.1,1,0.2c-0.1-0.2-0.1-0.4,0-0.5c0.2,0.1,0.9,0.6,1.3,1.2c-0.1-0.3,0-0.7,0.1-0.9c0.3,0.1,0.5,0.4,0.6,0.8
	c0.1-1.3,0.5-2.8,1.3-3.9c-0.2-0.4-0.3-0.9,0-1.2c0.1-0.1,0.5-0.3,0.8-0.5V7.7c0-5.7-4.5-7.4-9.3-7.4C99.1,0.6,99.3,10,99.3,10h7.1
	c0.1-0.8,0.7-1.5,1.5-1.5s1.6,0.7,1.6,1.5c0,0.8-0.5,1.3-1.6,1.5c-0.6,0.1-0.9,0.2-1.7,0.3c-3.2,0.8-6.1,2.8-6.7,8.9h8.2h10.8v-1
	C118.6,19.5,118.4,19.4,118.3,19.2"/>
<path class="undob-st2" d="M140.6,20.9c-0.4-0.1-0.3-0.6-0.3-0.6c-0.1,0.1-0.3,0.2-0.3,0.2c-0.1,0.1,0.1,0.2,0.1,0.2
	c0.1,0.1,0.1,0.1,0.1,0.1L140.6,20.9"/>
<path class="undob-st2" d="M139.1,20.9c-0.2-0.2-0.4-0.5-0.4-0.5c-0.2-0.2,0.7-1.2,0.7-1.2c0.1-0.2,0-0.3,0-0.3c-0.1-0.3-0.2-0.9-0.2-0.9
	c-0.1-1,0.4-1.5,0.4-1.5c0.5-0.7,1.9-1,1.9-1c0.6-0.1,2.8,0.1,2.8,0.1c0.4,0.1,0.7-0.1,0.7-0.1c0.6-0.3,1.3,0,1.3,0
	c0.2,0.1,0.7,0.1,0.7,0.1c0.1,0,0.3,0,0.4,0.1v-0.1V15v-0.7v-0.8v-0.2h-2.7c2.4-1.2,2.4-5.5,2.4-5.7c-0.1-5.8-4.6-7.5-9.4-7.5
	c-10.2,0.3-9.9,9.7-9.9,9.7h7.2c0.1-0.8,0.7-1.5,1.5-1.5s1.6,0.7,1.6,1.5c0,0.9-0.5,1.3-1.6,1.5c-0.6,0.1-0.9,0.2-1.7,0.3
	c-3.2,0.8-6.1,2.8-6.7,8.9h8.2L139.1,20.9z"/>
<path class="undob-st2" d="M142,20.7c0,0.1-0.1,0.1-0.1,0.1h2.7c-0.1-0.1-0.2-0.2-0.2-0.2c0-0.2-0.2-0.6-0.2-0.6c-0.4-0.4-0.1-1.2-0.1-1.2
	c0.1-0.2-0.4,0.1-0.4,0.1c-0.2,0.1-0.9,0.1-0.9,0.1c-0.4-0.1-1,0.2-1,0.2c-0.1,0.1-0.2,0.9-0.2,0.9c-0.1,0.2,0.2,0.3,0.2,0.3
	c0.2,0,0.3,0.2,0.3,0.2C142.2,20.8,142,20.7,142,20.7"/>
<path class="undob-st2" d="M147.4,20.4c-0.1-0.1-0.2-0.1-0.2-0.1c-0.1-0.1-0.2-0.2-0.2-0.2c-0.4-0.5-1-1.5-1-1.5c-0.1,0.3-0.2,0.6-0.2,0.6
	c-0.4,0.4-0.4,1.2-0.4,1.2c0,0.1,0.3,0.1,0.3,0.1c0.2,0.1,0.2,0.2,0.2,0.2l0.1,0.1v0.1h1.6L147.4,20.4"/>
<path class="undob-st0" d="M84.5,0.2h-1v7.5h1h0.1c0.1-0.3,0.2-0.7,0.6-1C85.6,6.5,86,6.6,86,6.6S85.9,6.2,86.2,6c0.2-0.2,0.5,0,0.5,0
	s-0.2-0.3,0.2-0.6c0.3-0.3,0.7-0.2,0.7-0.2c0.5-0.1,0.8,0.7,0.8,0.7S88.8,6,89,6.3c0.2,0.2,0.1,0.5,0.1,0.6c0.1,0.1,0.2,0,0.2,0
	s0.5-0.1,0.7,0.3c0.1,0.4,0,0.6,0,0.6l0.2,0.1c0,0,0.5,0.1,0.8,0.5c0.3,0.5-0.1,0.9-0.1,1c0,0.1,0.1,0.2-0.1,0.3
	c-0.1,0.1-0.4,0-0.4,0l0.1,0.2c0,0,0.7,0.1,1,0.5c0.5,0.8,0.1,1.4-0.1,1.6c-0.3,0.4-0.7,0.6-1.2,0.6c-0.5,0.1-0.8-0.4-0.8-0.4
	s-0.1,0.2-0.6,0.6c-0.1,0.1-0.2,0.1-0.3,0.1c-0.1,0.4-0.5,1.3-0.7,2c0,0.5-0.1,1.2-0.1,2.3c-0.1,1,0,0.8,0,1s0,0.5,0.1,0.7
	c0,0.2-0.1,0.5,0,0.5c0.1,0.1,0,0.5,0,0.6c0,0.1,0.1,0.3,0.1,0.5h7.2V10.5C94.7,4.8,90.1,0.2,84.5,0.2"/>
<path class="undob-st0" d="M87.5,12.6c0,0-0.1,0.1-0.2,0.1v1.4C87.5,13.8,88,13,88,13C87.6,13,87.5,12.6,87.5,12.6"/>
<path class="undob-st2" d="M86.2,20.1v-0.7v-1c0-0.2,0-0.6-0.1-0.9c0-0.2-0.1-0.8-0.1-0.9c0.1-0.2,0-0.8,0-1.2c0-0.3,0-0.6-0.1-0.8v-0.2
	c-0.2-0.4-0.6-1-1-1.7c-0.1,0-0.2,0.1-0.2,0.1S84.5,13.1,84,13c-0.3-0.1-0.5-0.5-0.5-0.6c0-0.1-0.1,0-0.1,0s-0.2,0.2-0.4,0.2
	c-0.2-0.1-0.2-0.4-0.2-0.5c0-0.1-0.1-0.2-0.1-0.2s0.1-0.2,0.1-0.5c0.1-0.3,0.3-0.2,0.3-0.2s-0.1-0.2,0.1-0.4
	c0.1-0.1,0.4-0.1,0.4-0.1s0.1-0.2,0.3-0.2s0.5,0.3,0.5,0.3s0.1-0.2-0.1-0.3c-0.7-0.2-0.7-0.5-0.7-0.5s0-0.2-0.1-0.2
	c-0.1-0.1-0.1-0.2-0.1-0.4s0.2-0.4,0.2-0.4l0.2-0.3c0,0,0.2-0.2,0.4-0.2c0.2,0,0.2,0.1,0.2,0.1s-0.3-1,0.6-1.5
	c0.1-0.1,0.2-0.1,0.3-0.1c-1.5-3.8-5.1-6.4-9.5-6.4h-1v7.4h1c0.4,0,0.7,0.1,1,0.2c-0.1-0.1-0.1-0.1-0.1-0.2
	c-0.1-0.3,0.2-0.6,0.4-0.8c0.2-0.1,0.4-0.2,0.4-0.2c0.5-0.2,1,0.2,1.1,0.4c0.1,0.2,0.1,0.8,0,0.9c-0.1,0.3,0.1,0.6,0.1,0.6
	s0.9,0.4,1.2,0.5c0.1,0.1,0.2,0.9,0.2,1.2v1.1c0,0.1,0.1,1.6,0,1.7c-0.1,0.2-0.1,0.3-0.1,0.4C80.1,13.9,80,14,80,14
	c-0.1,0.1,0.1,0.5,0.1,0.5s0,0.3-0.1,0.5c-0.1,0.1-0.2,0.3-0.2,0.3l0.2,5.2h6.1C86.2,20.5,86.2,20.3,86.2,20.1"/>
<path class="undob-st2" d="M86.3,13.5v-0.3l0,0c-0.1-0.1,0-0.2,0-0.2v-0.5c-0.1,0.1-0.1,0.1-0.2,0.1c-0.2,0.1-0.3,0.1-0.5,0.1
	c0.3,0.5,0.5,0.8,0.7,1C86.2,13.6,86.3,13.6,86.3,13.5"/>
<path class="undob-st2" d="M99.6,11.1h-1.2h-1.5h-1.2v1.7c0.1,0.3,0.3,0.6,0.6,0.6h0.1h2.8h1.2v-1.7C100.3,11.4,100.1,11.1,99.6,11.1"/>
<path class="undob-st0" d="M44.7,28.2c0,0.5-0.2,0.7-0.7,0.7c-0.5,0-0.7-0.2-0.7-0.7v-2.9h-1.1v2.5c0,0.4,0.1,1,0.2,1.3
	c0.3,0.5,1,0.7,1.6,0.7c0.5,0,1.1-0.2,1.4-0.6c0.3-0.4,0.3-0.8,0.3-1.4v-2.5h-0.8L44.7,28.2L44.7,28.2z"/>
<path class="undob-st0" d="M48.5,26.4c-0.2,0-0.5,0.1-0.7,0.3v-0.2h-1v3.3h1.1v-2.4c0.1-0.1,0.4-0.2,0.6-0.2c0.2,0,0.4,0.2,0.4,0.4v2.1
	h1.1v-2.1C49.7,26.8,49.2,26.4,48.5,26.4"/>
<rect x="50.7" y="25.3" class="undob-st0" width="1.1" height="0.8"/>
<rect x="50.7" y="26.4" class="undob-st0" width="1.1" height="3.3"/>
<path class="undob-st0" d="M53.9,29c-0.2,0-0.3-0.1-0.3-0.3v-1.5h0.8v-0.8h-0.8v-0.7h-1.1v0.7v0.8v1.4c0,0.3,0.1,0.6,0.3,0.8
	s0.5,0.2,1,0.2c0.2,0,0.5-0.1,0.8-0.1v-0.8h-0.1C54.3,28.8,54.1,29,53.9,29"/>
<path class="undob-st0" d="M55.9,27.7c0.1-0.4,0.3-0.6,0.6-0.6c0.2,0,0.5,0.2,0.5,0.6H55.9z M56.5,26.4c-0.5,0-1.1,0.2-1.4,0.6
	c-0.2,0.3-0.3,0.7-0.3,1.1c0,0.4,0.1,0.8,0.4,1.2c0.3,0.3,1,0.5,1.5,0.5c0.5,0,0.8-0.1,1.3-0.2v-0.7h-0.1c-0.2,0.1-0.6,0.2-0.8,0.2
	c-0.4,0-1-0.2-1.1-0.6h2.2c0-0.5,0-1-0.2-1.4C57.6,26.6,56.9,26.4,56.5,26.4"/>
<path class="undob-st0" d="M60.8,28.7c0,0.1-0.1,0.2-0.2,0.2h-0.1c-0.2,0-0.4-0.1-0.5-0.2c-0.1-0.2-0.2-0.5-0.2-0.7s0.1-0.5,0.2-0.7
	c0.2-0.2,0.5-0.1,0.8-0.1V28.7L60.8,28.7z M60.8,26.5c-0.1-0.1-0.4-0.1-0.5-0.1c-0.3,0-0.8,0.1-1.1,0.4c-0.3,0.3-0.5,0.8-0.5,1.3
	c0,0.4,0.1,0.8,0.4,1.3c0.3,0.3,0.8,0.5,1.3,0.5h0.4c0.5,0,1-0.4,1-1v-3.8h-1.1L60.8,26.5L60.8,26.5z M66.8,27.8l-1.3-2.2
	c-0.1-0.2-0.4-0.4-0.7-0.4c-0.3,0-0.7,0.2-0.7,0.6v3.8h1v-2.8l1.6,2.8h1.2v-4.5h-1C66.8,25.2,66.8,27.8,66.8,27.8z"/>
<path class="undob-st0" d="M70.6,28.8c-0.2,0.1-0.4,0.2-0.5,0.2c-0.2,0-0.3-0.1-0.3-0.3s0.2-0.3,0.3-0.4l0.5-0.1V28.8z M70,26.4
	c-0.3,0-0.7,0.1-1.1,0.2v0.6h0.1c0.2-0.1,0.5-0.2,0.8-0.2s0.7,0.2,0.7,0.4c-0.3,0.1-0.6,0.1-1,0.1c-0.5,0.1-1,0.4-1.1,1.1
	c0,0.6,0.5,1.1,1.2,1.1c0.2,0,0.5-0.1,0.8-0.3v0.2h1v-2.2C71.6,26.7,70.9,26.4,70,26.4"/>
<path class="undob-st0" d="M73.8,29c-0.2,0-0.3-0.1-0.3-0.3v-1.5h0.8v-0.8h-0.8v-0.7h-1.1v0.7v0.8v1.4c0,0.3,0.1,0.6,0.3,0.8
	c0.2,0.2,0.5,0.2,1,0.2c0.2,0,0.5-0.1,0.8-0.1v-0.8h-0.1C74.3,28.8,74,29,73.8,29"/>
<rect x="75.1" y="26.4" class="undob-st0" width="1.1" height="3.3"/>
<rect x="75.1" y="25.3" class="undob-st0" width="1.1" height="0.8"/>
<path class="undob-st0" d="M78.5,29c-0.4,0-0.5-0.5-0.5-1c0-0.3,0.1-1,0.6-1c0.4,0,0.6,0.5,0.6,1C79.1,28.4,79,29,78.5,29 M78.5,26.4
	c-1,0-1.7,0.7-1.7,1.7c0,0.8,0.5,1.7,1.6,1.7c1.1,0,1.7-0.6,1.7-1.7C80.1,27.1,79.6,26.4,78.5,26.4"/>
<path class="undob-st0" d="M82.6,26.4c-0.2,0-0.5,0.1-0.7,0.3v-0.2h-1v3.3H82v-2.4c0.1-0.1,0.4-0.2,0.6-0.2c0.2,0,0.4,0.2,0.4,0.4v2.1h1.1
	v-2.1C83.9,26.8,83.4,26.4,82.6,26.4"/>
<path class="undob-st2" d="M120,26.4c-0.2,0-0.5,0.1-0.7,0.3v-0.2h-1v3.3h1.1v-2.4c0.1-0.1,0.4-0.2,0.6-0.2s0.4,0.2,0.4,0.4v2.1h1.1v-2.1
	C121.2,26.8,120.8,26.4,120,26.4"/>
<path class="undob-st0" d="M86.8,27.8c-0.2-0.1-0.5-0.2-0.8-0.3c-0.1-0.1-0.3-0.1-0.3-0.2c0-0.2,0.4-0.2,0.5-0.2c0.2,0,0.5,0.1,0.8,0.2
	h0.1v-0.7c-0.3-0.1-0.7-0.2-1.1-0.2c-0.2,0-0.5,0.1-0.7,0.1c-0.3,0.2-0.5,0.5-0.5,0.8c0,0.4,0.1,0.7,0.4,1c0.2,0.2,0.6,0.2,1,0.3
	c0.2,0.1,0.2,0.1,0.2,0.2c0,0.2-0.5,0.2-0.7,0.2c-0.2,0-0.6-0.1-1-0.2h-0.1v0.8c0.3,0.1,0.7,0.2,1.1,0.2s0.8-0.1,1.1-0.2
	c0.3-0.2,0.4-0.5,0.5-0.8C87.3,28.3,87.1,27.9,86.8,27.8"/>
<path class="undob-st2" d="M91.9,28.7h-0.5v-2.4c0-0.1,0.1-0.1,0.1-0.1H92c0.8,0,1.1,0.5,1.1,1.3C92.9,28.4,92.8,28.7,91.9,28.7
	 M91.9,25.3h-0.6c-0.5,0-1.1,0.4-1.1,1.1v3.4h1.7c1.5,0,2.1-0.8,2.2-2.2C94.1,25.9,93.4,25.3,91.9,25.3"/>
<path class="undob-st2" d="M95.7,27.7c0.1-0.4,0.3-0.6,0.6-0.6c0.2,0,0.5,0.2,0.5,0.6H95.7z M96.3,26.4c-0.5,0-1.1,0.2-1.4,0.6
	c-0.2,0.3-0.3,0.7-0.3,1.1c0,0.4,0.1,0.8,0.4,1.2c0.3,0.3,1,0.5,1.5,0.5s0.8-0.1,1.3-0.2v-0.7h-0.1c-0.2,0.1-0.6,0.2-1,0.2
	c-0.4,0-1-0.2-1.1-0.6h2.2c0-0.5,0-1-0.2-1.4C97.4,26.6,96.9,26.4,96.3,26.4"/>
<path class="undob-st2" d="M100.3,29c-0.5,0-0.7-0.4-0.7-0.8c0-0.5,0.2-1,0.7-1c0.2,0,0.6,0.1,0.8,0.2h0.1v-0.8c-0.3-0.2-0.6-0.2-1.1-0.2
	c-0.5,0-1.1,0.2-1.4,0.6c-0.2,0.3-0.2,0.7-0.2,1.1c0,0.3,0.1,0.7,0.3,1.1c0.2,0.4,0.8,0.6,1.4,0.6c0.4,0,0.7-0.1,1.1-0.2v-0.7h-0.2
	C100.9,28.9,100.6,29,100.3,29"/>
<path class="undob-st2" d="M103.7,28.8c-0.2,0.1-0.4,0.2-0.5,0.2c-0.2,0-0.3-0.1-0.3-0.3s0.2-0.3,0.3-0.4l0.5-0.1V28.8z M103.1,26.4
	c-0.3,0-0.7,0.1-1.1,0.2v0.6h0.1c0.2-0.1,0.5-0.2,0.8-0.2c0.3,0,0.7,0.2,0.7,0.4c-0.3,0.1-0.6,0.1-1,0.1c-0.5,0.1-1,0.4-1.1,1.1
	c0,0.6,0.5,1.1,1.2,1.1c0.2,0,0.5-0.1,0.8-0.3v0.2h1v-2.2C104.7,26.7,103.9,26.4,103.1,26.4"/>
<path class="undob-st2" d="M107.5,28.7c0,0.1-0.1,0.2-0.2,0.2h-0.1c-0.2,0-0.4-0.1-0.5-0.2c-0.1-0.2-0.2-0.5-0.2-0.7s0.1-0.5,0.2-0.7
	c0.2-0.2,0.5-0.1,0.8-0.1C107.5,27.1,107.5,28.7,107.5,28.7z M107.5,26.5c-0.1-0.1-0.4-0.1-0.5-0.1c-0.3,0-0.8,0.1-1.1,0.4
	c-0.3,0.3-0.5,0.8-0.5,1.3c0,0.4,0.1,0.8,0.4,1.3c0.3,0.3,0.8,0.5,1.3,0.5h0.4c0.5,0,1-0.4,1-1v-3.8h-1.1L107.5,26.5L107.5,26.5z"/>
<path class="undob-st2" d="M110.3,27.7c0.1-0.4,0.3-0.6,0.6-0.6c0.2,0,0.5,0.2,0.5,0.6H110.3z M110.9,26.4c-0.5,0-1.1,0.2-1.4,0.6
	c-0.2,0.3-0.3,0.7-0.3,1.1c0,0.4,0.1,0.8,0.4,1.2c0.3,0.3,1,0.5,1.5,0.5c0.5,0,0.8-0.1,1.3-0.2v-0.7h-0.1c-0.2,0.1-0.6,0.2-1,0.2
	c-0.4,0-1-0.2-1.1-0.6h2.2c0-0.5,0-1-0.2-1.4C111.9,26.6,111.4,26.4,110.9,26.4"/>
<path class="undob-st2" d="M115.9,29c-0.4,0-0.5-0.5-0.5-1c0-0.3,0.1-1,0.6-1c0.4,0,0.6,0.5,0.6,1C116.6,28.4,116.5,29,115.9,29 M116,26.4
	c-1,0-1.7,0.7-1.7,1.7c0,0.8,0.5,1.7,1.6,1.7c1.1,0,1.7-0.6,1.7-1.7C117.7,27.1,117,26.4,116,26.4"/>
<path class="undob-st2" d="M125.5,28.8h-0.7v-1h0.6c0.3,0,0.7,0,0.7,0.5C126.3,28.7,125.9,28.8,125.5,28.8 M124.9,26.2
	c0-0.1,0.1-0.1,0.1-0.1h0.4c0.3,0,0.6,0.1,0.6,0.4c0,0.4-0.4,0.3-0.6,0.3h-0.5V26.2L124.9,26.2z M126.5,27.4
	c0.4-0.1,0.7-0.4,0.7-0.8c0-0.3-0.2-0.6-0.5-0.8c-0.3-0.2-0.8-0.3-1.3-0.3h-0.7c-0.6,0-1.1,0.5-1.1,1.1v3.3h1.7
	c0.4,0,1.1-0.1,1.4-0.3c0.3-0.2,0.4-0.5,0.4-1C127.3,27.8,127,27.4,126.5,27.4"/>
<rect x="128.2" y="26.4" class="undob-st2" width="1.1" height="3.3"/>
<rect x="128.2" y="25.3" class="undob-st2" width="1.1" height="0.8"/>
<path class="undob-st2" d="M131.5,29c-0.4,0-0.5-0.5-0.5-1c0-0.3,0.1-1,0.6-1c0.4,0,0.6,0.5,0.6,1C132.1,28.4,132,29,131.5,29 M131.6,26.4
	c-1,0-1.7,0.7-1.7,1.7c0,0.8,0.5,1.7,1.6,1.7c1.1,0,1.7-0.6,1.7-1.7C133.2,27.1,132.5,26.4,131.6,26.4"/>
<path class="undob-st2" d="M135.8,28.7c0,0.1-0.1,0.2-0.2,0.2h-0.1c-0.2,0-0.4-0.1-0.5-0.2c-0.1-0.2-0.2-0.5-0.2-0.7s0.1-0.5,0.2-0.7
	c0.2-0.2,0.5-0.1,0.8-0.1C135.8,27.1,135.8,28.7,135.8,28.7z M135.8,26.5c-0.1-0.1-0.4-0.1-0.5-0.1c-0.3,0-0.8,0.1-1.1,0.4
	c-0.3,0.3-0.5,0.8-0.5,1.3c0,0.4,0.1,0.8,0.4,1.3c0.3,0.3,0.8,0.5,1.3,0.5h0.4c0.5,0,1-0.4,1-1v-3.8h-1L135.8,26.5L135.8,26.5z"/>
<rect x="137.8" y="26.4" class="undob-st2" width="1.1" height="3.3"/>
<rect x="137.8" y="25.3" class="undob-st2" width="1.1" height="0.8"/>
<path class="undob-st2" d="M140.9,28.5l-0.7-2.1h-1.1l1.1,3c0.1,0.2,0.3,0.3,0.5,0.4c0.2,0,0.5-0.1,0.6-0.4l1.1-3h-0.8L140.9,28.5z"/>
<path class="undob-st2" d="M143.8,27.7c0.1-0.4,0.3-0.6,0.6-0.6c0.2,0,0.5,0.2,0.5,0.6H143.8z M144.4,26.4c-0.5,0-1.1,0.2-1.4,0.6
	c-0.2,0.3-0.3,0.7-0.3,1.1c0,0.4,0.1,0.8,0.4,1.2c0.3,0.3,1,0.5,1.5,0.5c0.5,0,0.8-0.1,1.3-0.2v-0.7h-0.1c-0.2,0.1-0.6,0.2-1,0.2
	c-0.4,0-1-0.2-1.1-0.6h2.2c0-0.5,0-1-0.2-1.4C145.5,26.6,145,26.4,144.4,26.4"/>
<path class="undob-st2" d="M147.7,26.4h-1v3.3h1.1v-2.3c0.2-0.2,0.5-0.2,0.8-0.2h0.1v-1c-0.3,0-0.7,0.1-1.1,0.3L147.7,26.4L147.7,26.4z"/>
<path class="undob-st2" d="M151.1,27.8c-0.2-0.1-0.5-0.2-0.8-0.3c-0.1-0.1-0.3-0.1-0.3-0.2c0-0.2,0.4-0.2,0.5-0.2c0.2,0,0.5,0.1,0.8,0.2
	h0.1v-0.7c-0.3-0.1-0.7-0.2-1.1-0.2c-0.2,0-0.5,0.1-0.7,0.1c-0.3,0.2-0.5,0.5-0.5,0.8c0,0.4,0.1,0.7,0.4,1c0.2,0.2,0.6,0.2,1,0.3
	c0.2,0.1,0.2,0.1,0.2,0.2c0,0.2-0.5,0.2-0.7,0.2c-0.2,0-0.6-0.1-1-0.2h-0.1v0.8c0.3,0.1,0.7,0.2,1.1,0.2c0.3,0,0.8-0.1,1.1-0.2
	c0.2-0.2,0.4-0.5,0.5-0.8C151.8,28.3,151.6,27.9,151.1,27.8"/>
<rect x="152.4" y="25.3" class="undob-st2" width="1.1" height="0.8"/>
<rect x="152.4" y="26.4" class="undob-st2" width="1.1" height="3.3"/>
<path class="undob-st2" d="M155.6,29c-0.2,0-0.3-0.1-0.3-0.3v-1.5h0.8v-0.8h-0.8v-0.7h-1.1v0.7v0.8v1.4c0,0.3,0.1,0.6,0.3,0.8
	s0.5,0.2,1,0.2c0.2,0,0.5-0.1,0.8-0.1v-0.8h-0.1C155.9,28.8,155.7,29,155.6,29"/>
<path class="undob-st2" d="M159,26.4l-0.7,2l-0.8-2h-1.1l1.5,3.3l-0.1,0.4c-0.1,0.2-0.2,0.2-0.5,0.2h-0.4v0.8h0.4c0.5,0,1.1-0.2,1.4-0.8
	l1.4-4L159,26.4z"/>
<path class="undob-st3" d="M30.7,26.2c-1.1,0.3-2.3,0.4-3.4,0.8c1.9-1.6,1.8-4.2,3-6c0.3-0.5,0.7-1.1,1.1-1.6c-0.8,1.5-0.4,3.6-1.3,5
	c-0.3,0.5-0.8,1.1-1.3,1.6c0.2,0,0.3-0.1,0.4-0.2c1.4-1.4,3.2-1.9,4.7-3c0.5-0.5,1.1-1.1,1.4-1.9C35,23.2,32.7,25.4,30.7,26.2
	 M35.6,16.5c-0.7,1-1.4,1.9-2.1,3c0.1-0.8,0.2-1.8-0.1-2.5c-0.5-1.6-1-3.3-1.1-5v-0.7c0.4,1.9,2.1,3.1,2.1,5.2
	c0.1,0.5-0.1,0.9-0.2,1.3l0.1,0.1l0.1-0.1c0.2-1,0.3-2.1,0.8-3c0.5-1.3,1.3-2.7,1-4.4C36.8,12.2,36.6,14.8,35.6,16.5 M34.6,6.1
	c1.1,1.6,1.4,4.2,0.5,6c-0.3,0.8-0.5,1.6-0.7,2.4c-0.1-0.1-0.1-0.3-0.1-0.5c-0.4-1.8-2.1-3.1-2.8-4.8c-0.2-0.5-0.4-1.1-0.5-1.8
	c0.8,1.4,2.5,2.1,3,3.6c0.2,0.3,0.2,0.9,0.3,1.3c0.1,0,0.1,0,0.1-0.1c-0.2-1.6-0.1-3.3,0.1-4.8c0-0.9-0.1-1.6-0.5-2.3
	C34.3,5.6,34.3,5.9,34.6,6.1 M33.7,5.9c0.3,1.4-0.1,2.8,0.1,4.2c-0.8-1.4-2.3-2.2-3.4-3.4C29.8,6,29.6,5,29.3,4.2
	c0.5,1.5,2.3,1.9,3.3,3.2C33,7.6,33.1,8,33.3,8.4l0.1-0.1c-0.5-1.2-0.8-2.6-1.1-3.8c-0.2-0.5-0.5-1.1-1.1-1.4
	C32.4,3.3,33.5,4.6,33.7,5.9 M30.3,2.6c1,0.9,1.4,2,1.6,3.2l0.2,0.3c-1.4-1-2.6-2.4-3.5-3.8l-1.1-1.1C28.5,1.6,29.6,1.9,30.3,2.6
	 M8.6,1.4c-1,0.9-1.5,1.9-2.3,3C5.7,5.3,4.9,5.7,4.1,6.5c0.4-0.9,0.4-1.8,1-2.6C5.9,2.4,7.3,2,8.6,1.4 M3.5,4.4c0.4-0.5,1-1,1.6-1.2
	C3.9,4.1,3.9,5.7,3.6,7.1C3.4,7.6,3.2,8,3.2,8.5l0.1,0.1C3.5,8.1,3.8,7.6,4.4,7c0.9-0.9,2.2-1.4,2.5-2.6c0,1.8-1.4,3.2-2.8,4.2
	c-0.5,0.5-1.1,1.1-1.4,1.8c0-0.4,0.2-0.9,0.2-1.4C2.5,7.3,2.4,5.6,3.5,4.4 M0.9,9.8c0-1.6,0.5-2.8,1.5-4.1c0.1,0,0.1-0.1,0.1-0.1
	c-1.1,1.6-0.2,3.5-0.3,5.3l-0.1,1.9c0,0,0,0.1,0.1,0.1c0.1-0.2,0.1-0.4,0.1-0.5c0.2-1.4,1.4-2.5,2.5-3.4C5,8.5,5.2,8.3,5.3,8
	c-0.1,0.7-0.4,1.2-0.7,2c-0.8,1.6-2.3,3-2.6,4.8C2,13,0.7,11.6,0.9,9.8 M0.1,11.9c0.1-0.5,0.2-1,0.4-1.4c-0.4,2.1,1,3.6,1.4,5.4
	c0.2,0.7,0.2,1.4,0.5,2.1c0.1,0,0.1,0,0.1-0.1C2,16,2.8,14.2,3.8,12.7c0.2-0.4,0.3-0.9,0.4-1.3c0.1,0.9-0.1,1.9-0.2,2.8
	c-0.2,1.1-0.5,2.2-0.9,3.4C2.9,18.3,3,19.1,3,19.8l-0.1-0.1c-0.7-1.3-2.1-2.4-2.5-3.8C0.1,14.6-0.1,13.3,0.1,11.9 M0.1,16.1
	c0.1,2.2,2.4,3.4,3.5,5.3c0.2,0.3,0.4,0.8,0.8,1.1C4.3,22.2,4.1,22,4,21.8c-0.3-0.8-0.5-1.6-0.4-2.6C3.7,18.1,4.1,17,4,15.9
	c1,2.1,0.7,4.7,1.1,6.9c0.1,0.5,0.4,1,0.5,1.4c-1.9-1.4-4.6-2.7-5.4-5.2C0,18.1,0,17,0.1,16.1 M1.2,21.2c1.1,2.5,3.7,2.7,5.6,4.3
	c0.3,0.3,0.7,0.5,1.1,0.8c-0.4-0.3-0.9-0.9-1.2-1.3c-1.1-1.5-0.7-3.6-1.4-5.3C6,20.5,6.7,21.4,7,22.5c0.7,1.5,0.9,3.4,2.4,4.7
	c-1.6-0.5-3.5-0.4-4.9-1.4C2.8,24.7,1.4,23,1.2,21.2 M4,25.8c1.8,2.1,4.5,1.3,6.8,1.9c0.3,0.1,0.5,0.2,1,0.1c-0.2-0.2-0.7-0.1-1-0.3
	c-1.8-0.7-2.1-2.6-3.1-4.1c1.3,0.9,2.3,2,3.4,3.1c0.9,0.8,1.8,1.1,2.8,1.3c-0.2,0.1-0.5,0.1-0.9,0.1c-1.9,0.4-3.9,1.3-6,0.5
	C6,28.3,4.6,27.2,4,25.8 M27.4,30.5c-1.9,0.8-3.9-0.1-5.5-1.2c-0.5-0.4-1.1-1-1.9-1c-0.2,0-0.5,0-0.9,0.1c1.4,0.7,2.8,1.6,4.2,3
	c-0.2,0.2-0.4,0.4-0.8,0.7c-1.2-1.3-2.5-2.6-4.1-3.4c-0.2,0.1-0.5,0.2-0.9,0.3c-1.2,0.8-2.4,1.8-3.3,3.1l-0.9-0.7
	c1.3-1.3,2.6-2.3,4.2-3c-1.4-0.4-2.4,0.8-3.6,1.4c-1.3,1-3.2,1.4-4.8,0.8c-0.9-0.3-1.6-0.9-2.3-1.6c1.3,0.9,3.1,1,4.5,0.4
	c1.9-0.9,3.8-1.9,6.1-1.4c0.3,0,0.7,0.3,1,0.1c1.8-0.4,3.6-0.1,5,0.7l1.5,0.5c1.4,0.5,3.2,0.3,4.4-0.5C29,29.6,28.3,30.2,27.4,30.5
	 M29.5,28.4c-2.2,0.9-4.4-0.2-6.5-0.5l-0.4-0.1c1-0.2,2-0.5,2.8-1.3c1.1-1.1,2.2-2.4,3.5-3.3c-1,1.3-1.1,3.1-2.6,3.9
	c-0.4,0.2-0.9,0.3-1.3,0.5c0.5,0,1.1-0.2,1.6-0.2c2.1-0.3,4.6,0,6-1.9C32.1,26.8,30.7,27.9,29.5,28.4 M33.4,22.1
	c-0.9,0.5-1.8,1.1-2.5,1.8v-0.1c1.3-2.2,0.7-5.2,1.4-7.6l0.2-0.8c-0.2,1.4,0.4,2.8,0.4,4.3c-0.1,1-0.3,1.8-0.8,2.4h0.1
	c0.5-0.9,1.1-1.8,1.9-2.5c1.1-1.1,2.3-2.3,2.4-3.8C36.9,18.3,35.4,20.6,33.4,22.1 M30.6,14c-0.1,3.1-1.3,5.8-3.3,8.1l-0.1,0.1
	c-0.4-0.4-1-1.1-1.4-1.4c0.2-0.2,0.5-0.5,0.8-0.9c1.3-1.8,1.9-3.7,2.1-5.9v-0.2l0.1,0.1h1.9l0.1-0.1L30.6,14z M18.7,26.3l-0.1,0.1
	c0.1-0.7,0.1-1.4,0-2.1c0.3,0.1,0.7,0,1,0l1-0.2c0.5,0.1,0.9,1,1.4,0.4c0.2-0.2,0.5-0.2,0.7-0.5c0.3-0.1,0.4-0.4,0.5-0.7
	c0.2-0.7,0.9-0.8,1.3-1.1c0.3-0.2,0.7-0.5,0.9-0.9l0.1,0.1l1.4,1.3C24.5,24.9,21.8,26.1,18.7,26.3 M18.6,22c0.2,0.1,0.7-0.1,0.8,0.2
	c-0.1,0-0.1,0.2-0.1,0.3c0.1,0.2,0.2,0.5,0.5,0.5c0.1,0.1,0.2,0.1,0.2,0.2c-0.5,0.1-1.1,0.1-1.6,0.2c0.1-0.5,0-1.1,0-1.6l-0.1-0.1
	C18.6,21.8,18.6,21.9,18.6,22 M18.2,18.6c-0.1,0-0.2,0-0.3-0.1c-0.1,0-0.1-0.1-0.1-0.1c0.2,0,0.2-0.2,0.4-0.2
	c0.1-0.1,0.1-0.2,0.2-0.3c-0.1-0.2,0.1-0.1,0.2-0.1c0.1-0.1,0.1-0.1,0.2-0.1c0.1,0.2,0.4,0.1,0.5,0.3c0.1,0.1,0.1-0.1,0.1-0.1v-0.1
	c0.2,0,0.3,0.2,0.5,0.1c0.1-0.1,0.1-0.1,0-0.2c-0.1,0-0.1-0.1-0.1-0.1c0.1-0.1,0.2,0.2,0.4,0.1c0.1-0.1,0.2-0.2,0.4-0.2l0.1,0.1
	c0.1,0.4-0.2,0.7-0.5,0.9c-0.2,0.1-0.5,0.1-0.5,0.3c-0.2,0.2-0.4-0.1-0.7-0.1c-0.1-0.1,0-0.2-0.2-0.2C18.7,18.5,18.4,18.3,18.2,18.6
	 M16.6,26.2c-2.6-0.3-4.9-1.5-6.9-3.3l1.3-1.4v-0.1c1.9,1.9,4.1,2.8,6.6,3l0.2-0.1l-0.1,0.1v1.8l0.1,0.2
	C17.5,26.2,17.1,26.2,16.6,26.2 M7.5,19.8c-1-1.8-1.4-3.7-1.6-5.8h1.8l0.2-0.1c-0.1,0.1,0,0.2,0,0.3c-0.1,0-0.1,0.1-0.1,0.1
	c0.1,0.7,0.1,1.4,0.3,2.1l0.1,0.1C8.1,16.4,8,16.3,8,16.1c-0.1,0.1-0.3,0.1-0.4,0.1c0.1,0.2-0.1,0.1-0.2,0.2
	c-0.1-0.1-0.1-0.1-0.1-0.2c-0.1,0-0.2,0-0.3,0.1c0,0.1-0.1,0.1-0.1,0.2c-0.1,0.3-0.1,0.7,0.1,1c0,0.2,0.1,0.4,0.2,0.5
	c0.1,0,0.1-0.1,0.1-0.1c0.2,0.1,0.2,0.4,0.5,0.4c0.1-0.1,0.1-0.1,0.1-0.2c0.1,0.1,0.2,0.4,0.4,0.4c0,0.2,0,0.3,0.1,0.3
	c0.2-0.1,0.2,0.3,0.3,0.4c0.1,0.1,0.2,0.3,0.4,0.2l0.1-0.1c0.1,0.1,0,0.2,0.1,0.2c0.1,0.2,0.3,0.3,0.5,0.4c0.2,0.2,0.3,0.4,0.5,0.7
	l-0.1,0.1l-1.3,1.4C8.6,21.5,8,20.7,7.5,19.8 M6,12.1c0.3-2.8,1.4-5.2,3.3-7.3l0.1,0.2c0.4,0.4,0.9,0.9,1.3,1.3
	c-0.4,0.2-0.7,0.7-0.9,1C8.7,9,8.1,10.8,8,12.9l0.1,0.2c-0.7-0.1-1.3-0.1-2,0C6,12.8,6,12.4,6,12.1 M10.8,3.3
	c2.1-1.5,4.4-2.4,6.9-2.5L17.6,1v1.6l0.1,0.2c-2.5,0.1-4.7,1.1-6.6,3L11,5.9c-0.3-0.4-0.9-1-1.4-1.4l0,0C10.1,4.1,10.4,3.6,10.8,3.3
	 M17.8,8.1c-0.3-0.1-0.7,0.1-1,0.1c-0.8,0.2-1.3,0.5-2,1.1c-0.1,0.1-0.1,0.1-0.1,0.1c-0.4-0.4-0.9-1-1.4-1.3C14.7,7,16,6.4,17.6,6.2
	l0.1-0.1C17.7,6.8,17.7,7.5,17.8,8.1 M17.3,10.3c-0.1-0.1,0.1-0.2-0.1-0.2c-0.2,0.1-0.2,0.4-0.3,0.7c-0.1,0.2-0.2,0.1-0.3,0.2
	c-0.1-0.1-0.2-0.1-0.3-0.1c-0.1,0-0.2-0.3-0.3-0.1c-0.1,0.1,0,0.2-0.1,0.1c-0.1-0.1-0.1-0.1-0.1-0.1c0-0.1,0.2-0.1,0.1-0.2
	c-0.1-0.2-0.3-0.2-0.5-0.3h-0.1C15.9,9.3,16.9,9,18,8.9c0,0.4-0.1,1,0.1,1.4C17.7,10.1,17.5,10.3,17.3,10.3 M15.5,15.7
	c0.1-0.1,0.2-0.2,0.2-0.4l0.2,0.1C15.8,15.5,15.8,15.6,15.5,15.7 M17.6,17.8c-0.1,0.1,0,0.3-0.1,0.5c-0.9-0.1-1.6-0.5-2.3-1.1
	c0.3-0.4,1-0.9,1.2-1.3c0.1,0.2,0.2,0.3,0.4,0.4c0.3,0.1,0.8,0.4,1.1,0.2l-0.1,0.1c0.1,0.1-0.1,0.2,0.1,0.3c0.1,0.1-0.1,0.1-0.1,0.1
	c0.1,0.1,0,0.3,0.2,0.3c0.1,0.1,0,0.2-0.1,0.2C17.8,17.5,17.7,17.5,17.6,17.8 M13.6,10.5c-0.2,0.1-0.3,0.2-0.4,0.4
	c-0.1,0.1-0.3,0.1-0.5,0.2c0,0.1,0.1,0.2,0,0.2c-0.1,0.1-0.4-0.1-0.5,0.2c-0.1,0.2-0.3,0.3-0.2,0.7c-0.1,0.1-0.1,0.3-0.1,0.4
	c0.1,0.1-0.1,0.3,0.1,0.3c-0.2-0.1-0.5-0.1-0.9,0.1c0.1-0.3,0.1-0.7,0.1-1c0.2-1.4,0.9-2.6,1.8-3.7c0.4,0.4,0.9,1,1.4,1.4
	C14,10,14,10.5,13.6,10.5 M12.7,18.4V18c-0.3-0.3-0.2-0.9-0.3-1.3c-0.2-0.2-0.1-0.5-0.2-0.8c0-0.3-0.5-0.5-0.4-1
	c-0.1-0.1-0.1-0.2-0.1-0.3c0.1-0.1,0.3,0,0.4-0.2l0.1-0.3c0.1-0.1,0.3,0.1,0.4-0.1c0.1-0.3-0.4-0.8,0.1-1c0.2,0,0.4-0.1,0.5,0.2
	c0.1,0.2,0.1,0.5,0,0.8c0.2,0.1,0,0.2,0,0.3c-0.1,0.1-0.2,0.1-0.3,0.1c-0.1-0.1-0.1-0.2-0.2-0.2c-0.1,0.1,0.1,0.2,0,0.4
	c-0.1,0.1,0,0.2-0.1,0.2c-0.1-0.1-0.1-0.1-0.1-0.1c-0.1,0.1-0.1,0.2,0,0.2c0.1,0.1,0.2,0.2,0.3,0.2l0.1-0.1c0-0.2,0.1-0.3,0.1-0.5
	l0.2,0.1c0.2,0.9,0.5,1.6,1,2.3l0.2,0.2c-0.5,0.5-1.1,1.1-1.6,1.8c0-0.1-0.1-0.1-0.1-0.1C12.4,18.6,12.8,18.6,12.7,18.4 M16.9,20.8
	l0.3,0.1c-1.1-0.2-2.3-0.7-3.3-1.5c-0.2-0.1-0.2-0.3-0.4-0.3c0.4-0.3,0.9-0.9,1.3-1.4c0.2,0.3,0.5,0.5,0.8,0.7
	c0.5,0.2,1,0.7,1.6,0.5c-0.2,0.1-0.3,0.2-0.4,0.3c-0.1,0.2-0.1,0.4-0.2,0.5C16.3,20.2,16.6,20.5,16.9,20.8 M14.9,15.6
	c0,0.1,0.1,0.1,0.1,0.1c0.1-0.1-0.1-0.2,0-0.3c0.1,0.1,0.1,0.3,0.1,0.4c0.1,0.1,0.1,0.1,0.1,0.2c-0.2,0.2-0.4,0.4-0.5,0.7
	c-0.1-0.2-0.3-0.5-0.5-0.9s-0.2-0.8-0.4-1.1c0.1,0.2,0.5-0.1,0.5,0.3h0.1c0.1-0.1,0.1-0.1,0.1-0.1c0.1,0.1,0.2,0.1,0.1,0.2
	C14.7,15.5,14.8,15.5,14.9,15.6 M17.8,5.5c-0.3-0.1-0.7,0.1-1,0.1C15.4,5.9,14,6.5,13,7.7V7.5c-0.5-0.4-1-0.9-1.4-1.3
	c0.4-0.2,0.8-0.7,1.2-0.9c1.4-1.1,3.2-1.6,5-1.8C17.7,4.2,17.7,4.8,17.8,5.5 M10.5,13.3l-0.2-0.1l-1.8,0.1c0.2-2.1,0.7-3.9,1.9-5.6
	L11,6.8V6.7c0.4,0.5,0.9,1,1.4,1.4c-1.3,1.4-1.9,3.1-2.1,5C10.4,13.2,10.4,13.2,10.5,13.3 M9.2,16.3c-0.2,0-0.1,0.2-0.2,0.3
	c0-0.4-0.2-0.9-0.2-1.4l-0.1-1.3l-0.1-0.1c0.5,0.1,1.2,0.1,1.8,0.1l0.1-0.1c-0.1,0.3-0.1,0.8,0.1,1c-0.1-0.1-0.2-0.3-0.3-0.3
	c-0.3,0-0.3,0.4-0.7,0.4c-0.2,0.2-0.3,0.5-0.3,0.9C9.3,16.1,9.1,16.2,9.2,16.3 M11.2,14.1L11,13.9c0.2,0.1,0.4,0.1,0.5,0.1
	c-0.3,0.1-0.2,0.5-0.3,0.8c0,0.1,0.1,0.1,0.1,0.2c-0.1,0.1-0.2,0.2-0.2,0.3C11.4,14.9,11.2,14.5,11.2,14.1 M18,23.7l-0.2-0.1
	c-2.4-0.1-4.5-1.1-6.4-2.8c0.2-0.1,0.4,0.3,0.8,0.2c0.3-0.1,0.5-0.3,1-0.2c0.2,0,0.4,0,0.5-0.2s-0.1-0.2-0.2-0.4
	c1.2,0.9,2.6,1.5,4.2,1.6l0.1-0.1v1.8L18,23.7z M18.2,11.3L18.2,11.3c-0.1,0.1-0.2,0-0.3,0.1c-0.1,0.1-0.1,0.2,0,0.2
	c0.2,0.1,0.2,0.5,0.5,0.3c0.1,0.1,0.2,0.1,0.3,0.2c0.2,0.1,0.2,0.4,0.4,0.3c0,0.1-0.1,0.3,0.1,0.4C19.2,13,19,13.2,19,13.3
	c-0.1,0.1-0.1,0.1-0.1,0.1c0.3,0.1,0.3,0.3,0.3,0.4c-0.1,0.2,0,0.4,0.2,0.5c-0.1,0.2-0.1,0.4-0.2,0.5c-0.2,0.1-0.7-0.2-0.8,0.2
	c-0.1,0.2,0,0.5-0.2,0.5c-0.5,0.1-1-0.1-1.4-0.4c0.2-0.1,0.8,0.1,0.8-0.3c0.1-0.1,0.1-0.2,0.1-0.2c0.1-0.1,0.2-0.2,0.2-0.4
	c-0.1-0.1-0.1-0.1-0.1-0.2c-0.2-0.2-0.7-0.1-1-0.1c-0.2,0.1,0,0.3-0.1,0.5c-0.2,0.1-0.2,0.2-0.4,0.4c-0.1-0.1-0.2-0.2-0.2-0.2h0.1
	c0,0.1,0,0.1,0.1,0.1c0.2,0.1,0.2-0.2,0.2-0.3c0.1-0.1,0.4-0.3,0.1-0.5c0-0.1,0.1-0.1-0.1-0.2c-0.1,0.1-0.2,0.1-0.2,0.2
	c0.1,0.1,0,0.2-0.1,0.3h-0.1c0-0.1-0.1-0.1-0.1-0.2c-0.1,0-0.2,0.1-0.4,0.1c-0.2,0.1-0.4,0.1-0.7,0.1c0-0.4,0.2-0.4,0.3-0.5
	c-0.1-0.2,0.1-0.3,0.2-0.4c0.1-0.1,0.1-0.1,0.2,0c0.1,0.1,0.1,0.1,0.2,0.1l0.1-0.1c0.2,0.1,0.1,0.7,0.4,0.4c0.1-0.2,0-0.5,0.1-0.8
	c-0.1-0.2,0.1-0.3,0.2-0.4c0.2,0,0.2-0.2,0.2-0.3c0.3-0.1,0.7-0.2,0.9-0.5c-0.1-0.2-0.1-0.4-0.1-0.5C17.8,11.2,18.2,11.2,18.2,11.3
	 M19.3,3.6c1.1,0.1,2.2,0.4,3.2,1c0.1,0.2,0.4,0.3,0.4,0.7c-0.1,0.4,0.5,0.4,0.2,0.9c0,0.1,0.1,0.2,0.1,0.3c0.1,0.1,0,0.2,0.1,0.3
	c0.3,0,0.3-0.3,0.7-0.3c0.3,0.2,0.3,0.5,0.3,1c0.1,0.2,0.2,0.3,0.4,0.4c0.3-0.1,0.2,0.3,0.4,0.4c0.2,0.1,0.4,0.4,0.8,0.4
	c0.2,0.2,0.4,0.5,0.7,0.9c0,0.1,0.1,0.1,0.1,0.1c0.1,0.1,0.2-0.1,0.3-0.1c0.5,1.1,0.8,2.2,0.9,3.4l0.1,0.1c-0.7,0-1.3,0-1.9,0.1
	c0-0.3,0-0.8-0.2-1.1c0.1-0.2,0.1-0.4,0.1-0.7c-0.1-0.1-0.1,0-0.2,0c-0.2,0.2-0.2,0.5-0.3,0.8c-0.2,0.2-0.2,0.7-0.1,0.9l0.1,0.1
	h-0.8c0.2-0.1-0.1-0.3,0.1-0.5l0.3-0.1c0.1-0.2,0.3-0.4,0.3-0.8c0.1-0.2,0.2-0.4,0.2-0.7c-0.1-0.3,0.2-0.8-0.1-1.1
	c0.1-0.1-0.1-0.2-0.1-0.2c-0.1-0.1-0.2,0-0.2-0.1c0.1-0.1,0.2-0.2,0.2-0.3c-0.1-0.1-0.2,0-0.2,0c-0.1-0.2,0.2-0.3,0-0.4
	s-0.2,0.2-0.4,0.1c-0.1-0.1-0.1-0.2-0.1-0.2l-0.5-0.5c0,0-0.1,0.1-0.1,0c0.1-0.4-0.4-0.7-0.4-1.1c-0.1-0.1-0.1-0.3-0.2-0.5
	c-0.1-0.1-0.2-0.2-0.3-0.1c-0.2-0.2-0.3-0.4-0.5-0.7c-0.1,0-0.1,0-0.1,0.1c0,0.2,0.1,0.3,0.1,0.5c-0.1,0-0.1,0-0.1,0.1
	c0.1,0.2,0.2,0.3,0.2,0.4c-1-0.9-2.2-1.3-3.4-1.4c-0.2,0-0.5-0.1-0.8-0.1c0.1-0.5,0-1.3,0.1-1.9l-0.1-0.2C18.8,3.6,19,3.5,19.3,3.6
	 M19.8,0.9c2.6,0.3,4.9,1.4,6.9,3.4l-0.2,0.1c-0.3,0.4-0.8,0.8-1,1.1c-0.1-0.1-0.2-0.2-0.2-0.3c-0.1-0.3-0.3-0.7-0.7-1
	c-0.2-0.1-0.3-0.4-0.5-0.3c-0.4-0.2-0.8,0-1,0.1v0.1C21.8,3.4,20.5,3,19,2.7c-0.1,0-0.1,0.1-0.2,0.1c0.1-0.1,0.1-0.2,0.1-0.3
	c-0.1-0.1-0.1-0.1-0.2-0.1c-0.1,0-0.1,0.1-0.1,0.2c0.1-0.5,0.1-1.3,0-1.9C18.9,0.9,19.4,0.9,19.8,0.9 M20.9,18.2
	c0.5,0.1,1.1,0.2,1.6,0.3c0.1,0,0.2,0,0.3-0.1c-0.1-0.2,0.2-0.3,0.2-0.5c0.1-0.2,0.1-0.4,0.2-0.5c0-0.2,0-0.5-0.1-0.7
	c-0.1-0.1-0.2,0.1-0.4,0.1c-0.2,0.1-0.1,0.3-0.4,0.3c-0.1,0.1-0.2,0.1-0.2,0.1c0-0.1-0.1-0.1-0.1-0.1c0.2,0,0.5,0,0.5-0.3
	c0.1-0.1,0.3-0.1,0.5-0.2c0.1-0.1,0.1-0.3,0.2-0.4c0-0.1,0.1-0.1,0.1-0.2c0.1,0.1,0.1,0.2,0.1,0.2c0.1,0.1,0.2-0.1,0.2-0.2
	c0-0.1,0.1-0.1,0.1-0.1c0.2,0.1,0.3,0,0.5,0.1c0.1-0.1,0.3-0.1,0.5-0.1c-0.1,0.8-0.5,1.4-0.9,2.1c-0.1,0.2-0.3,0.4-0.4,0.7
	c-0.1-0.1-0.1-0.3-0.2-0.5h-0.1c-0.1,0.2-0.3,0.4-0.2,0.7c-0.1,0.2-0.5,0.1-0.8,0.2c-0.2,0.1-0.4-0.2-0.7-0.2
	c-0.2-0.1-0.5-0.1-0.8-0.2C20.9,18.2,20.9,18.2,20.9,18.2 M22.8,8.2C22.4,8.7,22,9,21.7,9.4l-0.1-0.2c-0.9-0.7-1.9-1.1-3-1.2
	l-0.2,0.1V6.4l0.1-0.2c0.7,0.1,1.4,0.2,2.1,0.4c0.9,0.3,1.6,0.8,2.3,1.4L23,8.1L22.8,8.2z M25.5,13.9c-0.1,0.3-0.1,0.8-0.2,1.1
	c0,0.1,0,0.1-0.1,0.2c-0.1-0.2-0.2-0.5-0.4-0.7c-0.2-0.1-0.1-0.4-0.2-0.5l-0.2-0.2C24.6,13.9,25.1,13.9,25.5,13.9 M24.3,10.4
	c0.2,0.1,0.3,0.3,0.5,0.3c0.2,0.3,0.2,0.7,0.3,1c-0.2,0.2-0.2,0.7-0.5,0.5c-0.1-0.2,0.2-0.3,0.1-0.5c0.1-0.1,0.2-0.1,0.2-0.2
	c0-0.2-0.2-0.1-0.2-0.3c-0.1-0.1-0.2-0.1-0.3-0.1c-0.2-0.1-0.4,0.5-0.5,0C24,11,24,10.8,24,10.8c-0.3-0.1-0.3-0.4-0.5-0.5
	c-0.3,0-0.5-0.1-0.9-0.1c-0.2-0.1-0.4-0.2-0.5,0.1c0,0.2-0.1,0.3-0.1,0.4c-0.1-0.1-0.1-0.1-0.2-0.2c0.5-0.7,1.2-1.3,1.8-1.9l0.1-0.1
	c0.2,0.3,0.7,0.8,0.9,1.2C24.4,10,24,10.2,24.3,10.4 M20.6,16.8c0,0.2-0.3,0.2-0.5,0.4c-0.1-0.1,0-0.1,0-0.2
	C20.3,16.9,20.5,16.8,20.6,16.8 M20.1,11.2c-0.1,0.1-0.2,0.1-0.3,0.1c-0.1-0.1-0.2-0.2-0.4-0.3c-0.1,0.1-0.2,0.2-0.3,0.1
	c0.2-0.2,0.7-0.3,0.9-0.7C20,10.2,20,10.1,20,9.9c0.1-0.1-0.1-0.1-0.1-0.1c-0.1,0.2-0.4,0.2-0.5,0.5l-0.4-0.2
	c-0.1-0.4,0.1-1-0.1-1.4c0.2,0.1,0.5,0.1,0.8,0.1c0.7,0.2,1.3,0.5,1.9,0.9c-0.1,0.1-0.2,0.2-0.3,0.3c0,0.1,0.1,0.1,0.2,0.1l0.1-0.1
	C20.9,10.7,20.1,10.7,20.1,11.2 M23.8,21.6c-0.3-0.3,0.2-0.5,0.3-0.9c-0.1-0.3-0.4-0.5-0.7-0.5c-0.1-0.1-0.1-0.2-0.1-0.3
	c0.1-0.1,0.2-0.2,0.2-0.3l0.1,0.1l0.8,0.9c0,0.2,0.1,0.3,0.2,0.4c0.1,0.1,0.2-0.1,0.2,0h-0.1c-0.3,0.3-0.8,0.7-1.1,1l0,0.1
	C23.6,21.8,23.8,21.7,23.8,21.6 M25.3,19.6c-0.2-0.1-0.2-0.4-0.4-0.4c-0.1,0-0.1,0.1-0.1,0.1v0.1l-0.5-0.5c0.2-0.1,0.4-0.5,0.7-0.9
	c0.5-0.8,0.9-1.6,1.1-2.5c0.1,0.1,0.2,0.1,0.2,0c0.1-0.1,0.1-0.2,0.1-0.3l-0.2-0.2c0.1-0.4,0.1-0.8,0.1-1.2l0.1,0.1
	c0.5,0,1.2,0.1,1.8-0.1l-0.1,0.1c-0.1,2.4-1,4.6-2.6,6.4C25.5,20.2,25.2,19.9,25.3,19.6 M30.6,12.4c0.1,0.2,0,0.5,0.1,0.7l-1.9,0.1
	c-0.1,0.1-0.1,0.1-0.1,0.1l0.1-0.1c-0.1-1.5-0.4-2.8-1-4.2c0-0.5-0.5-1-0.8-1.4c-0.4-0.2-0.5-0.9-1-1.1C26,6.4,26,6.2,25.8,6.2
	L26,6.1c0.4-0.4,0.9-0.9,1.3-1.4C29,6.9,30.2,9.4,30.6,12.4 M29.9,7.7C27.8,3.1,23.1,0,18.3,0c-2.1,0.1-4.2,0.5-5.8,1.4
	C9.3,3.1,6.7,6.4,5.9,9.8c-1.4,5.7,0.5,11.5,5.3,14.8c3.4,2.5,8.9,3,12.7,1.1c3.4-1.4,6.4-5,7.1-8.7C31.6,14.1,31.2,10.4,29.9,7.7
	 M24,3.5c0,0.1,0,0.1,0.1,0.2c0.2,0.1,0.3,0.5,0.7,0.4c0-0.1-0.1-0.2-0.1-0.4c-0.1-0.1-0.2-0.2-0.2-0.2C24.2,3.6,24.1,3.3,24,3.5
	 M18.8,2.4c0.3,0.4,0.9,0.2,1.4,0.1c0.3,0.1,0.5-0.1,0.9-0.2c-0.3-0.4-0.8-0.5-1.1-0.5l-0.9,0.4c-0.1-0.1-0.2-0.1-0.2,0.1
	C18.8,2.3,18.8,2.4,18.8,2.4"/>
</svg>
