<?xml version="1.0" encoding="utf-8"?>
<!-- Generator: Adobe Illustrator 24.0.0, SVG Export Plug-In . SVG Version: 6.00 Build 0)  -->
<svg version="1.1" id="Layer_1" xmlns="http://www.w3.org/2000/svg" xmlns:xlink="http://www.w3.org/1999/xlink" x="0px" y="0px"
	 viewBox="0 0 245.2 76.3" style="enable-background:new 0 0 245.2 76.3;" xml:space="preserve" role="img" fill="white">
<title>WFO logo</title>
<polygon  points="81,0.6 64.5,44.4 47.6,4.6 30.7,44.4 14.1,0.6 0,0.6 29.9,76.1 47.6,33.3 64.5,76.3 95.3,0.6 "/>
<polygon  points="164.4,13.8 123,13.8 123,29.8 151.9,29.8 151.9,42.3 123,42.3 123,73.1 109.8,73.1 109.8,42.3 
	101.3,42.3 101.3,29.8 109.8,29.8 109.8,1.2 164.4,1.2 "/>
<path  d="M231.1,38c0.1-6.8-2.6-13.2-7.5-17.8c-4.5-4.7-10.7-7.4-17.2-7.3c-6.6,0-12.8,2.6-17.4,7.3
	c-4.8,4.7-7.6,11.2-7.4,17.8c-0.1,6.8,2.6,13.2,7.4,17.9c5,4.9,10.8,7.4,17.4,7.4c6.5,0,12.7-2.6,17.2-7.4
	C228.5,51.3,231.2,44.8,231.1,38 M245.2,38c0,10.7-3.8,19.7-11.2,27c-7.5,7.4-16.7,11.1-27.6,11.1s-20.2-3.7-27.7-11.1
	s-11.2-16.3-11.2-27c-0.2-10.2,4-19.9,11.3-27c7.5-7.3,16.7-11,27.6-11s20,3.6,27.6,10.9C241.4,18.3,245.2,27.3,245.2,38"/>
</svg>
