<?xml version="1.0" encoding="utf-8"?>
<!-- Generator: Adobe Illustrator 24.0.0, SVG Export Plug-In . SVG Version: 6.00 Build 0)  -->
<svg version="1.1" id="Layer_1" xmlns="http://www.w3.org/2000/svg" xmlns:xlink="http://www.w3.org/1999/xlink" x="0px" y="0px"
	 viewBox="0 0 620.5 78.5" style="enable-background:new 0 0 620.5 78.5;" xml:space="preserve" role="img">
<g>
	<title>WFO Plant List Logo</title>
	<polygon points="81,2.8 64.5,46.6 47.6,6.8 30.7,46.6 14.1,2.8 0,2.8 29.9,78.3 47.6,35.5 64.5,78.5 95.3,2.8 	"/>
	<polygon points="164.4,16 123,16 123,32 151.9,32 151.9,44.5 123,44.5 123,75.3 109.8,75.3 109.8,44.5 101.3,44.5 101.3,32 
		109.8,32 109.8,3.4 164.4,3.4 	"/>
	<path d="M231.1,40.2c0.1-6.8-2.6-13.2-7.5-17.8c-4.5-4.7-10.7-7.4-17.2-7.3c-6.6,0-12.8,2.6-17.4,7.3c-4.8,4.7-7.6,11.2-7.4,17.8
		c-0.1,6.8,2.6,13.2,7.4,17.9c5,4.9,10.8,7.4,17.4,7.4c6.5,0,12.7-2.6,17.2-7.4C228.5,53.5,231.2,47,231.1,40.2 M245.2,40.2
		c0,10.7-3.8,19.7-11.2,27c-7.5,7.4-16.7,11.1-27.6,11.1s-20.2-3.7-27.7-11.1s-11.2-16.3-11.2-27c-0.2-10.2,4-19.9,11.3-27
		c7.5-7.3,16.7-11,27.6-11s20,3.6,27.6,10.9C241.4,20.5,245.2,29.5,245.2,40.2"/>
	<path d="M284.9,77.1h-4.8V2.5h13.2c5.8,0,11.5,0.4,16.1,4.4c4.6,3.9,6.7,9.5,6.7,15.3c0,5.3-2.1,11.3-6.2,14.8
		c-4.6,4-10.8,4.8-16.6,4.8h-8.4L284.9,77.1L284.9,77.1z M293.5,37.2c4.9,0,9.2-0.6,13.1-4.1c3.3-3,4.9-6.8,4.9-11.2
		c0-4.7-1.9-9.3-5.6-12.1c-3.8-2.9-8.5-3-13.1-3H285v30.3h8.5V37.2z"/>
	<path d="M329.9,77.1h-5V0h5V77.1z"/>
	<path d="M389.9,77.1h-5.3v-9.7h-0.2c-4,6.9-11.8,10.9-19.8,10.9c-16.4,0-25.8-12.7-25.8-28.5S348.2,22,364.4,22
		c8.3,0,15.4,3.7,20,10.5h0.2v-9.3h5.3L389.9,77.1L389.9,77.1z M343.7,49.8c0,12.4,7.8,23.8,20.9,23.8c13.8,0,20.5-11.4,20.5-24.4
		c0-12.5-7.7-22.5-20.8-22.5C351.8,26.7,343.7,38.1,343.7,49.8z"/>
	<path d="M407.2,31.6h0.2c3.2-6,9-9.6,16-9.6c13.9,0,17.8,8.6,17.8,22.6v32.6h-5.3V44.5c0-9.7-1.2-17.6-13-17.6
		c-13.6,0-15.8,12.6-15.8,23.6v26.6h-5.3v-54h5.3L407.2,31.6L407.2,31.6z"/>
	<path d="M460.2,77.1h-5.3v-49h-6v-4.9h6V3.9h5.3v19.3h12.3v4.9h-12.3V77.1z"/>
	<path d="M501.4,71.7h22.3v5.5H496V3.5h5.5L501.4,71.7L501.4,71.7z"/>
	<path d="M540.8,15.3c0,2.7-2.1,4.8-4.8,4.8s-4.8-2.1-4.8-4.8c0-2.6,2.1-4.8,4.8-4.8C538.7,10.5,540.8,12.7,540.8,15.3z M538.6,77.1
		h-5.3V27.4h5.3V77.1z"/>
	<path d="M577.1,33c-1.8-3.7-5.3-6.1-9.5-6.1c-4.6,0-9.2,3.7-9.2,8.4c0,13,26.3,6.7,26.3,26.2c0,9.9-7.7,16.8-17.4,16.8
		c-9,0-16.4-5.5-18.6-14.3l5.1-1.6c2,6.4,6.3,11,13.4,11c6.8,0,12.2-5.4,12.2-12.2c0-6.7-5.1-8.8-10.5-10.6
		c-7.4-2.7-15.8-5.8-15.8-15c0-8.2,6.9-13.7,14.7-13.7c5.5,0,11.5,3.6,13.8,8.6L577.1,33z"/>
	<path d="M602.7,77.1h-5.3v-49h-6v-4.9h6V3.9h5.3v19.3H615v4.9h-12.3V77.1z"/>
	<polygon points="558.8,45.6 570.6,45.6 570.6,45.6 	"/>
</g>
</svg>
