<?xml version="1.0" encoding="utf-8"?>
<!-- Generator: Adobe Illustrator 24.0.0, SVG Export Plug-In . SVG Version: 6.00 Build 0)  -->
<svg version="1.1" id="Layer_1" xmlns="http://www.w3.org/2000/svg" xmlns:xlink="http://www.w3.org/1999/xlink" x="0px" y="0px"
	 viewBox="0 0 402.9 116.8" style="enable-background:new 0 0 402.9 116.8;" xml:space="preserve" role="img">
<style type="text/css">
	.st0{fill:url(#path2484_1_);}
	.st1{fill:url(#path2488_1_);}
	.st2{fill:url(#path4225_1_);}
	.st3{fill:url(#SVGID_1_);}
	.st4{fill:url(#SVGID_2_);}
	.st5{fill:#05AD4D;}
	.st6{fill:url(#SVGID_3_);}
	.st7{fill:url(#SVGID_4_);}
	.st8{fill:url(#SVGID_5_);}
	.st9{fill:#231F20;}
</style>
<title>WFO Logo</title>
<g>
	
		<linearGradient id="path2484_1_" gradientUnits="userSpaceOnUse" x1="-415.0767" y1="-1094.5327" x2="-369.5525" y2="-1094.5327" gradientTransform="matrix(-0.9957 -9.237064e-02 9.237064e-02 -0.9957 30.9245 -1100.3644)">
		<stop  offset="2.000000e-02" style="stop-color:#C2671D"/>
		<stop  offset="9.000000e-02" style="stop-color:#D37A35"/>
		<stop  offset="0.11" style="stop-color:#D77E3A"/>
		<stop  offset="0.15" style="stop-color:#E7863A"/>
		<stop  offset="0.19" style="stop-color:#F28B3A"/>
		<stop  offset="0.24" style="stop-color:#F68D3A"/>
		<stop  offset="0.33" style="stop-color:#F68E3C"/>
		<stop  offset="0.37" style="stop-color:#F59143"/>
		<stop  offset="0.4" style="stop-color:#F49750"/>
		<stop  offset="0.42" style="stop-color:#F39F62"/>
		<stop  offset="0.43" style="stop-color:#F2A56E"/>
		<stop  offset="0.52" style="stop-color:#F49A56"/>
		<stop  offset="0.6" style="stop-color:#F68D3A"/>
		<stop  offset="0.8" style="stop-color:#ED8837"/>
		<stop  offset="0.82" style="stop-color:#EE8B3D"/>
		<stop  offset="0.85" style="stop-color:#EF944D"/>
		<stop  offset="0.89" style="stop-color:#F2A269"/>
		<stop  offset="0.89" style="stop-color:#F2A56E"/>
		<stop  offset="0.97" style="stop-color:#F9BD85"/>
		<stop  offset="1" style="stop-color:#FDCA92"/>
	</linearGradient>
	<path id="path2484" class="st0" d="M344.6,10c0.2,0-0.4-0.5-0.3-0.8S345,8,344.6,8s-11.4,1.7-12.3,2.3s-4.2,0.1-4.7-0.8
		s-0.4-5.4-0.8-6.2s-5.6-1.9-7.5-0.8s-3.5,5.3-2.6,6.1s6.5,2.9,6.1,3.5c-1.4,1.2-3.1,2-4.9,2.2c-1.9,0-2,1-3.6-0.7s-2.9-4.9-5.8-4.1
		s-9.3,4.7-9.9,5.6c-0.6,0.9,1.7,5.9,3,6.3s3.1,0.7,6.3-1s5-2.4,4.7-1.2c-0.5,1.2-1.2,2.4-2.1,3.3c-0.9,0.8-5.7,2.7-7.4,7.1
		s-1.8,18.2-0.4,18.3s4.1-3.5,5-4.9c1.1-3.1,2-6.4,2.7-9.6c0.2-2.2,1.1-6.2,1.7-6.8s1.8-1.4,1.7-0.8s0,7.9,1.5,8.8s3.2,2.7,3.8,2.3
		s2.2-3.7,2.3-7s-0.1-10.8,1.6-11.8s2.4-0.6,2-0.1s-1.5,4.3-0.5,5.3s3.7,2.4,4.3,2s1.3-4.8,1.6-5.6s-1.7-5.5,0.9-7.1
		S341.1,9.3,344.6,10z"/>
	
		<linearGradient id="path2488_1_" gradientUnits="userSpaceOnUse" x1="-912.0515" y1="-15.258" x2="-862.6115" y2="-15.258" gradientTransform="matrix(-0.12 -0.99 0.99 -0.12 201.0486 -832.8198)">
		<stop  offset="0" style="stop-color:#3F622E"/>
		<stop  offset="4.000000e-02" style="stop-color:#557C3E"/>
		<stop  offset="5.000000e-02" style="stop-color:#5D8341"/>
		<stop  offset="0.1" style="stop-color:#7E9F4B"/>
		<stop  offset="0.14" style="stop-color:#96B352"/>
		<stop  offset="0.18" style="stop-color:#A4BF56"/>
		<stop  offset="0.21" style="stop-color:#A9C358"/>
		<stop  offset="0.34" style="stop-color:#C7C95E"/>
		<stop  offset="0.56" style="stop-color:#F9D467"/>
		<stop  offset="0.65" style="stop-color:#F9D56A"/>
		<stop  offset="0.73" style="stop-color:#F9D775"/>
		<stop  offset="0.8" style="stop-color:#FADB86"/>
		<stop  offset="0.87" style="stop-color:#FBE19F"/>
		<stop  offset="0.94" style="stop-color:#FCE9BF"/>
		<stop  offset="0.94" style="stop-color:#FCE9C0"/>
	</linearGradient>
	<path id="path2488" class="st1" d="M298.3,22c0.7-0.9,2.1,0.2,1.4,0.7c-1.2,1.9-2.5,3.4-3.7,5.4c-0.9,1.4-2.4,3.7-2.1,4.7
		s1,12.6,5,21.6c2.1,5,3.1,7.8,0,13.5c-3.1,5.7-6.8,6.3-12.6-2c-2.8-4.2-4.3-11.2-3.2-17.7c0.9-6.1,3.8-11.7,8.2-16
		c1.2-1.3,2.2-2.8,3-4.4C295.6,25.8,296.9,23.9,298.3,22z"/>
	
		<linearGradient id="path4225_1_" gradientUnits="userSpaceOnUse" x1="959.3884" y1="-380.4393" x2="983.3509" y2="-380.4393" gradientTransform="matrix(-0.38 0.93 -0.93 -0.38 321.9719 -955.642)">
		<stop  offset="0" style="stop-color:#3F622E"/>
		<stop  offset="4.000000e-02" style="stop-color:#557C3E"/>
		<stop  offset="5.000000e-02" style="stop-color:#5D8341"/>
		<stop  offset="0.1" style="stop-color:#7E9F4B"/>
		<stop  offset="0.14" style="stop-color:#96B352"/>
		<stop  offset="0.18" style="stop-color:#A4BF56"/>
		<stop  offset="0.21" style="stop-color:#A9C358"/>
		<stop  offset="0.34" style="stop-color:#C7C95E"/>
		<stop  offset="0.56" style="stop-color:#F9D467"/>
		<stop  offset="0.65" style="stop-color:#F9D56A"/>
		<stop  offset="0.73" style="stop-color:#F9D775"/>
		<stop  offset="0.8" style="stop-color:#FADB86"/>
		<stop  offset="0.87" style="stop-color:#FBE19F"/>
		<stop  offset="0.94" style="stop-color:#FCE9BF"/>
		<stop  offset="0.94" style="stop-color:#FCE9C0"/>
	</linearGradient>
	<path id="path4225" class="st2" d="M286.2,68.5c-0.6,4.7-0.3,11.1,7.5,22.5c11,13.7,16.6,12.3,19,13.6c5.2,1.2,11-3.6,10-3.7
		c3.9-0.3,7.7-1.2,11.3-2.6c0.1,0,2.2-3.4,1.2-2.8c-1.3,0.8-2.6,1.4-4,2c-2.9,1.2-7.6,1.3-7.5,1c-2.6-2.4-13.1-2.4-21.5-7.7
		S288.3,76.1,286.2,68.5z"/>
	
		<linearGradient id="SVGID_1_" gradientUnits="userSpaceOnUse" x1="739.4852" y1="-892.5475" x2="822.835" y2="-892.5475" gradientTransform="matrix(-0.84 0.54 -0.54 -0.84 528.9053 -1082.426)">
		<stop  offset="0" style="stop-color:#3F622E"/>
		<stop  offset="4.000000e-02" style="stop-color:#557C3E"/>
		<stop  offset="5.000000e-02" style="stop-color:#5D8341"/>
		<stop  offset="0.1" style="stop-color:#7E9F4B"/>
		<stop  offset="0.14" style="stop-color:#96B352"/>
		<stop  offset="0.18" style="stop-color:#A4BF56"/>
		<stop  offset="0.21" style="stop-color:#A9C358"/>
		<stop  offset="0.34" style="stop-color:#C7C95E"/>
		<stop  offset="0.56" style="stop-color:#F9D467"/>
		<stop  offset="0.65" style="stop-color:#F9D56A"/>
		<stop  offset="0.73" style="stop-color:#F9D775"/>
		<stop  offset="0.8" style="stop-color:#FADB86"/>
		<stop  offset="0.87" style="stop-color:#FBE19F"/>
		<stop  offset="0.94" style="stop-color:#FCE9BF"/>
		<stop  offset="0.94" style="stop-color:#FCE9C0"/>
	</linearGradient>
	<path class="st3" d="M330.7,116.5c11.4-0.4,48.6-23.8,47.4-45.3c-2.2,18.8-36.4,45.6-59.9,39.6c3.5-3.6,17.5-13.4,22.8-8.1
		c-1.7-7,10.4-11.2,15.1-16.9c1.9,17.1,1.8-14.8,10.2-8.5c1.6-11,9.3-20.7,8.7-32.1c8.4,11.3,8.6,30,9.1,43.1c-2.7,3-4-0.9-6.1-1.2
		c4.8,2.8,4.1,10.5-1.3,16.6c-4.3,2.4-7.1-3-11.4-1.2c2.4,3.7,6.4,0,8.6,4.9c-9.4,7.6-17.3,8.3-24.5,5.6
		C356.7,120,336.7,115,330.7,116.5z"/>
	
		<linearGradient id="SVGID_2_" gradientUnits="userSpaceOnUse" x1="-841.782" y1="310.4" x2="-774.4222" y2="310.4" gradientTransform="matrix(0.14 -0.96 -0.73 -0.27 725.4036 -630.8111)">
		<stop  offset="2.000000e-02" style="stop-color:#C2671D"/>
		<stop  offset="9.000000e-02" style="stop-color:#D37A35"/>
		<stop  offset="0.11" style="stop-color:#D77E3A"/>
		<stop  offset="0.15" style="stop-color:#E7863A"/>
		<stop  offset="0.19" style="stop-color:#F28B3A"/>
		<stop  offset="0.24" style="stop-color:#F68D3A"/>
		<stop  offset="0.33" style="stop-color:#F68E3C"/>
		<stop  offset="0.37" style="stop-color:#F59143"/>
		<stop  offset="0.4" style="stop-color:#F49750"/>
		<stop  offset="0.42" style="stop-color:#F39F62"/>
		<stop  offset="0.43" style="stop-color:#F2A56E"/>
		<stop  offset="0.52" style="stop-color:#F49A56"/>
		<stop  offset="0.6" style="stop-color:#F68D3A"/>
		<stop  offset="0.8" style="stop-color:#ED8837"/>
		<stop  offset="0.82" style="stop-color:#EE8B3D"/>
		<stop  offset="0.85" style="stop-color:#EF944D"/>
		<stop  offset="0.89" style="stop-color:#F2A269"/>
		<stop  offset="0.89" style="stop-color:#F2A56E"/>
		<stop  offset="0.97" style="stop-color:#F9BD85"/>
		<stop  offset="1" style="stop-color:#FDCA92"/>
	</linearGradient>
	<path class="st4" d="M394,80.7c6.2-18.6-7.1-47.8-20.9-56c13.4,20.6,19.1,57.2,13.4,72.6c21.8-15.9,23.3-56.8-4.5-69.6
		C392,37.7,402.6,66.7,394,80.7z"/>
	<path id="path307" class="st5" d="M362.4,5.5l-3.7,3.1c4.7,8.7-13.4,16.6-21.3,18.7c1.1-6.7,4.5-17.6,19.8-19.3l4-3.3L362.4,5.5z"
		/>
	<path id="path313" class="st5" d="M369.6,8.7l-1.8,3.6c3.9,10-7.3,18.9-11.4,20.7c-0.4-8.4,0.5-16.3,10.2-21l2.3-4.1L369.6,8.7z"/>
	<path class="st5" d="M334.8,6.3c21.5-7.2,50.9,2.6,59.1,24.7c0.7,1.7,5.5,3.5,5.4,3.1c-9.5-25.2-44-40.2-69.3-31.7
		C329.1,2.7,333.3,6.8,334.8,6.3z"/>
	
		<linearGradient id="SVGID_3_" gradientUnits="userSpaceOnUse" x1="-329.756" y1="713.3437" x2="-294.526" y2="713.3437" gradientTransform="matrix(0.81 -0.58 0.58 0.81 162.6451 -679.6816)">
		<stop  offset="2.000000e-02" style="stop-color:#C2671D"/>
		<stop  offset="9.000000e-02" style="stop-color:#D37A35"/>
		<stop  offset="0.11" style="stop-color:#D77E3A"/>
		<stop  offset="0.15" style="stop-color:#E7863A"/>
		<stop  offset="0.19" style="stop-color:#F28B3A"/>
		<stop  offset="0.24" style="stop-color:#F68D3A"/>
		<stop  offset="0.33" style="stop-color:#F68E3C"/>
		<stop  offset="0.37" style="stop-color:#F59143"/>
		<stop  offset="0.4" style="stop-color:#F49750"/>
		<stop  offset="0.42" style="stop-color:#F39F62"/>
		<stop  offset="0.43" style="stop-color:#F2A56E"/>
		<stop  offset="0.52" style="stop-color:#F49A56"/>
		<stop  offset="0.6" style="stop-color:#F68D3A"/>
		<stop  offset="0.8" style="stop-color:#ED8837"/>
		<stop  offset="0.82" style="stop-color:#EE8B3D"/>
		<stop  offset="0.85" style="stop-color:#EF944D"/>
		<stop  offset="0.89" style="stop-color:#F2A269"/>
		<stop  offset="0.89" style="stop-color:#F2A56E"/>
		<stop  offset="0.97" style="stop-color:#F9BD85"/>
		<stop  offset="1" style="stop-color:#FDCA92"/>
	</linearGradient>
	<path class="st6" d="M313,81.6c-0.9,0-5,2.2-7.8,1.1s0.2-3.7,2.3-4.7c-1.4-1.8-4.5,1-5.9-1.3c-1.8-3.9,1.2-7.9,6-6.2
		c4,6.9,13.6,13.3,25.2,13.2c-10.5-1.2-21.8-8.3-25.8-15.5c3.7-2.6,5.5-3.9,9-1.9c0.4,2.1,0.9,2.5-1,4.6c1.9-0.3,3.2-2.3,5.3-1
		c0.6,1.3,0.7,2.5-1,4.2c3.3,0.2,4.9-4.1,8.6-2.6c-0.1,1.7-0.5,4.9-2.5,5.8c3.2-0.8,5.3-3.4,8.3-4.7c2.2,0.4,0.1,4-0.9,5.5
		c2.3-2.1,4.9-3.8,7.7-5.1c1.8,0.3,2.4,4.4-0.4,6.7c0.1-2,2.2-1.3,5.8-0.5c-0.7,4.8-4.1,6.6-6.9,5.5c-3.2,1.5,3.8,4.7-1,7.2
		c-8.6,2-7.7-3-10.4-4.3c-1.7,2.6,0.2,5.3-6.3,7c-6.2-2.7-1.6-5.3-1.4-8.5c-3.6,0.5-3.1,3.2-8.3,2.7C307.5,85.3,310.5,84.5,313,81.6
		z"/>
	
		<linearGradient id="SVGID_4_" gradientUnits="userSpaceOnUse" x1="-252.071" y1="315.7923" x2="-213.241" y2="315.7923" gradientTransform="matrix(0.76 -0.64 0.64 0.76 331.8956 -333.6421)">
		<stop  offset="0" style="stop-color:#AD123C"/>
		<stop  offset="2.000000e-02" style="stop-color:#C11841"/>
		<stop  offset="5.000000e-02" style="stop-color:#CF1C44"/>
		<stop  offset="7.000000e-02" style="stop-color:#D71E46"/>
		<stop  offset="0.12" style="stop-color:#DA1F47"/>
		<stop  offset="0.15" style="stop-color:#DC2D48"/>
		<stop  offset="0.22" style="stop-color:#E0454A"/>
		<stop  offset="0.28" style="stop-color:#E2544B"/>
		<stop  offset="0.33" style="stop-color:#E3594B"/>
		<stop  offset="0.53" style="stop-color:#F1A479"/>
		<stop  offset="0.64" style="stop-color:#F7C3A3"/>
		<stop  offset="0.75" style="stop-color:#FCDBC5"/>
		<stop  offset="0.8" style="stop-color:#FEE4D2"/>
		<stop  offset="0.81" style="stop-color:#FCE3CF"/>
		<stop  offset="0.84" style="stop-color:#F3DEC4"/>
		<stop  offset="0.88" style="stop-color:#EEDBBD"/>
		<stop  offset="0.99" style="stop-color:#EDDABB"/>
	</linearGradient>
	<path class="st7" d="M365,39.5c-1.6,15.7-9.1,16-14.2,35.3c-7.1-5.7-6.7-14.4-0.7-23.8s10.8-10,13.9-20.3c5.6,9.1,8.7,13.3,6,24.2
		s-8.9,15.7-14.6,20.7c0.6-9.9,3.1-13.4,5.7-18.3S366.1,46.9,365,39.5z"/>
	
		<linearGradient id="SVGID_5_" gradientUnits="userSpaceOnUse" x1="-115.1788" y1="612.3111" x2="-79.8523" y2="612.3111" gradientTransform="matrix(0.8581 -0.5135 0.5135 0.8581 100.0767 -524.4133)">
		<stop  offset="0" style="stop-color:#AD123C"/>
		<stop  offset="2.000000e-02" style="stop-color:#C11841"/>
		<stop  offset="5.000000e-02" style="stop-color:#CF1C44"/>
		<stop  offset="7.000000e-02" style="stop-color:#D71E46"/>
		<stop  offset="0.12" style="stop-color:#DA1F47"/>
		<stop  offset="0.15" style="stop-color:#DC2D48"/>
		<stop  offset="0.22" style="stop-color:#E0454A"/>
		<stop  offset="0.28" style="stop-color:#E2544B"/>
		<stop  offset="0.33" style="stop-color:#E3594B"/>
		<stop  offset="0.53" style="stop-color:#F1A479"/>
		<stop  offset="0.64" style="stop-color:#F7C3A3"/>
		<stop  offset="0.75" style="stop-color:#FCDBC5"/>
		<stop  offset="0.8" style="stop-color:#FEE4D2"/>
		<stop  offset="0.81" style="stop-color:#FCE3CF"/>
		<stop  offset="0.84" style="stop-color:#F3DEC4"/>
		<stop  offset="0.88" style="stop-color:#EEDBBD"/>
		<stop  offset="0.99" style="stop-color:#EDDABB"/>
	</linearGradient>
	<path class="st8" d="M331.4,33.6c2.8,5.2,1.3,9.3,0.6,13.6c4.8-2,3.3-7.5,6.9-8.5s5.5,3.1,8.2,5.2c-2,2.8-9.8,6.8-13.6,6.9
		c1.7,4.1,8.8,0.1,11,3.5s-2.2,6.9-3.9,10.5c-4.4-0.5-8.9-6.4-10.9-11.8c-3.4,3.2,1.1,9.5-2.2,12.1c-3.3,2.6-6.5-0.4-9.9-1.7
		c-1.2-5.8,5.6-9.6,9.2-13.1c-3.3-1.9-8.3,2.6-12.2,2.9c-0.2-0.6-0.6-0.8-1-0.7c-4.9-11.6,9-12,14.5-5.5c0.2-4.2-4-5.2-6.3-8.3
		C322,34.8,328.5,34.2,331.4,33.6z"/>
</g>
<polygon class="st9" points="81,19.8 64.5,63.6 47.6,23.8 30.7,63.6 14.1,19.8 0,19.8 29.9,95.3 47.6,52.5 64.5,95.5 95.3,19.8 "/>
<polygon class="st9" points="165.6,33 124.2,33 124.2,49 153.1,49 153.1,61.5 124.2,61.5 124.2,92.3 111,92.3 111,61.5 102.5,61.5 
	102.5,49 111,49 111,20.4 165.6,20.4 "/>
<path class="st9" d="M231.1,57.2c0.1-6.8-2.6-13.2-7.5-17.8c-4.5-4.7-10.7-7.4-17.2-7.3c-6.6,0-12.8,2.6-17.4,7.3
	c-4.8,4.7-7.6,11.2-7.4,17.8c-0.1,6.8,2.6,13.2,7.4,17.9c5,4.9,10.8,7.4,17.4,7.4c6.5,0,12.7-2.6,17.2-7.4
	C228.5,70.5,231.2,64,231.1,57.2 M245.2,57.2c0,10.7-3.8,19.7-11.2,27c-7.5,7.4-16.7,11.1-27.6,11.1s-20.2-3.7-27.7-11.1
	c-7.5-7.4-11.2-16.3-11.2-27c-0.2-10.2,4-19.9,11.3-27c7.5-7.3,16.7-11,27.6-11s20,3.6,27.6,10.9C241.4,37.5,245.2,46.5,245.2,57.2"
	/>
</svg>
